<svg width="618" height="596" viewBox="0 0 618 596" fill="none" xmlns="http://www.w3.org/2000/svg">
<g clip-path="url(#clip0_32_3513)">
<path d="M527.62 9.37671H421.562V147.511H527.62V9.37671Z" fill="#F4F4F4"/>
<path d="M527.62 147.512H531.061V9.37738H527.62V147.512Z" fill="#F4F4F4"/>
<path opacity="0.05" d="M527.62 147.512H531.061V9.37738H527.62V147.512Z" fill="#262626"/>
<path opacity="0.05" d="M508.3 34.5398H440.882V122.349H508.3V34.5398Z" fill="#262626"/>
<path opacity="0.03" d="M508.3 34.5398H504.787V122.349H508.3V34.5398Z" fill="#262626"/>
<path d="M614.358 181.481H527.62V269.071H614.358V181.481Z" fill="#F4F4F4"/>
<path opacity="0.05" d="M598.558 197.437H543.421V253.115H598.558V197.437Z" fill="#262626"/>
<path d="M614.358 269.071H617.799V181.481H614.358V269.071Z" fill="#F4F4F4"/>
<path opacity="0.05" d="M614.358 269.071H617.799V181.481H614.358V269.071Z" fill="#262626"/>
<path opacity="0.03" d="M598.558 197.437H595.045V253.115H598.558V197.437Z" fill="#262626"/>
<path d="M301.249 0.5H12.3093V289.623H301.249V0.5Z" fill="#F4F4F4"/>
<path d="M304.561 0.5H301.249V289.623H304.561V0.5Z" fill="#F4F4F4"/>
<path opacity="0.05" d="M304.561 0.5H301.249V289.623H304.561V0.5Z" fill="#262626"/>
<path opacity="0.05" d="M231.252 199.729V124.085H169.327V168.033H73.4064V245.848H32.6387V289.623H73.4064H81.2605H287.35V199.729H231.252Z" fill="#262626"/>
<path opacity="0.34" d="M222.371 132.299H177.277V140.512H222.371V132.299Z" fill="#FFFFFA"/>
<path opacity="0.34" d="M222.371 149.318H177.277V157.531H222.371V149.318Z" fill="#FFFFFA"/>
<path opacity="0.34" d="M222.371 166.338H177.277V174.551H222.371V166.338Z" fill="#FFFFFA"/>
<path opacity="0.34" d="M279.353 207.702H271.042V215.915H279.353V207.702Z" fill="#FFFFFA"/>
<path opacity="0.34" d="M279.353 224.722H271.042V232.935H279.353V224.722Z" fill="#FFFFFA"/>
<path opacity="0.34" d="M279.353 241.741H271.042V249.955H279.353V241.741Z" fill="#FFFFFA"/>
<path opacity="0.34" d="M263.977 207.702H255.666V215.915H263.977V207.702Z" fill="#FFFFFA"/>
<path opacity="0.34" d="M263.977 224.722H255.666V232.935H263.977V224.722Z" fill="#FFFFFA"/>
<path opacity="0.34" d="M263.977 241.741H255.666V249.955H263.977V241.741Z" fill="#FFFFFA"/>
<path opacity="0.34" d="M249.017 207.702H240.705V215.915H249.017V207.702Z" fill="#FFFFFA"/>
<path opacity="0.34" d="M249.017 224.722H240.705V232.935H249.017V224.722Z" fill="#FFFFFA"/>
<path opacity="0.34" d="M249.017 241.741H240.705V249.955H249.017V241.741Z" fill="#FFFFFA"/>
<path d="M301.249 143.44H243.109V0.5H238.301V143.44H81.2605V0.5H76.452V143.44H12.3093V148.251H76.452V289.623H81.2605V148.251H238.301V289.623H243.109V148.251H301.249V143.44Z" fill="white"/>
<path d="M312.76 289.275H0.798828V298.89H312.76V289.275Z" fill="#F4F4F4"/>
<path opacity="0.1" d="M312.76 289.275H0.798828V298.89H312.76V289.275Z" fill="#262626"/>
<path opacity="0.1" d="M317.264 289.275H312.76V298.89H317.264V289.275Z" fill="#262626"/>
<path opacity="0.1" d="M317.264 289.275H312.76V298.89H317.264V289.275Z" fill="#262626"/>
<path opacity="0.05" d="M465.282 583.273H449.231V593.999H465.282V583.273Z" fill="#262626"/>
<path opacity="0.05" d="M566.039 583.273H549.989V593.999H566.039V583.273Z" fill="#262626"/>
<path d="M580.752 419.856H434.519V583.273H580.752V419.856Z" fill="#F4F4F4"/>
<path opacity="0.03" d="M580.752 419.856H434.519V583.273H580.752V419.856Z" fill="#262626"/>
<path d="M541.915 419.856H395.682V583.273H541.915V419.856Z" fill="#F4F4F4"/>
<path opacity="0.05" d="M426.445 583.273H410.395V593.999H426.445V583.273Z" fill="#262626"/>
<path opacity="0.05" d="M527.202 583.273H511.152V593.999H527.202V583.273Z" fill="#262626"/>
<path opacity="0.7" d="M534.047 429.961H403.548V471.408H534.047V429.961Z" fill="white"/>
<path opacity="0.7" d="M534.047 481.552H403.548V522.999H534.047V481.552Z" fill="white"/>
<path opacity="0.7" d="M534.047 533.144H403.548V574.59H534.047V533.144Z" fill="white"/>
<path opacity="0.05" d="M468.798 456.484C471.999 456.484 474.594 453.887 474.594 450.684C474.594 447.481 471.999 444.884 468.798 444.884C465.597 444.884 463.002 447.481 463.002 450.684C463.002 453.887 465.597 456.484 468.798 456.484Z" fill="#262626"/>
<path opacity="0.05" d="M468.798 508.075C471.999 508.075 474.594 505.479 474.594 502.276C474.594 499.073 471.999 496.476 468.798 496.476C465.597 496.476 463.002 499.073 463.002 502.276C463.002 505.479 465.597 508.075 468.798 508.075Z" fill="#262626"/>
<path opacity="0.05" d="M468.798 559.667C471.999 559.667 474.594 557.071 474.594 553.867C474.594 550.664 471.999 548.068 468.798 548.068C465.597 548.068 463.002 550.664 463.002 553.867C463.002 557.071 465.597 559.667 468.798 559.667Z" fill="#262626"/>
<path d="M69.527 514.613C69.446 514.614 69.3658 514.598 69.291 514.567C69.2162 514.536 69.1483 514.49 69.0912 514.433C68.2227 513.564 66.8068 497.62 62.9938 450.149C61.4337 430.725 59.9599 412.378 58.8843 401.229C58.8079 400.432 58.499 400.34 58.398 400.309C56.9254 399.865 52.4485 403.397 49.949 406.491C49.8462 406.618 49.6971 406.7 49.5344 406.717C49.3718 406.734 49.2089 406.686 49.0818 406.583C48.9546 406.48 48.8734 406.331 48.8562 406.168C48.839 406.005 48.8871 405.843 48.9899 405.715C50.6431 403.67 56.0304 398.308 58.7524 399.128C59.301 399.293 59.9852 399.771 60.1084 401.11C61.1853 412.27 62.6591 430.621 64.2198 450.051C66.5368 478.898 69.1614 511.579 70.0244 513.637C70.0905 513.729 70.1299 513.838 70.1383 513.951C70.1467 514.064 70.1238 514.177 70.072 514.278C70.0203 514.379 69.9418 514.464 69.8451 514.523C69.7484 514.582 69.6372 514.613 69.5239 514.613H69.527Z" fill="#494949"/>
<path d="M57.3007 421.69C67.529 413.486 70.9191 400.716 64.8727 393.168C58.8262 385.62 45.6329 386.152 35.4046 394.356C25.1762 402.56 21.7861 415.33 27.8326 422.878C33.879 430.426 47.0724 429.894 57.3007 421.69Z" fill="#0CBC8B"/>
<path opacity="0.2" d="M57.3007 421.69C67.529 413.486 70.9191 400.716 64.8727 393.168C58.8262 385.62 45.6329 386.152 35.4046 394.356C25.1762 402.56 21.7861 415.33 27.8326 422.878C33.879 430.426 47.0724 429.894 57.3007 421.69Z" fill="white"/>
<path d="M30.6991 424.796C30.6406 424.796 30.5833 424.78 30.5339 424.748C30.4845 424.717 30.445 424.672 30.4202 424.619C30.3953 424.566 30.386 424.507 30.3933 424.449C30.4007 424.391 30.4244 424.336 30.4617 424.291L59.6117 389.116C59.6376 389.085 59.6693 389.059 59.7051 389.041C59.7409 389.022 59.7801 389.01 59.8205 389.006C59.8608 389.002 59.9014 389.007 59.9401 389.019C59.9788 389.031 60.0148 389.05 60.0459 389.076C60.0771 389.102 60.1029 389.134 60.1218 389.17C60.1407 389.205 60.1523 389.245 60.1561 389.285C60.1598 389.325 60.1556 389.366 60.1436 389.405C60.1317 389.443 60.1122 389.479 60.0863 389.511L30.9364 424.685C30.9075 424.72 30.8712 424.748 30.8302 424.767C30.7891 424.786 30.7444 424.796 30.6991 424.796Z" fill="white"/>
<path d="M75.8832 507.073C75.8143 507.073 75.7459 507.061 75.681 507.038C75.5266 506.984 75.3998 506.871 75.3286 506.724C75.2574 506.577 75.2476 506.407 75.3013 506.253L86.2509 474.744C86.5733 473.818 87.1227 472.988 87.8487 472.33C88.5748 471.671 89.4542 471.206 90.4066 470.976C91.359 470.746 92.3538 470.759 93.3 471.013C94.2461 471.267 95.1134 471.755 95.8223 472.432L101.612 477.965C101.73 478.078 101.798 478.233 101.802 478.397C101.806 478.561 101.745 478.719 101.632 478.837C101.519 478.956 101.363 479.024 101.2 479.028C101.036 479.032 100.878 478.971 100.76 478.858L94.9711 473.324C94.4114 472.789 93.7267 472.404 92.9797 472.203C92.2328 472.003 91.4474 471.993 90.6955 472.174C89.9436 472.356 89.2493 472.723 88.6761 473.243C88.1029 473.763 87.6692 474.418 87.4147 475.149L76.4657 506.659C76.4237 506.78 76.345 506.885 76.2406 506.959C76.1362 507.033 76.0113 507.073 75.8832 507.073Z" fill="#494949"/>
<path d="M117.783 495.409C125.363 489.405 124.913 476.201 116.777 465.916C108.641 455.631 95.9007 452.16 88.3206 458.164C80.7404 464.168 81.1909 477.372 89.3267 487.657C97.4626 497.942 110.203 501.413 117.783 495.409Z" fill="#0CBC8B"/>
<path d="M64.5515 512.604C64.4131 512.604 64.2787 512.557 64.17 512.471C64.0613 512.385 63.9846 512.266 63.9524 512.131L45.577 435.251C45.4513 434.728 45.1837 434.249 44.8036 433.867C44.4235 433.485 43.9456 433.216 43.4224 433.088C42.8993 432.961 42.3511 432.98 41.8382 433.144C41.3253 433.308 40.8675 433.611 40.5152 434.018L34.8505 440.568C34.7983 440.631 34.7339 440.684 34.6611 440.722C34.5882 440.761 34.5084 440.784 34.4264 440.791C34.3443 440.799 34.2616 440.789 34.1833 440.764C34.105 440.738 34.0325 440.697 33.9702 440.643C33.9079 440.589 33.857 440.524 33.8206 440.45C33.7842 440.376 33.763 440.295 33.7581 440.213C33.7533 440.131 33.765 440.048 33.7926 439.971C33.8201 439.893 33.8629 439.822 33.9185 439.761L39.5826 433.211C40.0833 432.632 40.7339 432.202 41.4629 431.969C42.1919 431.736 42.9711 431.708 43.7147 431.89C44.4583 432.071 45.1376 432.454 45.6778 432.996C46.2179 433.539 46.5981 434.22 46.7765 434.965L65.1506 511.844C65.1886 512.003 65.1619 512.171 65.0764 512.31C64.9908 512.45 64.8535 512.549 64.6945 512.587C64.6477 512.598 64.5997 512.604 64.5515 512.604Z" fill="#494949"/>
<path d="M57.7715 457.647C60.0052 444.722 54.0937 432.908 44.5676 431.259C35.0416 429.611 25.5084 438.753 23.2747 451.678C21.041 464.603 26.9526 476.417 36.4786 478.066C46.0047 479.714 55.5378 470.572 57.7715 457.647Z" fill="#0CBC8B"/>
<path d="M69.527 514.613C69.5017 514.613 69.4763 514.612 69.4512 514.609C69.3708 514.599 69.2931 514.574 69.2226 514.534C69.1521 514.494 69.0902 514.44 69.0403 514.376C68.9905 514.313 68.9537 514.24 68.932 514.161C68.9104 514.083 68.9044 514.002 68.9143 513.921L80.648 418.592C80.776 417.554 81.2009 416.574 81.8718 415.772C82.5426 414.969 83.4308 414.377 84.4296 414.068C85.4284 413.758 86.4953 413.744 87.5021 414.027C88.5088 414.309 89.4126 414.877 90.1047 415.661L103.516 430.86C103.57 430.921 103.611 430.992 103.637 431.069C103.664 431.145 103.674 431.226 103.669 431.307C103.664 431.388 103.643 431.467 103.608 431.54C103.572 431.613 103.523 431.678 103.462 431.731C103.401 431.785 103.331 431.826 103.254 431.852C103.177 431.879 103.096 431.89 103.016 431.885C102.935 431.88 102.856 431.859 102.783 431.823C102.71 431.787 102.645 431.738 102.592 431.677L89.1802 416.478C88.6453 415.871 87.9468 415.433 87.1686 415.214C86.3905 414.996 85.5659 415.007 84.7939 415.246C84.022 415.485 83.3355 415.943 82.8171 416.563C82.2986 417.183 81.9703 417.94 81.8715 418.743L70.1378 514.072C70.1195 514.221 70.0473 514.358 69.9348 514.458C69.8223 514.558 69.6773 514.613 69.527 514.613Z" fill="#494949"/>
<path d="M117.27 439.307C121.95 430.842 116.444 418.833 104.973 412.484C93.5024 406.135 80.4101 407.85 75.7307 416.315C71.0514 424.779 76.557 436.789 88.0279 443.138C99.4987 449.487 112.591 447.772 117.27 439.307Z" fill="#0CBC8B"/>
<path opacity="0.2" d="M117.783 495.409C125.363 489.405 124.913 476.201 116.777 465.916C108.641 455.631 95.9007 452.16 88.3206 458.164C80.7404 464.168 81.1909 477.372 89.3267 487.657C97.4626 497.942 110.203 501.413 117.783 495.409Z" fill="white"/>
<path opacity="0.5" d="M57.7715 457.647C60.0052 444.722 54.0937 432.908 44.5676 431.259C35.0416 429.611 25.5084 438.753 23.2747 451.678C21.041 464.603 26.9526 476.417 36.4786 478.066C46.0047 479.714 55.5378 470.572 57.7715 457.647Z" fill="white"/>
<path opacity="0.5" d="M117.27 439.307C121.95 430.842 116.444 418.833 104.973 412.484C93.5024 406.135 80.4101 407.85 75.7307 416.315C71.0514 424.779 76.557 436.789 88.0279 443.138C99.4987 449.487 112.591 447.772 117.27 439.307Z" fill="white"/>
<path d="M84.5337 595.5H54.5178L49.5435 499.402H89.5074L84.5337 595.5Z" fill="#262626"/>
<path opacity="0.3" d="M84.5337 595.5H54.5178L49.5435 499.402H89.5074L84.5337 595.5Z" fill="white"/>
<path d="M117.785 495.718C117.739 495.718 117.693 495.708 117.651 495.687C117.609 495.667 117.572 495.637 117.543 495.601L88.0798 458.356C88.0547 458.324 88.036 458.287 88.0249 458.249C88.0139 458.21 88.0106 458.169 88.0152 458.129C88.0199 458.088 88.0324 458.049 88.0521 458.014C88.0718 457.979 88.0983 457.948 88.13 457.922C88.1618 457.897 88.1981 457.879 88.2371 457.867C88.276 457.856 88.3167 457.853 88.3569 457.858C88.3972 457.862 88.4361 457.875 88.4714 457.895C88.5068 457.914 88.5379 457.941 88.563 457.973L118.027 495.218C118.063 495.263 118.085 495.318 118.092 495.376C118.098 495.433 118.088 495.492 118.063 495.544C118.038 495.596 117.998 495.64 117.949 495.671C117.9 495.702 117.843 495.718 117.785 495.718Z" fill="white"/>
<path d="M115.312 442.291C115.246 442.291 115.182 442.269 115.13 442.23L77.4273 414.683C77.3612 414.634 77.3171 414.562 77.3045 414.481C77.2919 414.4 77.3119 414.318 77.3601 414.252C77.4083 414.186 77.4808 414.141 77.5616 414.129C77.6424 414.116 77.7249 414.136 77.791 414.184L115.493 441.732C115.545 441.771 115.583 441.825 115.603 441.887C115.622 441.948 115.621 442.015 115.601 442.076C115.58 442.138 115.541 442.191 115.489 442.229C115.436 442.267 115.373 442.287 115.308 442.287L115.312 442.291Z" fill="white"/>
<path d="M34.9472 477.663C34.9204 477.663 34.8936 477.659 34.8677 477.652C34.7894 477.631 34.7227 477.579 34.6822 477.509C34.6417 477.438 34.6306 477.355 34.6514 477.276L46.6532 432.279C46.6631 432.239 46.6808 432.202 46.7052 432.169C46.7297 432.136 46.7605 432.109 46.7957 432.088C46.8309 432.067 46.87 432.054 46.9105 432.048C46.951 432.042 46.9922 432.045 47.0318 432.056C47.0713 432.066 47.1083 432.084 47.1407 432.11C47.1731 432.135 47.2001 432.166 47.2203 432.201C47.2405 432.237 47.2534 432.276 47.2583 432.317C47.2631 432.358 47.2598 432.399 47.2486 432.438L35.2468 477.434C35.2292 477.5 35.1903 477.558 35.136 477.599C35.0818 477.641 35.0154 477.663 34.9472 477.663Z" fill="white"/>
<path d="M458.263 34.446H104.028C93.815 34.446 85.5359 42.7304 85.5359 52.9496V443.977C85.5359 454.196 93.815 462.481 104.028 462.481H458.263C468.476 462.481 476.755 454.196 476.755 443.977V52.9496C476.755 42.7304 468.476 34.446 458.263 34.446Z" fill="white"/>
<path d="M457.913 462.574H103.675C98.6091 462.568 93.7523 460.552 90.1701 456.968C86.5878 453.383 84.5728 448.523 84.5669 443.454V52.4265C84.5728 47.3573 86.5878 42.4974 90.1701 38.9129C93.7523 35.3284 98.6091 33.312 103.675 33.3062H457.913C462.979 33.3119 467.836 35.3282 471.418 38.9127C475 42.4972 477.015 47.3573 477.021 52.4265V443.454C477.015 448.523 475 453.383 471.418 456.968C467.836 460.552 462.979 462.569 457.913 462.574ZM103.675 34.5397C98.936 34.5453 94.3925 36.4316 91.0414 39.7848C87.6903 43.138 85.8052 47.6844 85.7997 52.4265V443.454C85.8051 448.196 87.6901 452.743 91.0412 456.096C94.3924 459.449 98.9359 461.335 103.675 461.341H457.913C462.652 461.335 467.195 459.449 470.547 456.096C473.898 452.743 475.783 448.196 475.788 443.454V52.4265C475.783 47.6844 473.897 43.138 470.546 39.7848C467.195 36.4316 462.652 34.5453 457.913 34.5397H103.675Z" fill="#262626"/>
<path d="M476.404 52.424V66.7261H85.1875V52.424C85.1875 47.5165 87.1357 42.8101 90.6036 39.34C94.0715 35.8699 98.775 33.9204 103.679 33.9204H457.912C462.816 33.9204 467.52 35.8699 470.988 39.34C474.456 42.8101 476.404 47.5165 476.404 52.424Z" fill="#262626"/>
<path opacity="0.1" d="M150.417 180.317C175.386 180.317 195.627 160.063 195.627 135.079C195.627 110.095 175.386 89.8408 150.417 89.8408C125.449 89.8408 105.208 110.095 105.208 135.079C105.208 160.063 125.449 180.317 150.417 180.317Z" fill="#50C878"/>
<path opacity="0.2" d="M150.417 133.133C159.089 133.133 166.12 126.098 166.12 117.42C166.12 108.742 159.089 101.707 150.417 101.707C141.745 101.707 134.714 108.742 134.714 117.42C134.714 126.098 141.745 133.133 150.417 133.133Z" fill="#50C878"/>
<path opacity="0.2" d="M184.405 164.91C180.161 169.751 174.934 173.63 169.073 176.287C163.211 178.944 156.85 180.318 150.415 180.317C143.98 180.317 137.619 178.942 131.758 176.283C125.897 173.625 120.671 169.746 116.428 164.904C118.602 157.571 123.085 151.137 129.211 146.562C135.336 141.987 142.775 139.516 150.419 139.517C158.062 139.517 165.501 141.99 171.626 146.566C177.75 151.142 182.233 157.577 184.405 164.91Z" fill="#50C878"/>
<path opacity="0.2" d="M171.771 211.178H110.492C108.281 211.178 106.488 212.972 106.488 215.185C106.488 217.398 108.281 219.192 110.492 219.192H171.771C173.982 219.192 175.775 217.398 175.775 215.185C175.775 212.972 173.982 211.178 171.771 211.178Z" fill="#50C878"/>
<path opacity="0.1" d="M317.376 92.8792H221.057C217.461 92.8792 214.545 95.7966 214.545 99.3955V112.911C214.545 116.51 217.461 119.427 221.057 119.427H317.376C320.972 119.427 323.888 116.51 323.888 112.911V99.3955C323.888 95.7966 320.972 92.8792 317.376 92.8792Z" fill="#50C878"/>
<path opacity="0.2" d="M361.996 134.104H217.627C215.925 134.104 214.545 135.485 214.545 137.188C214.545 138.892 215.925 140.272 217.627 140.272H361.996C363.698 140.272 365.078 138.892 365.078 137.188C365.078 135.485 363.698 134.104 361.996 134.104Z" fill="#50C878"/>
<path opacity="0.2" d="M361.996 152.608H217.627C215.925 152.608 214.545 153.989 214.545 155.692C214.545 157.395 215.925 158.776 217.627 158.776H361.996C363.698 158.776 365.078 157.395 365.078 155.692C365.078 153.989 363.698 152.608 361.996 152.608Z" fill="#50C878"/>
<path opacity="0.2" d="M337.34 171.112H217.627C215.925 171.112 214.545 172.493 214.545 174.196C214.545 175.899 215.925 177.28 217.627 177.28H337.34C339.042 177.28 340.422 175.899 340.422 174.196C340.422 172.493 339.042 171.112 337.34 171.112Z" fill="#50C878"/>
<path opacity="0.1" d="M262.773 230.75H112.277C109.08 230.75 106.488 233.343 106.488 236.542V250.853C106.488 254.052 109.08 256.645 112.277 256.645H262.773C265.97 256.645 268.562 254.052 268.562 250.853V236.542C268.562 233.343 265.97 230.75 262.773 230.75Z" fill="#50C878"/>
<path opacity="0.2" d="M356.293 211.178H295.015C292.803 211.178 291.011 212.972 291.011 215.185C291.011 217.398 292.803 219.192 295.015 219.192H356.293C358.504 219.192 360.297 217.398 360.297 215.185C360.297 212.972 358.504 211.178 356.293 211.178Z" fill="#50C878"/>
<path opacity="0.1" d="M447.296 230.75H296.799C293.602 230.75 291.011 233.343 291.011 236.542V250.853C291.011 254.052 293.602 256.645 296.799 256.645H447.296C450.493 256.645 453.084 254.052 453.084 250.853V236.542C453.084 233.343 450.493 230.75 447.296 230.75Z" fill="#50C878"/>
<path opacity="0.2" d="M171.771 278.054H110.492C108.281 278.054 106.488 279.848 106.488 282.061C106.488 284.273 108.281 286.067 110.492 286.067H171.771C173.982 286.067 175.775 284.273 175.775 282.061C175.775 279.848 173.982 278.054 171.771 278.054Z" fill="#50C878"/>
<path opacity="0.1" d="M262.773 297.626H112.277C109.08 297.626 106.488 300.219 106.488 303.418V317.729C106.488 320.928 109.08 323.521 112.277 323.521H262.773C265.97 323.521 268.562 320.928 268.562 317.729V303.418C268.562 300.219 265.97 297.626 262.773 297.626Z" fill="#50C878"/>
<path opacity="0.2" d="M356.293 278.054H295.015C292.803 278.054 291.011 279.848 291.011 282.061C291.011 284.273 292.803 286.067 295.015 286.067H356.293C358.504 286.067 360.297 284.273 360.297 282.061C360.297 279.848 358.504 278.054 356.293 278.054Z" fill="#50C878"/>
<path opacity="0.1" d="M447.296 297.626H296.799C293.602 297.626 291.011 300.219 291.011 303.418V317.729C291.011 320.928 293.602 323.521 296.799 323.521H447.296C450.493 323.521 453.084 320.928 453.084 317.729V303.418C453.084 300.219 450.493 297.626 447.296 297.626Z" fill="#50C878"/>
<path opacity="0.2" d="M171.771 344.93H110.492C108.281 344.93 106.488 346.724 106.488 348.936C106.488 351.149 108.281 352.943 110.492 352.943H171.771C173.982 352.943 175.775 351.149 175.775 348.936C175.775 346.724 173.982 344.93 171.771 344.93Z" fill="#50C878"/>
<path opacity="0.1" d="M262.773 364.501H112.277C109.08 364.501 106.488 367.095 106.488 370.294V384.604C106.488 387.803 109.08 390.397 112.277 390.397H262.773C265.97 390.397 268.562 387.803 268.562 384.604V370.294C268.562 367.095 265.97 364.501 262.773 364.501Z" fill="#50C878"/>
<path opacity="0.2" d="M356.293 344.93H295.015C292.803 344.93 291.011 346.724 291.011 348.936C291.011 351.149 292.803 352.943 295.015 352.943H356.293C358.504 352.943 360.297 351.149 360.297 348.936C360.297 346.724 358.504 344.93 356.293 344.93Z" fill="#50C878"/>
<path opacity="0.1" d="M447.296 364.501H296.799C293.602 364.501 291.011 367.095 291.011 370.294V384.604C291.011 387.803 293.602 390.397 296.799 390.397H447.296C450.493 390.397 453.084 387.803 453.084 384.604V370.294C453.084 367.095 450.493 364.501 447.296 364.501Z" fill="#50C878"/>
<path opacity="0.2" d="M327.83 410.572H233.76C229.964 410.572 226.887 413.651 226.887 417.449V430.145C226.887 433.944 229.964 437.023 233.76 437.023H327.83C331.625 437.023 334.703 433.944 334.703 430.145V417.449C334.703 413.651 331.625 410.572 327.83 410.572Z" fill="#50C878"/>
<path d="M297.205 111.082L307.167 122.854L306.55 120.833C306.364 120.177 306.434 119.474 306.745 118.867C307.057 118.26 307.587 117.795 308.229 117.564C308.565 117.457 308.918 117.419 309.269 117.453C309.619 117.486 309.959 117.591 310.268 117.761C310.576 117.931 310.847 118.161 311.064 118.439C311.28 118.717 311.438 119.036 311.528 119.377L316.081 136.535C316.656 138.701 316.363 141.006 315.263 142.959C314.163 144.911 312.345 146.356 310.196 146.986C307.7 147.716 305.043 147.685 302.566 146.895C300.088 146.105 297.903 144.593 296.29 142.553L288.998 133.294C288.61 132.82 288.397 132.227 288.396 131.615C288.395 131.002 288.605 130.408 288.992 129.933C289.349 129.51 289.833 129.214 290.371 129.086C290.91 128.959 291.475 129.007 291.984 129.223C291.995 129.183 292.016 129.145 292.046 129.116C292.076 129.09 292.111 129.072 292.15 129.063C292.189 129.054 292.229 129.055 292.267 129.065L290.917 127.357C290.503 126.856 290.284 126.222 290.3 125.573C290.317 124.923 290.568 124.302 291.007 123.823C291.457 123.363 292.061 123.087 292.703 123.048C293.344 123.009 293.977 123.21 294.479 123.612C294.483 123.585 294.491 123.558 294.504 123.534L293.949 122.833C293.587 122.353 293.389 121.77 293.384 121.168C293.38 120.567 293.568 119.98 293.923 119.495C294.356 118.972 294.976 118.64 295.651 118.57C296.326 118.499 297.002 118.696 297.534 119.118L297.569 119.083L293.383 114.137C293.169 113.883 293.008 113.588 292.911 113.27C292.814 112.953 292.783 112.618 292.819 112.288C292.855 111.958 292.958 111.638 293.122 111.349C293.286 111.06 293.507 110.807 293.772 110.606C294.298 110.235 294.945 110.078 295.582 110.166C296.22 110.255 296.8 110.582 297.205 111.082Z" fill="#50C878"/>
<path opacity="0.2" d="M297.432 119.395C297.442 119.422 297.457 119.447 297.476 119.468L301.6 124.227C301.621 124.252 301.646 124.272 301.675 124.286C301.704 124.3 301.735 124.309 301.767 124.311C301.799 124.314 301.831 124.31 301.861 124.3C301.892 124.29 301.92 124.274 301.944 124.253C301.968 124.232 301.988 124.206 302.003 124.178C302.017 124.149 302.026 124.118 302.028 124.086C302.031 124.054 302.027 124.022 302.017 123.991C302.007 123.961 301.991 123.933 301.97 123.908L297.849 119.151C297.81 119.111 297.759 119.086 297.704 119.078C297.649 119.071 297.593 119.083 297.546 119.111C297.498 119.14 297.461 119.184 297.442 119.236C297.422 119.288 297.421 119.345 297.437 119.398L297.432 119.395Z" fill="#0C0C0C"/>
<path opacity="0.2" d="M294.485 123.726C294.495 123.752 294.51 123.776 294.527 123.797L297.738 127.559C297.781 127.604 297.839 127.631 297.901 127.634C297.963 127.637 298.024 127.617 298.072 127.576C298.119 127.536 298.149 127.479 298.156 127.417C298.162 127.355 298.145 127.293 298.107 127.243L294.897 123.481C294.86 123.437 294.808 123.408 294.751 123.398C294.694 123.389 294.636 123.4 294.586 123.429C294.537 123.459 294.5 123.505 294.481 123.56C294.462 123.615 294.464 123.674 294.485 123.728L294.485 123.726Z" fill="#0C0C0C"/>
<path opacity="0.2" d="M291.98 129.387C291.99 129.415 292.006 129.44 292.026 129.463L293.587 131.204C293.608 131.228 293.634 131.248 293.663 131.261C293.691 131.275 293.723 131.283 293.754 131.285C293.786 131.287 293.818 131.282 293.848 131.272C293.878 131.261 293.906 131.245 293.93 131.223C293.954 131.202 293.973 131.176 293.987 131.148C294.001 131.119 294.009 131.088 294.011 131.056C294.012 131.024 294.008 130.992 293.997 130.962C293.987 130.932 293.97 130.904 293.949 130.88L292.391 129.138C292.354 129.096 292.302 129.069 292.247 129.061C292.191 129.053 292.134 129.065 292.086 129.094C292.038 129.123 292.002 129.167 291.983 129.22C291.964 129.273 291.964 129.331 291.983 129.384L291.98 129.387Z" fill="#0C0C0C"/>
<path d="M417.861 229.154L330.896 223.064C327.758 222.844 324.747 221.739 322.212 219.877C319.676 218.016 317.719 215.473 316.568 212.544L289.072 142.553L320.049 130.367L343.7 190.573L420.182 195.929L417.861 229.154Z" fill="#50C878"/>
<path d="M468.356 567.455C468.356 567.455 465.573 581.887 452.066 582.695C438.559 583.502 441.488 594.266 441.488 594.266H493.104V568.461L468.356 567.455Z" fill="#50C878"/>
<path d="M484.277 304.13C484.277 304.13 484.114 299.79 484.149 309.634C484.277 346.351 484.913 388.29 486.469 412.831C488.97 452.283 495.382 576.668 495.382 576.668L461.464 576.383L428.59 302.638L484.277 304.13Z" fill="#262626"/>
<path d="M407.973 567.455C407.973 567.455 405.19 581.887 391.683 582.695C378.176 583.502 381.105 594.266 381.105 594.266H432.721V568.461L407.973 567.455Z" fill="#50C878"/>
<path d="M391.55 306.981C391.55 306.981 388.546 432.47 388.986 438.604L401.6 575.715L434.957 576.332L431.707 433.642C431.707 433.642 434 394.281 443.503 357.732C448.366 338.974 451.293 319.766 452.237 300.409L391.55 306.981Z" fill="#262626"/>
<path d="M484.645 304.126L484.756 304.132C484.756 304.132 484.676 301.992 484.645 304.126Z" fill="#333333"/>
<path d="M386.776 237.326C387.475 245.549 390.878 296.852 391.55 306.981H484.238C484.762 297.845 487.113 257.9 489.098 240.036C490.993 222.989 494.712 214.454 491.986 209.415C487.532 201.178 475.361 196.419 467.062 195.294C461.994 194.608 454.372 194.115 454.372 194.115C454.372 194.115 453.727 207.18 438.338 207.907C417.39 208.894 418.788 194.115 418.685 194.115C415.291 194.115 395.529 195.712 391.161 199.078C383.519 204.965 385.291 219.9 386.776 237.326Z" fill="#50C878"/>
<path d="M385.496 227.022C385.417 227.023 385.342 226.992 385.284 226.938C385.227 226.884 385.193 226.811 385.188 226.732L384.443 213.674C384.439 213.592 384.467 213.512 384.521 213.451C384.575 213.39 384.652 213.353 384.733 213.348C384.815 213.344 384.894 213.373 384.955 213.427C385.016 213.481 385.053 213.557 385.059 213.639L385.806 226.696C385.811 226.778 385.783 226.858 385.729 226.919C385.674 226.98 385.598 227.017 385.517 227.022L385.496 227.022Z" fill="#0C0C0C"/>
<path d="M504.278 306.443C507.004 306.443 509.69 305.784 512.107 304.521C514.523 303.259 516.6 301.431 518.158 299.193C519.717 296.955 520.713 294.373 521.06 291.667C521.407 288.962 521.096 286.212 520.153 283.653C519.196 281.054 496.747 221.569 492.473 210.548L460.828 223.377C463.232 229.574 471.937 253.064 478.932 271.987L467.312 270.723L463.654 304.391L502.447 306.343C503.055 306.41 503.666 306.443 504.278 306.443Z" fill="#50C878"/>
<path d="M407.643 192.989C407.747 192.976 410.59 203.682 432.779 202.016C448.139 200.864 451.887 190.402 452.237 190.402C450.581 190.05 447.891 189.684 447.155 189.292C444.737 187.991 442.975 186.408 442.088 183.011C441.395 180.354 441.04 170.126 441.04 164.994L417.403 170.309C417.732 176.098 420.038 189.517 411.956 191.893C410.612 192.285 409.164 192.646 407.643 192.989Z" fill="#50C878"/>
<path d="M418.222 181.689C427.54 182.425 439.51 178.488 441.784 166.048L443.836 154.822C446.109 142.382 441.423 131.103 429.72 128.96C418.015 126.818 407.422 135.302 405.149 147.742L404.24 152.711C403.367 157.485 401.596 180.376 418.222 181.689Z" fill="#50C878"/>
<path d="M409.582 170.267C411.255 161.858 412.022 156.247 411.932 150.328C409.576 146.195 410.196 141.446 410.731 139.396C409.109 140.427 407.202 140.917 405.284 140.794C405.284 140.794 409.179 125.148 422.42 120.937C424.854 119.989 431.072 118.791 439.327 119.924C446.349 120.887 463.657 126.141 466.13 145.64V145.651C466.212 146.297 467.874 164.262 471.184 172.882C475.638 184.469 481.891 188.07 481.733 201.439C481.529 218.636 449.934 220.925 430.88 219.639C411.826 218.353 401.186 212.082 401.047 199.689C400.901 185.803 406.235 187.093 409.582 170.267Z" fill="#0A0A0A"/>
<path d="M486.219 240.382L483.942 306.973L484.558 306.994L486.835 240.403L486.219 240.382Z" fill="#0C0C0C"/>
<path d="M38.0821 595.5H583.662C583.723 595.502 583.784 595.492 583.841 595.47C583.898 595.449 583.95 595.416 583.994 595.373C584.038 595.331 584.073 595.28 584.097 595.224C584.121 595.167 584.133 595.107 584.133 595.046C584.133 594.985 584.121 594.924 584.097 594.868C584.073 594.812 584.038 594.761 583.994 594.719C583.95 594.676 583.898 594.643 583.841 594.621C583.784 594.599 583.723 594.589 583.662 594.592H38.0821C38.0211 594.589 37.9602 594.599 37.9032 594.621C37.8461 594.643 37.7941 594.676 37.7501 594.719C37.7061 594.761 37.6712 594.812 37.6473 594.868C37.6234 594.924 37.6111 594.985 37.6111 595.046C37.6111 595.107 37.6234 595.167 37.6473 595.224C37.6712 595.28 37.7061 595.331 37.7501 595.373C37.7941 595.416 37.8461 595.449 37.9032 595.47C37.9602 595.492 38.0211 595.502 38.0821 595.5Z" fill="#262626"/>
<path d="M445.974 347.427C445.974 347.427 444.568 374.072 444.31 380.328C443.707 394.794 443.498 409.772 443.498 426.755L438.152 382.235C438.152 382.235 442.061 368.283 445.974 347.427Z" fill="#0A0A0A"/>
</g>
<defs>
<clipPath id="clip0_32_3513">
<rect width="617" height="595" fill="white" transform="translate(0.798828 0.5)"/>
</clipPath>
</defs>
</svg>
