<svg width="29" height="29" viewBox="0 0 29 29" fill="none" xmlns="http://www.w3.org/2000/svg">
<path d="M18.0726 5.57666C18.0175 5.85998 17.99 6.14797 17.9906 6.43658C17.9906 9.02603 20.0928 11.1252 22.6861 11.1252C22.9716 11.1238 23.2565 11.0964 23.537 11.0433V20.3386C23.537 24.2492 21.2303 26.5628 17.314 26.5628H8.78416C4.85758 26.5628 2.55084 24.2492 2.55084 20.3386V11.8213C2.55084 7.91073 4.85758 5.57666 8.78416 5.57666H18.0726ZM18.0767 12.5739C17.8487 12.6067 17.6438 12.7304 17.5087 12.9167L14.6997 16.5304L11.501 14.0121C11.3184 13.8698 11.086 13.807 10.8565 13.8378C10.6269 13.8686 10.4195 13.9905 10.281 14.1759L6.83625 18.6188C6.71516 18.7697 6.64998 18.9578 6.65171 19.1511L6.65473 19.2798C6.68813 19.6179 6.92003 19.9101 7.25219 20.0149C7.62586 20.1329 8.03217 19.984 8.24079 19.6528L11.1216 15.9264L14.3203 18.4345C14.5023 18.5812 14.7361 18.6477 14.9681 18.6187C15.2001 18.5898 15.4104 18.4679 15.5506 18.281L18.8825 13.9814V13.9609C19.1678 13.5776 19.095 13.0371 18.7185 12.7427C18.5363 12.602 18.3047 12.5411 18.0767 12.5739Z" fill="#333333"/>
<path opacity="0.4" d="M22.9541 9.07437C24.5638 9.07437 25.8688 7.76939 25.8688 6.15962C25.8688 4.54985 24.5638 3.24487 22.9541 3.24487C21.3443 3.24487 20.0393 4.54985 20.0393 6.15962C20.0393 7.76939 21.3443 9.07437 22.9541 9.07437Z" fill="#333333"/>
</svg>
