<svg width="28" height="29" viewBox="0 0 28 29" fill="none" xmlns="http://www.w3.org/2000/svg">
<path d="M17.8536 5.03076C17.7984 5.31408 17.771 5.60207 17.7715 5.89068C17.7715 8.48014 19.8738 10.5793 22.467 10.5793C22.7526 10.5779 23.0374 10.5505 23.318 10.4974V19.7927C23.318 23.7033 21.0112 26.0169 17.0949 26.0169H8.5651C4.63852 26.0169 2.33179 23.7033 2.33179 19.7927V11.2754C2.33179 7.36483 4.63852 5.03076 8.5651 5.03076H17.8536ZM17.8577 12.028C17.6297 12.0608 17.4247 12.1845 17.2897 12.3708L14.4806 15.9845L11.2819 13.4662C11.0993 13.3239 10.867 13.2611 10.6374 13.2919C10.4079 13.3227 10.2004 13.4446 10.0619 13.63L6.61719 18.0729C6.49611 18.2238 6.43092 18.4119 6.43265 18.6052L6.43568 18.7339C6.46907 19.072 6.70097 19.3642 7.03313 19.469C7.40681 19.587 7.81312 19.4381 8.02174 19.1069L10.9026 15.3805L14.1013 17.8886C14.2832 18.0353 14.517 18.1018 14.7491 18.0728C14.9811 18.0439 15.1914 17.922 15.3315 17.7351L18.6635 13.4355V13.415C18.9487 13.0317 18.8759 12.4912 18.4994 12.1968C18.3172 12.0561 18.0857 11.9952 17.8577 12.028Z" fill="#FFFFF0"/>
<path opacity="0.4" d="M22.735 8.52847C24.3448 8.52847 25.6497 7.22349 25.6497 5.61372C25.6497 4.00395 24.3448 2.69897 22.735 2.69897C21.1252 2.69897 19.8203 4.00395 19.8203 5.61372C19.8203 7.22349 21.1252 8.52847 22.735 8.52847Z" fill="#FFFFF0"/>
</svg>
