<svg width="44" height="44" viewBox="0 0 44 44" fill="none" xmlns="http://www.w3.org/2000/svg">
<rect x="1.015" y="1.18981" width="41.9252" height="41.9252" rx="20.9626" stroke="#BDBDBD" stroke-width="1.47971"/>
<path d="M30.6093 20.9195H23.2108V13.5209C23.2108 13.1939 23.0809 12.8803 22.8496 12.649C22.6184 12.4178 22.3047 12.2878 21.9777 12.2878C21.6506 12.2878 21.337 12.4178 21.1057 12.649C20.8745 12.8803 20.7446 13.1939 20.7446 13.5209V20.9195H13.346C13.019 20.9195 12.7053 21.0494 12.4741 21.2807C12.2428 21.5119 12.1129 21.8256 12.1129 22.1526C12.1129 22.4796 12.2428 22.7933 12.4741 23.0245C12.7053 23.2558 13.019 23.3857 13.346 23.3857H20.7446V30.7843C20.7446 31.1113 20.8745 31.4249 21.1057 31.6562C21.337 31.8874 21.6506 32.0174 21.9777 32.0174C22.3047 32.0174 22.6184 31.8874 22.8496 31.6562C23.0809 31.4249 23.2108 31.1113 23.2108 30.7843V23.3857H30.6093C30.9364 23.3857 31.25 23.2558 31.4813 23.0245C31.7125 22.7933 31.8424 22.4796 31.8424 22.1526C31.8424 21.8256 31.7125 21.5119 31.4813 21.2807C31.25 21.0494 30.9364 20.9195 30.6093 20.9195Z" fill="#BDBDBD"/>
</svg>
