<svg width="29" height="29" viewBox="0 0 29 29" fill="none" xmlns="http://www.w3.org/2000/svg">
<path d="M18.9323 21.7784C18.4025 21.7667 17.9763 21.3237 17.9763 20.7873C17.9648 20.251 18.3909 19.8092 18.9208 19.7975H18.9323C19.4736 19.7975 19.9113 20.2405 19.9113 20.7873C19.9113 21.3353 19.4736 21.7784 18.9323 21.7784ZM14.2329 17.4879C13.703 17.5123 13.2653 17.0915 13.2423 16.5563C13.2423 16.02 13.6569 15.5769 14.1868 15.5525C14.7051 15.5525 15.1313 15.9617 15.1428 16.4852C15.1658 17.0227 14.7512 17.4657 14.2329 17.4879ZM14.2329 21.7201C13.703 21.7446 13.2653 21.3237 13.2423 20.7873C13.2423 20.251 13.6569 19.8092 14.1868 19.7847C14.7051 19.7847 15.1313 20.1939 15.1428 20.7186C15.1658 21.2549 14.7512 21.6979 14.2329 21.7201ZM9.49888 17.4879C8.96904 17.5123 8.53135 17.0915 8.50831 16.5563C8.50831 16.02 8.92297 15.5769 9.4528 15.5525C9.97112 15.5525 10.3973 15.9617 10.4088 16.4852C10.4319 17.0227 10.0172 17.4657 9.49888 17.4879ZM9.48736 21.7201C8.95752 21.7446 8.51983 21.3237 8.49679 20.7873C8.49679 20.251 8.91145 19.8092 9.44129 19.7847C9.9596 19.7847 10.3858 20.1939 10.3973 20.7186C10.4203 21.2549 10.0057 21.6979 9.48736 21.7201ZM17.9878 16.5446C17.9878 16.0083 18.4025 15.5769 18.9323 15.5653C19.4506 15.5653 19.8653 15.9838 19.8883 16.498C19.8998 17.0343 19.4852 17.4774 18.9668 17.4879C18.437 17.4995 17.9993 17.0915 17.9878 16.5563V16.5446ZM3.71674 11.48V20.356C3.71674 24.0402 6.04341 26.337 9.69469 26.337H18.7134C22.3993 26.337 24.7029 24.0868 24.7029 20.4271V11.48H3.71674Z" fill="#333333"/>
<path opacity="0.4" d="M3.72064 11.4798C3.73562 10.7955 3.79321 9.43719 3.90148 8.99997C4.45435 6.54109 6.33182 4.97879 9.01556 4.7561H19.405C22.0657 4.99045 23.9662 6.56325 24.5191 8.99997C24.6262 9.42553 24.6838 10.7943 24.6988 11.4798H3.72064Z" fill="#333333"/>
<path d="M9.90167 8.37027C10.4085 8.37027 10.7886 7.98669 10.7886 7.47253V3.91771C10.7886 3.40355 10.4085 3.0188 9.90167 3.0188C9.39487 3.0188 9.01477 3.40355 9.01477 3.91771V7.47253C9.01477 7.98669 9.39487 8.37027 9.90167 8.37027Z" fill="#333333"/>
<path d="M18.5178 8.37027C19.013 8.37027 19.4047 7.98669 19.4047 7.47253V3.91771C19.4047 3.40355 19.013 3.0188 18.5178 3.0188C18.011 3.0188 17.6309 3.40355 17.6309 3.91771V7.47253C17.6309 7.98669 18.011 8.37027 18.5178 8.37027Z" fill="#333333"/>
</svg>
