<svg width="28" height="29" viewBox="0 0 28 29" fill="none" xmlns="http://www.w3.org/2000/svg">
<path d="M18.7132 21.2327C18.1834 21.2211 17.7572 20.778 17.7572 20.2417C17.7457 19.7054 18.1719 19.2635 18.7017 19.2518H18.7132C19.2546 19.2518 19.6923 19.6949 19.6923 20.2417C19.6923 20.7897 19.2546 21.2327 18.7132 21.2327ZM14.0138 16.9422C13.484 16.9667 13.0463 16.5458 13.0232 16.0106C13.0232 15.4743 13.4379 15.0313 13.9677 15.0068C14.4861 15.0068 14.9122 15.416 14.9237 15.9395C14.9468 16.477 14.5321 16.92 14.0138 16.9422ZM14.0138 21.1744C13.484 21.1989 13.0463 20.778 13.0232 20.2417C13.0232 19.7054 13.4379 19.2635 13.9677 19.239C14.4861 19.239 14.9122 19.6483 14.9237 20.1729C14.9468 20.7092 14.5321 21.1523 14.0138 21.1744ZM9.27982 16.9422C8.74998 16.9667 8.31229 16.5458 8.28926 16.0106C8.28926 15.4743 8.70391 15.0313 9.23375 15.0068C9.75207 15.0068 10.1782 15.416 10.1898 15.9395C10.2128 16.477 9.79814 16.92 9.27982 16.9422ZM9.2683 21.1744C8.73847 21.1989 8.30077 20.778 8.27774 20.2417C8.27774 19.7054 8.69239 19.2635 9.22223 19.239C9.74055 19.239 10.1667 19.6483 10.1782 20.1729C10.2013 20.7092 9.78662 21.1523 9.2683 21.1744ZM17.7687 15.999C17.7687 15.4627 18.1834 15.0313 18.7132 15.0196C19.2316 15.0196 19.6462 15.4382 19.6692 15.9524C19.6808 16.4887 19.2661 16.9317 18.7478 16.9422C18.218 16.9539 17.7803 16.5458 17.7687 16.0106V15.999ZM3.49768 10.9343V19.8103C3.49768 23.4946 5.82436 25.7914 9.47563 25.7914H18.4944C22.1802 25.7914 24.4839 23.5412 24.4839 19.8814V10.9343H3.49768Z" fill="#FFFFF0"/>
<path opacity="0.4" d="M3.50159 10.9342C3.51656 10.2498 3.57415 8.89153 3.68242 8.45432C4.2353 5.99544 6.11276 4.43314 8.79651 4.21045H19.1859C21.8466 4.44479 23.7471 6.01759 24.3 8.45432C24.4071 8.87987 24.4647 10.2486 24.4797 10.9342H3.50159Z" fill="#FFFFF0"/>
<path d="M9.68262 7.82462C10.1894 7.82462 10.5695 7.44104 10.5695 6.92688V3.37205C10.5695 2.85789 10.1894 2.47314 9.68262 2.47314C9.17582 2.47314 8.79572 2.85789 8.79572 3.37205V6.92688C8.79572 7.44104 9.17582 7.82462 9.68262 7.82462Z" fill="#FFFFF0"/>
<path d="M18.2987 7.82462C18.794 7.82462 19.1856 7.44104 19.1856 6.92688V3.37205C19.1856 2.85789 18.794 2.47314 18.2987 2.47314C17.7919 2.47314 17.4118 2.85789 17.4118 3.37205V6.92688C17.4118 7.44104 17.7919 7.82462 18.2987 7.82462Z" fill="#FFFFF0"/>
</svg>
