<svg width="25" height="25" viewBox="0 0 25 25" fill="none" xmlns="http://www.w3.org/2000/svg">
<path d="M12.2348 2.76514C17.7578 2.76514 22.2348 7.24214 22.2348 12.7651C22.2348 18.2881 17.7578 22.7651 12.2348 22.7651C10.617 22.7673 9.02303 22.3753 7.59075 21.6231L3.30075 22.7401C3.15741 22.7775 3.00679 22.7767 2.86384 22.7379C2.72089 22.6991 2.59056 22.6236 2.48577 22.5189C2.38097 22.4142 2.30536 22.284 2.26642 22.141C2.22747 21.9981 2.22656 21.8475 2.26375 21.7041L3.37975 17.4151C2.62555 15.9813 2.23252 14.3852 2.23475 12.7651C2.23475 7.24214 6.71175 2.76514 12.2348 2.76514ZM13.4868 13.7651H8.98475L8.88275 13.7721C8.70324 13.7968 8.53874 13.8857 8.41966 14.0223C8.30058 14.1589 8.23498 14.3339 8.23498 14.5151C8.23498 14.6963 8.30058 14.8714 8.41966 15.008C8.53874 15.1446 8.70324 15.2334 8.88275 15.2581L8.98475 15.2651H13.4868L13.5878 15.2581C13.7673 15.2334 13.9318 15.1446 14.0508 15.008C14.1699 14.8714 14.2355 14.6963 14.2355 14.5151C14.2355 14.3339 14.1699 14.1589 14.0508 14.0223C13.9318 13.8857 13.7673 13.7968 13.5878 13.7721L13.4868 13.7651ZM15.4848 10.2651H8.98475L8.88275 10.2721C8.70324 10.2968 8.53874 10.3857 8.41966 10.5223C8.30058 10.6589 8.23498 10.8339 8.23498 11.0151C8.23498 11.1963 8.30058 11.3714 8.41966 11.508C8.53874 11.6446 8.70324 11.7334 8.88275 11.7581L8.98475 11.7651H15.4848L15.5868 11.7581C15.7663 11.7334 15.9308 11.6446 16.0498 11.508C16.1689 11.3714 16.2345 11.1963 16.2345 11.0151C16.2345 10.8339 16.1689 10.6589 16.0498 10.5223C15.9308 10.3857 15.7663 10.2968 15.5868 10.2721L15.4848 10.2651Z" fill="#333333"/>
</svg>
