<svg width="28" height="29" viewBox="0 0 28 29" fill="none" xmlns="http://www.w3.org/2000/svg">
<path opacity="0.4" d="M19.6854 6.94776H16.2541C15.3993 6.95341 14.5877 6.57316 14.046 5.91321L12.9161 4.35104C12.3834 3.6853 11.5719 3.30327 10.7183 3.31649H8.29257C3.93862 3.31649 2.33179 5.87183 2.33179 10.2169V14.9138C2.32638 15.4303 25.6447 15.4296 25.6462 14.9138V13.5482C25.6669 9.20307 24.1016 6.94776 19.6854 6.94776Z" fill="#FFFFF0"/>
<path d="M19.675 6.94758C21.1963 6.82992 22.7062 7.28789 23.9046 8.23042C24.0426 8.34745 24.1709 8.47546 24.2881 8.6132C24.6611 9.04934 24.9494 9.55104 25.1382 10.0926C25.5096 11.2057 25.6816 12.3754 25.6462 13.548V19.6725C25.6447 20.1884 25.6066 20.7035 25.5321 21.214C25.3904 22.1149 25.0734 22.9795 24.5991 23.759C24.3811 24.1355 24.1164 24.4831 23.8113 24.7935C22.4299 26.0613 20.5955 26.7213 18.7213 26.6247H9.24628C7.36904 26.7205 5.53173 26.0609 4.14593 24.7935C3.84443 24.4825 3.58322 24.1349 3.36844 23.759C2.89696 22.98 2.58676 22.1146 2.45619 21.214C2.37316 20.7043 2.33179 20.1888 2.33179 19.6725V13.548C2.33179 13.0365 2.35927 12.5254 2.41472 12.0169C2.44582 11.7789 2.51839 11.5513 2.51839 11.3237C2.62362 10.7101 2.81559 10.1144 3.08855 9.55464C3.89714 7.82694 5.55579 6.94758 8.27182 6.94758H19.675ZM19.9549 17.1793H8.12669C7.59424 17.1793 7.1626 17.61 7.1626 18.1414C7.1626 18.6728 7.59424 19.1035 8.12669 19.1035H19.8824C20.1398 19.1147 20.3911 19.0225 20.58 18.8476C20.769 18.6727 20.8798 18.4295 20.8879 18.1724C20.9025 17.9465 20.8281 17.7237 20.6806 17.5517C20.5109 17.3205 20.2421 17.1825 19.9549 17.1793Z" fill="#FFFFF0"/>
</svg>
