<svg width="29" height="29" viewBox="0 0 29 29" fill="none" xmlns="http://www.w3.org/2000/svg">
<path opacity="0.4" d="M19.9045 6.49365H16.4731C15.6183 6.4993 14.8067 6.11906 14.2651 5.45911L13.1351 3.89694C12.6025 3.2312 11.7909 2.84917 10.9374 2.86239H8.51162C4.15767 2.86239 2.55084 5.41773 2.55084 9.76282V14.4597C2.54544 14.9762 25.8637 14.9755 25.8652 14.4597V13.0941C25.886 8.74897 24.3206 6.49365 19.9045 6.49365Z" fill="#333333"/>
<path d="M19.8941 6.49348C21.4153 6.37582 22.9253 6.83378 24.1236 7.77631C24.2617 7.89335 24.3899 8.02136 24.5072 8.1591C24.8802 8.59524 25.1685 9.09694 25.3573 9.6385C25.7287 10.7516 25.9007 11.9213 25.8652 13.0939V19.2184C25.8637 19.7343 25.8256 20.2494 25.7512 20.7599C25.6094 21.6608 25.2925 22.5254 24.8182 23.3049C24.6002 23.6814 24.3355 24.029 24.0303 24.3394C22.649 25.6072 20.8146 26.2672 18.9404 26.1706H9.46533C7.5881 26.2664 5.75078 25.6068 4.36499 24.3394C4.06348 24.0284 3.80228 23.6808 3.5875 23.3049C3.11601 22.5259 2.80581 21.6605 2.67524 20.7599C2.59222 20.2502 2.55084 19.7347 2.55084 19.2184V13.0939C2.55084 12.5824 2.57833 12.0713 2.63378 11.5628C2.66488 11.3248 2.73744 11.0972 2.73744 10.8696C2.84267 10.256 3.03464 9.66034 3.3076 9.10054C4.11619 7.37284 5.77484 6.49348 8.49088 6.49348H19.8941ZM20.174 16.7252H8.34575C7.81329 16.7252 7.38166 17.1559 7.38166 17.6873C7.38166 18.2186 7.81329 18.6494 8.34575 18.6494H20.1014C20.3589 18.6606 20.6102 18.5684 20.7991 18.3935C20.988 18.2185 21.0989 17.9754 21.107 17.7183C21.1215 17.4924 21.0471 17.2696 20.8996 17.0976C20.73 16.8664 20.4611 16.7284 20.174 16.7252Z" fill="#333333"/>
</svg>
