<svg width="20" height="20" viewBox="0 0 20 20" fill="none" xmlns="http://www.w3.org/2000/svg">
<path opacity="0.4" d="M13.4758 4.79565H11.1573C10.5797 4.79947 10.0313 4.54254 9.66526 4.09661L8.90175 3.04106C8.54186 2.59122 7.9935 2.33309 7.41677 2.34202H5.77768C2.83573 2.34202 1.75 4.06865 1.75 7.00462V10.1783C1.74635 10.5273 17.5024 10.5268 17.5035 10.1783V9.25553C17.5175 6.31956 16.4598 4.79565 13.4758 4.79565Z" fill="#56555C"/>
<path d="M13.4688 4.79546C14.4967 4.71596 15.5169 5.0254 16.3267 5.66227C16.4199 5.74134 16.5066 5.82784 16.5858 5.92091C16.8379 6.21561 17.0327 6.55461 17.1602 6.92054C17.4112 7.67263 17.5274 8.46299 17.5035 9.25533V13.3937C17.5024 13.7422 17.4767 14.0903 17.4264 14.4352C17.3306 15.044 17.1165 15.6282 16.796 16.1549C16.6487 16.4093 16.4698 16.6441 16.2636 16.8539C15.3302 17.7106 14.0908 18.1565 12.8243 18.0912H6.4221C5.15366 18.156 3.91219 17.7103 2.97581 16.8539C2.77209 16.6437 2.59559 16.4089 2.45047 16.1549C2.13188 15.6285 1.92228 15.0438 1.83406 14.4352C1.77796 14.0909 1.75 13.7425 1.75 13.3937V9.25533C1.75 8.90972 1.76857 8.56434 1.80604 8.22075C1.82705 8.05998 1.87608 7.90619 1.87608 7.7524C1.94719 7.33776 2.0769 6.9353 2.26134 6.55704C2.8077 5.38964 3.92845 4.79546 5.76366 4.79546H13.4688ZM13.6579 11.709H5.6656C5.30582 11.709 5.01417 12 5.01417 12.3591C5.01417 12.7181 5.30582 13.0092 5.6656 13.0092H13.6089C13.7829 13.0167 13.9526 12.9545 14.0803 12.8363C14.2079 12.7181 14.2829 12.5538 14.2883 12.38C14.2982 12.2274 14.2479 12.0769 14.1482 11.9606C14.0336 11.8044 13.8519 11.7112 13.6579 11.709Z" fill="#56555C"/>
</svg>
