<svg width="29" height="29" viewBox="0 0 29 29" fill="none" xmlns="http://www.w3.org/2000/svg">
<path d="M12.0561 6.77721C12.1155 6.89807 12.1547 7.02751 12.1723 7.16057L12.4969 11.9873L12.6581 14.4133C12.6597 14.6628 12.6989 14.9107 12.7742 15.149C12.9688 15.6113 13.437 15.9051 13.9464 15.8846L21.7081 15.3769C22.0442 15.3714 22.3688 15.4971 22.6104 15.7264C22.8118 15.9174 22.9418 16.1674 22.9827 16.4362L22.9965 16.5995C22.6753 21.0471 19.4088 24.7567 14.9704 25.7143C10.5321 26.6719 5.98076 24.649 3.78752 20.7439C3.15523 19.6094 2.7603 18.3624 2.62591 17.0761C2.56976 16.6953 2.54504 16.3107 2.55198 15.926C2.54505 11.1577 5.94066 7.03537 10.6939 6.04157C11.2659 5.95249 11.8268 6.25534 12.0561 6.77721Z" fill="#333333"/>
<path opacity="0.4" d="M15.2242 2.63279C20.5405 2.76804 25.0088 6.59098 25.8688 11.7402L25.8606 11.7782L25.8372 11.8334L25.8404 11.9851C25.8282 12.186 25.7507 12.3794 25.617 12.5355C25.4777 12.6982 25.2874 12.809 25.0779 12.852L24.9501 12.8695L15.9951 13.4498C15.6972 13.4791 15.4006 13.3831 15.1791 13.1855C14.9945 13.0208 14.8765 12.7986 14.8432 12.5591L14.2421 3.61709C14.2316 3.58686 14.2316 3.55408 14.2421 3.52384C14.2503 3.27736 14.3588 3.04438 14.5433 2.87694C14.7279 2.70951 14.9731 2.62158 15.2242 2.63279Z" fill="#333333"/>
</svg>
