<svg width="28" height="29" viewBox="0 0 28 29" fill="none" xmlns="http://www.w3.org/2000/svg">
<path d="M11.8371 7.23131C11.8965 7.35217 11.9357 7.48161 11.9532 7.61467L12.2779 12.4414L12.439 14.8674C12.4407 15.1169 12.4798 15.3648 12.5552 15.6031C12.7498 16.0654 13.218 16.3592 13.7273 16.3387L21.4891 15.831C21.8252 15.8255 22.1497 15.9512 22.3914 16.1805C22.5927 16.3715 22.7227 16.6215 22.7636 16.8904L22.7774 17.0536C22.4562 21.5012 19.1897 25.2108 14.7514 26.1684C10.313 27.126 5.7617 25.1031 3.56847 21.198C2.93617 20.0635 2.54124 18.8165 2.40685 17.5302C2.35071 17.1494 2.32599 16.7648 2.33293 16.3801C2.326 11.6118 5.7216 7.48947 10.4748 6.49567C11.0469 6.4066 11.6077 6.70945 11.8371 7.23131Z" fill="#FFFFF0"/>
<path opacity="0.4" d="M15.0051 3.08689C20.3215 3.22215 24.7897 7.04508 25.6498 12.1943L25.6416 12.2323L25.6181 12.2875L25.6214 12.4392C25.6092 12.6401 25.5316 12.8335 25.3979 12.9896C25.2586 13.1523 25.0684 13.2631 24.8588 13.3061L24.731 13.3236L15.776 13.9039C15.4782 13.9332 15.1816 13.8372 14.9601 13.6396C14.7755 13.4749 14.6575 13.2527 14.6241 13.0132L14.023 4.07119C14.0126 4.04096 14.0126 4.00818 14.023 3.97795C14.0313 3.73146 14.1398 3.49848 14.3243 3.33104C14.5088 3.16361 14.754 3.07568 15.0051 3.08689Z" fill="#FFFFF0"/>
</svg>
