<svg width="633" height="741" viewBox="0 0 633 741" fill="none" xmlns="http://www.w3.org/2000/svg">
<path d="M393.585 118.116L352.875 141.62L352.875 94.6118L393.585 118.116Z" fill="#50C878"/>
<path d="M448.016 537.586L402.61 525.42L435.85 492.18L448.016 537.586Z" fill="#50C878"/>
<path d="M131.957 539.813L144.124 494.407L177.363 527.646L131.957 539.813Z" fill="#50C878"/>
<path d="M214.154 228.559L254.864 252.063L214.154 275.567L214.154 228.559Z" fill="#50C878"/>
<path d="M445.789 258.947L433.623 304.353L400.383 271.114L445.789 258.947Z" fill="#50C878"/>
<path d="M632.458 118.213C631.937 131.39 628.234 144.244 621.664 155.678C615.095 167.112 605.855 176.785 594.734 183.872C583.614 190.958 570.942 195.246 557.804 196.37C544.665 197.495 531.45 195.421 519.287 190.327C513.582 187.936 508.172 184.897 503.162 181.268C493.588 174.356 485.619 165.457 479.8 155.181V155.172C473.597 144.181 470.026 131.901 469.369 119.297C468.712 106.693 470.987 94.1083 476.014 82.5317C481.042 70.9551 488.685 60.702 498.344 52.5779C508.003 44.4538 519.414 38.68 531.68 35.7101C543.947 32.7402 556.735 32.6552 569.041 35.4617C581.346 38.2683 592.832 43.8898 602.598 51.8848C612.364 59.8798 620.143 70.0304 625.324 81.5391C630.505 93.0479 632.947 105.601 632.457 118.213L632.458 118.213Z" fill="white"/>
<path opacity="0.09" d="M632.458 118.213C631.937 131.39 628.234 144.244 621.664 155.678C615.095 167.112 605.855 176.785 594.734 183.872C583.614 190.958 570.942 195.246 557.804 196.37C544.665 197.495 531.45 195.421 519.287 190.327C513.582 187.936 508.172 184.897 503.162 181.268C493.588 174.356 485.619 165.457 479.8 155.181V155.172C473.597 144.181 470.026 131.901 469.369 119.297C468.712 106.693 470.987 94.1083 476.014 82.5317C481.042 70.9551 488.685 60.702 498.344 52.5779C508.003 44.4538 519.414 38.68 531.68 35.7101C543.947 32.7402 556.735 32.6552 569.041 35.4617C581.346 38.2683 592.832 43.8898 602.598 51.8848C612.364 59.8798 620.143 70.0304 625.324 81.5391C630.505 93.0479 632.947 105.601 632.457 118.213L632.458 118.213Z" fill="#367CFF"/>
<path d="M570.19 52.8823C570.19 52.8823 589.705 53.1214 582.977 80.0159L581.144 80.1056L577.424 80.2868" fill="#0C0C0C"/>
<path d="M548.399 108.233C548.49 108.224 548.85 124.999 568.349 124.295C581.847 123.809 587.201 109.714 587.51 109.726C586.071 109.362 583.644 108.817 583.013 108.449C580.938 107.228 578.361 105.942 577.838 101.799C577.536 99.4111 578.675 87.3009 578.563 84.8931L557.723 88.7027C557.815 93.7834 559.38 105.613 552.217 107.418C551.024 107.717 549.743 107.984 548.399 108.233Z" fill="#E98862"/>
<path opacity="0.52" d="M556.885 102.79C557.249 101.759 557.499 100.692 557.631 99.6071C557.955 97.1321 558.006 94.6292 557.785 92.1431C562.006 91.7393 566.03 90.1595 569.398 87.5833C569.727 89.0123 571.597 95.2882 570.957 96.612C569.756 99.1153 564.407 103.082 556.885 102.79Z" fill="#0C0C0C"/>
<path d="M561.616 99.8255C569.785 99.2409 579.64 94.2673 579.982 83.1971L580.291 73.2103C580.634 62.1419 575.095 52.9892 564.677 52.667C554.256 52.3422 546.188 61.076 545.846 72.1443L545.709 76.5658C545.689 78.0853 545.772 79.6045 545.958 81.1127C546.42 85.1009 547.138 91.1651 549.765 95.306C552.243 99.215 556.396 100.198 561.616 99.8255Z" fill="#E98862"/>
<path d="M579.231 86.5514C582.398 86.6488 585.07 83.34 585.168 80.1734C585.266 77.0069 582.753 75.1804 579.586 75.0823L577.888 77.1537L576.508 86.4669L579.231 86.5514Z" fill="#E98862"/>
<path d="M546.382 84.4561C546.954 85.1344 547.687 85.6589 548.513 85.9818C549.34 86.3047 550.234 86.4157 551.115 86.3047C552.998 86.0676 554.247 86.8406 555.82 86.6853C557.14 86.5554 557.369 85.9455 559.621 85.8123C568.317 85.2972 574.842 84.749 575.266 73.8373L580.799 68.9221C580.799 68.9221 583.272 99.1599 566.917 103.179C556.867 105.648 547.441 104.745 546.229 95.3068C545.245 87.6376 546.382 84.4561 546.382 84.4561Z" fill="#0C0C0C"/>
<path d="M550.502 78.1403C551.211 78.1403 551.786 77.5654 551.786 76.8562C551.786 76.147 551.211 75.572 550.502 75.572C549.793 75.572 549.218 76.147 549.218 76.8562C549.218 77.5654 549.793 78.1403 550.502 78.1403Z" fill="#0C0C0C"/>
<path d="M561.975 77.9013C562.684 77.9013 563.259 77.3264 563.259 76.6172C563.259 75.9079 562.684 75.333 561.975 75.333C561.265 75.333 560.69 75.9079 560.69 76.6172C560.69 77.3264 561.265 77.9013 561.975 77.9013Z" fill="#0C0C0C"/>
<path d="M576.172 81.4031C576.172 81.4031 575.388 65.7191 570.656 64.6649C567.503 63.9628 559.75 68.3108 552.668 66.826C549.571 66.1764 546.605 66.8909 546.278 68.355C546.148 68.9344 543.697 63.7958 548.681 57.5433C552.65 52.5651 565.553 51.1647 571.294 52.925C587.189 57.8005 580.227 75.7846 580.227 75.7846L579.416 81.1719L576.172 81.4031Z" fill="#0C0C0C"/>
<path d="M583.396 68.7568C588.075 68.7568 591.868 64.964 591.868 60.2854C591.868 55.6068 588.075 51.814 583.396 51.814C578.718 51.814 574.925 55.6068 574.925 60.2854C574.925 64.964 578.718 68.7568 583.396 68.7568Z" fill="#0C0C0C"/>
<g opacity="0.52">
<path d="M555.975 86.1808H555.955C554.935 86.1516 553.227 85.9892 553.247 85.226C553.265 84.5933 555.19 77.8133 555.41 77.0417C555.429 76.9753 555.473 76.9192 555.533 76.8857C555.594 76.8521 555.665 76.8438 555.731 76.8627C555.797 76.8816 555.853 76.926 555.887 76.9862C555.921 77.0465 555.929 77.1176 555.91 77.1839C555.055 80.1868 553.779 84.8103 553.766 85.2383C553.862 85.4215 554.913 85.628 555.97 85.6586C556.039 85.6578 556.105 85.6844 556.154 85.7326C556.204 85.7808 556.232 85.8466 556.232 85.9155C556.233 85.9844 556.207 86.0508 556.158 86.1C556.11 86.1493 556.044 86.1774 555.975 86.1782V86.1808Z" fill="#0C0C0C"/>
</g>
<path d="M552.868 72.4936C551.814 72.1814 550.695 72.159 549.629 72.4287C549.104 72.5576 548.602 72.7648 548.139 73.0432C547.68 73.3161 547.258 73.6458 546.882 74.0246C546.817 74.083 546.778 74.1649 546.773 74.2523C546.768 74.3397 546.798 74.4255 546.856 74.4907C546.915 74.5559 546.997 74.5952 547.084 74.6C547.171 74.6048 547.257 74.5747 547.322 74.5163L547.343 74.4994C547.693 74.1832 548.082 73.9124 548.5 73.6933C548.912 73.4753 549.354 73.3207 549.812 73.2348C550.715 73.0581 551.649 73.1233 552.52 73.4238L552.553 73.4361C552.614 73.4599 552.68 73.4712 552.745 73.4694C552.811 73.4676 552.876 73.4527 552.936 73.4256C552.996 73.3984 553.05 73.3596 553.095 73.3113C553.14 73.2631 553.175 73.2064 553.198 73.1445C553.22 73.0827 553.231 73.0169 553.228 72.9511C553.225 72.8853 553.209 72.8207 553.18 72.7611C553.152 72.7016 553.112 72.6482 553.063 72.6042C553.014 72.5602 552.957 72.5263 552.895 72.5047L552.868 72.4936Z" fill="#0C0C0C"/>
<path d="M560.434 73.4247C561.271 73.0404 562.194 72.8847 563.111 72.9733C563.575 73.0139 564.03 73.125 564.461 73.3026C564.898 73.4799 565.311 73.7114 565.691 73.9918L565.712 74.0061C565.782 74.0521 565.868 74.0694 565.951 74.0543C566.034 74.0392 566.108 73.9928 566.158 73.9248C566.208 73.8568 566.23 73.7722 566.219 73.6885C566.209 73.6048 566.167 73.5283 566.101 73.4747C565.69 73.1343 565.238 72.8471 564.755 72.6199C564.267 72.388 563.747 72.2306 563.212 72.1529C562.125 71.989 561.013 72.1207 559.994 72.5342C559.875 72.5859 559.78 72.6826 559.731 72.8035C559.682 72.9244 559.683 73.0597 559.733 73.1801C559.783 73.3005 559.878 73.3964 559.998 73.4471C560.119 73.4977 560.254 73.499 560.375 73.4507L560.399 73.4403L560.434 73.4247Z" fill="#0C0C0C"/>
<path d="M612.459 150.12C611.733 155.604 611.024 163.137 610.391 170.926C607.917 173.558 605.272 176.025 602.473 178.308C600.693 179.754 598.857 181.128 596.963 182.43C586.724 189.42 575.03 193.99 562.765 195.796C550.5 197.602 537.985 196.595 526.166 192.853C526.004 185.618 525.785 175.86 525.567 166.919C525.317 156.606 525.064 147.372 524.928 144.338C524.368 132.297 521.176 124.263 523.589 117.693C524.311 115.749 525.471 113.996 526.979 112.573C532.601 107.07 546.566 107.196 552.167 107.413C552.264 107.417 550.534 120.344 568.962 120.188C582.507 120.077 583.523 108.63 583.523 108.63C583.523 108.63 590.198 109.324 594.631 110.094C601.881 111.364 606.595 114.023 610.263 117.995C613.685 121.698 615.704 125.629 612.459 150.12Z" fill="#367CFF"/>
<path d="M504.119 108.688L504.676 94.8951C504.689 94.5918 504.638 94.2891 504.527 94.0064C504.417 93.7238 504.248 93.4673 504.033 93.2534C503.817 93.0394 503.56 92.8728 503.276 92.764C502.993 92.6553 502.69 92.6068 502.386 92.6217C501.828 92.6668 501.306 92.9177 500.922 93.3257C500.538 93.7338 500.319 94.2699 500.308 94.8301L500.188 97.7882L496.293 88.3158C495.879 87.2551 494.691 86.2184 493.532 86.7621C493.072 86.942 492.687 87.2725 492.439 87.6996C492.191 88.1266 492.096 88.625 492.168 89.1135C492.157 89.1148 492.146 89.1172 492.135 89.1206C492.128 89.1248 492.121 89.1295 492.114 89.1349L491.475 87.4993C491.357 87.1964 491.172 86.9237 490.935 86.7011C490.698 86.4785 490.414 86.3117 490.104 86.2128C489.794 86.114 489.466 86.0855 489.143 86.1295C488.821 86.1735 488.513 86.2889 488.241 86.4672C487.818 86.7566 487.507 87.1824 487.36 87.6735C487.214 88.1645 487.241 88.691 487.436 89.1648L487.708 89.8604C487.691 89.8777 487.678 89.8977 487.668 89.9195C487.375 89.4924 486.94 89.1832 486.441 89.0472C485.941 88.9112 485.409 88.9573 484.94 89.1771C484.434 89.4334 484.043 89.8711 483.845 90.4029C483.648 90.9347 483.658 91.5215 483.874 92.0462L484.549 93.7753C484.522 93.7575 484.492 93.7464 484.46 93.7428C484.428 93.7392 484.396 93.7432 484.366 93.7545C484.331 93.77 484.301 93.7953 484.28 93.8272C483.914 93.5188 483.456 93.3393 482.977 93.3165C482.499 93.2936 482.026 93.4285 481.631 93.7006C481.223 93.9949 480.926 94.4184 480.788 94.9026C480.651 95.3867 480.68 95.9031 480.873 96.3683L486.574 110.956C487.371 112.997 488.76 114.754 490.562 116C492.364 117.246 494.498 117.926 496.689 117.952C498.578 117.974 500.402 117.259 501.772 115.959C503.143 114.658 503.952 112.874 504.028 110.986L504.119 108.688Z" fill="#E98862"/>
<g opacity="0.2">
<path d="M495.975 98.509C495.925 98.5281 495.87 98.5271 495.822 98.5062C495.773 98.4853 495.735 98.4462 495.715 98.3973L492.023 89.3835C492.012 89.3587 492.005 89.3317 492.004 89.3044C492.003 89.277 492.008 89.2497 492.018 89.2241C492.028 89.1986 492.043 89.1753 492.062 89.1558C492.081 89.1363 492.104 89.1208 492.13 89.1105C492.155 89.1001 492.182 89.095 492.21 89.0955C492.237 89.096 492.264 89.102 492.289 89.1133C492.314 89.1245 492.337 89.1408 492.355 89.161C492.374 89.1812 492.388 89.2049 492.397 89.2308L496.088 98.2446C496.098 98.2691 496.103 98.2954 496.103 98.3219C496.103 98.3484 496.098 98.3746 496.088 98.3991C496.077 98.4235 496.062 98.4457 496.044 98.4643C496.025 98.483 496.002 98.4977 495.978 98.5077L495.975 98.509Z" fill="#0C0C0C"/>
</g>
<g opacity="0.2">
<path d="M492.044 100.247C491.995 100.266 491.94 100.265 491.891 100.244C491.843 100.223 491.804 100.184 491.785 100.135L487.665 90.0752C487.646 90.0261 487.647 89.9713 487.667 89.9227C487.688 89.8741 487.727 89.8356 487.776 89.8154C487.825 89.7978 487.879 89.7993 487.927 89.8197C487.975 89.84 488.014 89.8776 488.035 89.9252L492.155 99.9847C492.175 100.034 492.175 100.09 492.154 100.139C492.133 100.188 492.094 100.227 492.044 100.248V100.247Z" fill="#0C0C0C"/>
</g>
<g opacity="0.2">
<path d="M487.798 102.154C487.749 102.173 487.694 102.172 487.645 102.151C487.597 102.13 487.558 102.091 487.539 102.041L484.253 94.0175C484.232 93.9681 484.233 93.9126 484.253 93.8633C484.274 93.8141 484.313 93.775 484.363 93.7548C484.412 93.7345 484.468 93.7348 484.517 93.7554C484.566 93.776 484.605 93.8154 484.625 93.8649L487.913 101.887C487.934 101.936 487.933 101.992 487.913 102.041C487.892 102.09 487.852 102.13 487.803 102.15L487.798 102.154Z" fill="#0C0C0C"/>
</g>
<path d="M549.777 130.314L516.208 181.924C514.987 183.8 513.352 185.371 511.428 186.516C508.567 184.939 505.807 183.186 503.162 181.269C497.523 177.201 492.429 172.429 488.001 167.068L480.95 112.4L509.169 107.878L512.386 134.193L525.278 114.373L549.777 130.314Z" fill="#367CFF"/>
<path d="M553.713 88.9967C556.792 89.2013 559.852 88.3736 562.408 86.6447C562.497 86.5852 562.6 86.5522 562.707 86.5495C562.814 86.5468 562.919 86.5746 563.011 86.6296C563.102 86.6845 563.176 86.7645 563.224 86.86C563.272 86.9555 563.292 87.0626 563.281 87.1689C563.075 88.9876 562.177 92.3328 558.361 92.7589C555.897 93.0337 554.111 91.1415 553.212 89.8833C553.149 89.7963 553.113 89.6933 553.108 89.5864C553.102 89.4796 553.127 89.3734 553.18 89.2802C553.232 89.1871 553.311 89.111 553.405 89.0607C553.5 89.0105 553.606 88.9883 553.713 88.9967Z" fill="white"/>
<path d="M621.562 155.921C616.601 164.473 610.134 172.058 602.473 178.309C600.693 179.754 598.857 181.128 596.963 182.431L583.852 132.551L613.379 124.784L621.562 155.921Z" fill="#367CFF"/>
<path d="M597.251 182.236C597.157 182.297 597.056 182.366 596.963 182.431C596.871 182.496 596.776 182.561 596.683 182.621L586.69 144.623L587.321 144.458L597.251 182.236Z" fill="#0C0C0C"/>
<path d="M525.646 169.269C525.564 169.266 525.487 169.232 525.43 169.175C525.372 169.117 525.338 169.041 525.334 168.959L524.69 154.799C524.686 154.713 524.717 154.629 524.775 154.565C524.833 154.502 524.914 154.464 525 154.46C525.086 154.456 525.17 154.486 525.234 154.545C525.298 154.603 525.336 154.684 525.34 154.77L525.983 168.93C525.987 169.016 525.957 169.1 525.899 169.164C525.841 169.227 525.76 169.265 525.674 169.269H525.646Z" fill="#0C0C0C"/>
<path d="M284.137 465.334C330.097 465.334 367.354 428.077 367.354 382.117C367.354 336.158 330.097 298.9 284.137 298.9C238.178 298.9 200.92 336.158 200.92 382.117C200.92 428.077 238.178 465.334 284.137 465.334Z" fill="white"/>
<path opacity="0.09" d="M367.356 382.115C367.356 398.574 362.475 414.663 353.331 428.347C344.187 442.032 331.191 452.698 315.985 458.996C300.78 465.295 284.048 466.943 267.905 463.732C251.763 460.521 236.936 452.595 225.298 440.958C213.66 429.32 205.734 414.492 202.523 398.35C199.312 382.207 200.96 365.476 207.259 350.27C213.557 335.064 224.223 322.068 237.908 312.924C251.593 303.78 267.681 298.899 284.14 298.899C295.079 298.859 305.919 300.984 316.033 305.152C326.148 309.319 335.337 315.447 343.073 323.183C350.808 330.918 356.936 340.108 361.104 350.222C365.271 360.337 367.396 371.176 367.356 382.115Z" fill="#367CFF"/>
<path d="M247.302 333.034C247.302 333.034 246.465 345.596 243.638 350.154C235.502 363.275 233.145 378.036 241.293 385.749C249.441 393.463 301.412 393.569 305.349 375.831C308.661 360.898 301.55 359.292 299.82 346.973C299.036 341.399 296.882 329.711 296.882 329.711" fill="#0A0A0A"/>
<path d="M291.896 373.228C291.807 373.216 290.811 389.735 271.621 388.298C258.337 387.303 253.6 373.207 253.295 373.207C254.728 372.903 257.139 372.46 257.777 372.121C259.869 370.997 262.457 369.828 263.132 365.765C263.521 363.426 262.861 351.445 263.067 349.076L283.459 353.627C283.174 358.629 281.179 370.23 288.169 372.282C289.329 372.619 290.581 372.932 291.896 373.228Z" fill="#E98862"/>
<path opacity="0.5" d="M283.741 367.54C283.422 366.51 283.216 365.449 283.128 364.374C282.904 361.923 282.948 359.455 283.261 357.013C279.116 356.454 275.212 354.744 271.991 352.076C271.612 353.475 269.529 359.585 270.107 360.915C271.199 363.425 276.317 367.54 283.741 367.54Z" fill="#0C0C0C"/>
<path d="M281.104 362.393C273.064 363.173 262.661 359.955 260.507 349.248L258.562 339.588C256.408 328.881 260.284 319.07 270.364 317.041C280.445 315.012 289.727 322.173 291.882 332.882L292.743 337.158C293.57 341.267 295.449 361.005 281.104 362.393Z" fill="#E98862"/>
<path opacity="0.1" d="M275.993 348.365C277.316 348.207 278.295 347.293 278.179 346.322C278.063 345.351 276.897 344.692 275.574 344.85C274.251 345.008 273.272 345.923 273.388 346.894C273.504 347.864 274.67 348.523 275.993 348.365Z" fill="#0C0C0C"/>
<path opacity="0.1" d="M289.974 344.483C290.093 345.452 291.259 346.107 292.582 345.954C292.811 345.927 293.036 345.876 293.254 345.802C293.315 344.646 293.319 343.534 293.285 342.505C292.918 342.414 292.536 342.392 292.161 342.44C290.838 342.596 289.86 343.51 289.974 344.483Z" fill="#0C0C0C"/>
<path opacity="0.5" d="M284.128 347.478H284.148C284.556 347.392 284.959 347.284 285.356 347.153C285.948 346.959 286.72 346.631 286.615 346.095C286.492 345.485 283.497 339.239 283.155 338.529C283.123 338.471 283.069 338.427 283.006 338.406C282.943 338.386 282.874 338.391 282.814 338.42C282.754 338.448 282.708 338.499 282.684 338.561C282.66 338.623 282.661 338.692 282.687 338.754C283.965 341.417 286.023 345.787 286.105 346.197C286.04 346.389 285.059 346.763 284.045 346.968C283.981 346.983 283.924 347.021 283.888 347.076C283.851 347.131 283.836 347.197 283.847 347.263C283.857 347.328 283.892 347.386 283.945 347.427C283.997 347.467 284.063 347.486 284.128 347.48V347.478Z" fill="#0C0C0C"/>
<path d="M250.519 343.055L259.557 341.29C266.384 338.432 268.321 326.537 268.321 326.537C268.321 326.537 276.746 334.561 296.882 329.709C296.882 329.709 292.508 301.599 262.775 310.132C253.188 312.883 246.397 322.655 247.407 335.598C248.114 344.67 250.519 343.055 250.519 343.055Z" fill="#0A0A0A"/>
<path d="M261.789 352.385C258.726 353.001 255.583 350.224 254.969 347.16C254.355 344.096 256.496 341.907 259.559 341.291L261.551 343.025L264.426 351.855L261.789 352.385Z" fill="#E98862"/>
<path d="M285.327 333.548C286.093 333.005 286.99 332.675 287.925 332.593C288.395 332.548 288.868 332.574 289.33 332.67C289.796 332.765 290.248 332.918 290.676 333.125L290.69 333.131C290.737 333.15 290.79 333.15 290.837 333.132C290.884 333.113 290.923 333.077 290.944 333.031C290.966 332.985 290.969 332.933 290.953 332.884C290.937 332.836 290.903 332.796 290.859 332.772C290.405 332.532 289.924 332.351 289.425 332.232C288.923 332.11 288.406 332.064 287.89 332.096C286.846 332.154 285.837 332.49 284.967 333.07C284.934 333.092 284.904 333.12 284.882 333.153C284.859 333.186 284.843 333.223 284.835 333.262C284.827 333.301 284.827 333.341 284.835 333.38C284.843 333.42 284.858 333.457 284.881 333.49C284.903 333.523 284.932 333.551 284.966 333.573C285 333.594 285.037 333.609 285.077 333.616C285.116 333.622 285.156 333.621 285.195 333.612C285.234 333.603 285.271 333.586 285.303 333.563L285.31 333.558L285.327 333.548Z" fill="#0C0C0C"/>
<path d="M277.071 334.689C276.045 334.485 274.983 334.56 273.996 334.907C273.508 335.075 273.048 335.316 272.632 335.621C272.217 335.922 271.841 336.274 271.514 336.668C271.481 336.708 271.464 336.758 271.467 336.81C271.471 336.861 271.494 336.909 271.532 336.944C271.57 336.978 271.62 336.997 271.671 336.995C271.723 336.994 271.771 336.973 271.807 336.936L271.818 336.925C272.133 336.569 272.492 336.255 272.886 335.989C273.276 335.723 273.704 335.517 274.155 335.379C275.051 335.098 276.005 335.059 276.921 335.267L276.943 335.272C276.982 335.282 277.022 335.284 277.061 335.279C277.1 335.273 277.138 335.26 277.172 335.24C277.207 335.219 277.236 335.193 277.26 335.161C277.283 335.129 277.3 335.092 277.31 335.054C277.319 335.015 277.321 334.975 277.314 334.936C277.308 334.897 277.294 334.859 277.273 334.826C277.252 334.792 277.224 334.763 277.192 334.74C277.159 334.717 277.123 334.701 277.084 334.692L277.071 334.689Z" fill="#0C0C0C"/>
<path d="M259.562 341.142C265.638 338.881 267.653 334.686 268.275 331.563C268.676 329.481 268.639 327.338 268.164 325.271L267.976 325.323C268.444 327.363 268.48 329.478 268.082 331.533C267.469 334.603 265.484 338.732 259.494 340.96L259.562 341.142Z" fill="#0C0C0C"/>
<path d="M336.373 369.938L340.01 357.596C340.09 357.325 340.226 357.074 340.408 356.858C340.591 356.642 340.816 356.466 341.07 356.342C341.324 356.218 341.601 356.148 341.884 356.137C342.166 356.126 342.448 356.174 342.711 356.278C343.19 356.484 343.576 356.861 343.793 357.336C344.01 357.811 344.043 358.349 343.886 358.847L343.106 361.494L349.376 354.298C350.06 353.485 351.417 352.925 352.278 353.752C352.63 354.048 352.871 354.455 352.962 354.906C353.053 355.357 352.988 355.826 352.779 356.235C352.788 356.24 352.797 356.245 352.805 356.252C352.81 356.257 352.815 356.264 352.819 356.271L353.872 355.018C354.068 354.786 354.312 354.6 354.588 354.475C354.864 354.35 355.165 354.287 355.468 354.293C355.771 354.298 356.069 354.371 356.34 354.507C356.611 354.642 356.849 354.836 357.036 355.075C357.322 355.457 357.469 355.925 357.451 356.402C357.434 356.879 357.253 357.336 356.939 357.696L356.491 358.229C356.501 358.249 356.507 358.271 356.508 358.294C356.894 358.004 357.371 357.861 357.853 357.891C358.335 357.921 358.791 358.121 359.139 358.456C359.509 358.833 359.724 359.336 359.739 359.865C359.755 360.393 359.57 360.908 359.223 361.306L358.109 362.63C358.138 362.622 358.168 362.622 358.197 362.628C358.227 362.634 358.254 362.648 358.277 362.667C358.303 362.691 358.322 362.722 358.331 362.757C358.747 362.595 359.205 362.574 359.635 362.698C360.064 362.822 360.44 363.083 360.706 363.442C360.978 363.824 361.114 364.287 361.09 364.755C361.067 365.223 360.886 365.67 360.576 366.023L351.181 377.195C349.867 378.758 348.116 379.892 346.153 380.453C344.189 381.014 342.103 380.975 340.162 380.343C338.488 379.798 337.092 378.621 336.272 377.063C335.452 375.506 335.271 373.689 335.769 372.001L336.373 369.938Z" fill="#E98862"/>
<g opacity="0.2">
<path d="M346.604 363.392C346.642 363.422 346.69 363.437 346.739 363.433C346.787 363.429 346.832 363.407 346.864 363.37L352.818 356.52C352.851 356.482 352.867 356.433 352.864 356.383C352.86 356.334 352.837 356.287 352.799 356.255C352.762 356.222 352.712 356.206 352.663 356.209C352.613 356.213 352.567 356.236 352.534 356.274L346.58 363.124C346.564 363.142 346.552 363.164 346.544 363.187C346.536 363.211 346.533 363.235 346.535 363.26C346.537 363.285 346.543 363.309 346.554 363.331C346.565 363.353 346.581 363.373 346.599 363.389L346.604 363.392Z" fill="#0C0C0C"/>
</g>
<g opacity="0.2">
<path d="M349.553 366.101C349.591 366.131 349.639 366.146 349.687 366.142C349.736 366.138 349.781 366.116 349.813 366.079L356.457 358.434C356.473 358.415 356.486 358.394 356.493 358.37C356.501 358.347 356.504 358.322 356.503 358.298C356.501 358.273 356.494 358.249 356.483 358.227C356.472 358.205 356.457 358.185 356.438 358.169C356.4 358.138 356.351 358.123 356.302 358.126C356.253 358.13 356.207 358.152 356.173 358.188L349.534 365.833C349.517 365.852 349.505 365.873 349.497 365.897C349.489 365.92 349.486 365.945 349.488 365.969C349.49 365.994 349.496 366.018 349.507 366.04C349.518 366.062 349.534 366.082 349.552 366.098L349.553 366.101Z" fill="#0C0C0C"/>
</g>
<g opacity="0.2">
<path d="M352.73 369.053C352.768 369.084 352.816 369.099 352.864 369.095C352.913 369.091 352.958 369.069 352.99 369.032L358.29 362.934C358.32 362.896 358.334 362.848 358.329 362.8C358.324 362.752 358.302 362.708 358.265 362.676C358.229 362.645 358.182 362.628 358.134 362.63C358.086 362.632 358.04 362.653 358.006 362.687L352.706 368.786C352.69 368.804 352.678 368.826 352.67 368.849C352.662 368.873 352.659 368.898 352.661 368.922C352.662 368.947 352.669 368.971 352.68 368.993C352.691 369.015 352.706 369.035 352.725 369.051L352.73 369.053Z" fill="#0C0C0C"/>
</g>
<path d="M358.51 375.326L344.447 439.124C344.415 439.267 344.382 439.417 344.343 439.559C341.185 442.864 337.764 445.907 334.113 448.659C333.379 449.205 332.645 449.744 331.892 450.264C331.426 450.316 330.957 450.342 330.489 450.342C327.982 450.341 325.52 449.681 323.349 448.428C321.179 447.175 319.376 445.373 318.121 443.203L291.321 396.83L316.069 382.534L324.454 397.045L330.599 369.172L358.51 375.326Z" fill="#0CBC8B"/>
<path d="M315.23 404.412C315.146 405.425 314.977 407.231 314.743 409.609C313.574 421.762 310.839 448.848 309.573 461.365C293.571 466.48 276.4 466.654 260.298 461.865H260.291C248.4 458.306 237.457 452.126 228.268 443.781C228.32 432.59 228.158 420.002 227.405 411.908C225.151 387.725 227.281 383.939 230.782 380.437C231.068 380.152 231.367 379.872 231.666 379.6C235.284 376.313 239.824 374.169 246.443 373.272C250.821 372.682 257.407 372.253 257.407 372.253C257.407 372.253 257.966 383.542 271.262 384.165C289.365 385.017 288.157 372.253 288.248 372.253C292.801 372.253 302.934 372.539 309.326 375.793C309.332 375.793 309.332 375.793 309.339 375.8C310.626 376.426 311.797 377.267 312.801 378.287C320.121 386.043 316.51 389.36 315.23 404.412Z" fill="#0CBC8B"/>
<path d="M286.822 349.589C284.21 350.917 281.23 351.337 278.352 350.783C278.252 350.764 278.149 350.774 278.055 350.811C277.961 350.849 277.879 350.912 277.82 350.995C277.761 351.077 277.726 351.174 277.72 351.275C277.714 351.377 277.736 351.477 277.786 351.566C278.645 353.078 280.679 355.662 284.169 354.609C286.423 353.929 287.276 351.61 287.591 350.175C287.613 350.076 287.606 349.973 287.571 349.877C287.536 349.782 287.475 349.698 287.394 349.637C287.313 349.575 287.216 349.538 287.115 349.529C287.014 349.521 286.912 349.542 286.822 349.589Z" fill="white"/>
<path d="M286.987 337.971C287.684 337.971 288.249 337.406 288.249 336.709C288.249 336.012 287.684 335.447 286.987 335.447C286.29 335.447 285.725 336.012 285.725 336.709C285.725 337.406 286.29 337.971 286.987 337.971Z" fill="#0C0C0C"/>
<path d="M274.857 340.094C275.554 340.094 276.119 339.529 276.119 338.832C276.119 338.135 275.554 337.57 274.857 337.57C274.16 337.57 273.595 338.135 273.595 338.832C273.595 339.529 274.16 340.094 274.857 340.094Z" fill="#0C0C0C"/>
<path d="M312.439 431.657C312.431 431.658 312.423 431.658 312.415 431.657C312.364 431.65 312.317 431.623 312.286 431.582C312.255 431.541 312.241 431.489 312.248 431.438L314.48 408.957C314.483 408.932 314.491 408.907 314.504 408.885C314.516 408.862 314.534 408.843 314.554 408.827C314.575 408.812 314.598 408.8 314.623 408.794C314.648 408.788 314.674 408.787 314.7 408.791C314.751 408.798 314.797 408.825 314.828 408.866C314.86 408.908 314.873 408.959 314.866 409.011L312.635 431.491C312.628 431.538 312.604 431.58 312.568 431.611C312.532 431.641 312.487 431.658 312.439 431.657Z" fill="#0C0C0C"/>
<path d="M298.934 430.575L311.129 425.128C311.397 425.009 311.687 424.947 311.98 424.946C312.273 424.945 312.563 425.005 312.832 425.122C313.101 425.239 313.342 425.41 313.541 425.626C313.74 425.841 313.892 426.095 313.987 426.372C314.148 426.89 314.11 427.448 313.882 427.94C313.654 428.431 313.252 428.82 312.753 429.032L310.138 430.201L320.048 430.303C321.152 430.295 322.507 430.991 322.434 432.227C322.437 432.705 322.278 433.17 321.983 433.545C321.689 433.921 321.275 434.186 320.81 434.297C320.813 434.307 320.814 434.317 320.815 434.328C320.814 434.336 320.812 434.344 320.81 434.352L322.509 434.34C322.824 434.338 323.135 434.406 323.419 434.539C323.704 434.673 323.956 434.868 324.156 435.11C324.355 435.353 324.499 435.637 324.575 435.942C324.651 436.247 324.659 436.565 324.596 436.873C324.488 437.357 324.216 437.789 323.827 438.096C323.439 438.403 322.956 438.568 322.461 438.562L321.738 438.567C321.728 438.589 321.715 438.608 321.699 438.624C322.188 438.734 322.622 439.014 322.924 439.415C323.226 439.816 323.375 440.31 323.345 440.811C323.297 441.358 323.043 441.866 322.636 442.234C322.23 442.603 321.699 442.804 321.15 442.799L319.354 442.811C319.379 442.829 319.4 442.852 319.415 442.88C319.43 442.907 319.437 442.938 319.438 442.969C319.436 443.006 319.424 443.041 319.403 443.071C319.812 443.291 320.138 443.638 320.33 444.061C320.522 444.483 320.57 444.957 320.467 445.41C320.349 445.882 320.075 446.301 319.689 446.599C319.303 446.896 318.829 447.055 318.342 447.049L303.189 447.156C301.069 447.172 298.992 446.553 297.226 445.381C295.46 444.208 294.084 442.535 293.275 440.575C292.577 438.886 292.566 436.99 293.243 435.292C293.92 433.594 295.233 432.227 296.902 431.482L298.934 430.575Z" fill="#E98862"/>
<g opacity="0.2">
<path d="M311.002 434.243C311.002 434.295 311.022 434.345 311.059 434.381C311.096 434.418 311.145 434.438 311.197 434.438L320.62 434.523C320.672 434.524 320.722 434.504 320.759 434.467C320.796 434.431 320.817 434.382 320.817 434.33C320.817 434.278 320.797 434.229 320.761 434.192C320.725 434.155 320.675 434.134 320.624 434.134L311.199 434.049C311.147 434.049 311.098 434.069 311.061 434.106C311.024 434.142 311.004 434.192 311.004 434.243H311.002Z" fill="#0C0C0C"/>
</g>
<g opacity="0.2">
<path d="M310.85 438.4C310.85 438.452 310.87 438.501 310.907 438.538C310.943 438.574 310.993 438.595 311.045 438.595L321.561 438.69C321.612 438.69 321.662 438.669 321.699 438.633C321.735 438.596 321.756 438.547 321.756 438.495C321.754 438.444 321.733 438.395 321.697 438.359C321.661 438.323 321.612 438.302 321.561 438.3L311.044 438.205C310.992 438.205 310.943 438.226 310.906 438.262C310.87 438.299 310.85 438.348 310.85 438.4Z" fill="#0C0C0C"/>
</g>
<g opacity="0.2">
<path d="M310.659 442.897C310.659 442.949 310.68 442.998 310.716 443.035C310.753 443.071 310.802 443.092 310.854 443.092L319.243 443.168C319.295 443.168 319.344 443.147 319.381 443.111C319.417 443.074 319.438 443.025 319.438 442.973C319.438 442.921 319.417 442.872 319.381 442.835C319.344 442.799 319.295 442.778 319.243 442.778L310.854 442.703C310.802 442.703 310.753 442.723 310.716 442.76C310.68 442.797 310.659 442.846 310.659 442.898V442.897Z" fill="#0C0C0C"/>
</g>
<path d="M302.428 452.291L260.298 461.865H260.291C248.4 458.305 237.458 452.126 228.269 443.781C227.281 442.885 226.316 441.967 225.372 441.027C223.726 439.384 222.152 437.676 220.649 435.902L226.547 388.459C227.191 384.635 229.327 381.223 232.486 378.973C235.646 376.724 239.569 375.822 243.393 376.465C247.218 377.109 250.63 379.245 252.879 382.404C255.129 385.564 256.031 389.487 255.387 393.311L251.659 437.858L298.634 427.224L302.428 452.291Z" fill="#0CBC8B"/>
<path d="M242.158 439.607C242.132 439.609 242.106 439.606 242.082 439.598C242.058 439.59 242.035 439.577 242.016 439.56C241.996 439.544 241.98 439.523 241.969 439.5C241.957 439.477 241.95 439.452 241.948 439.427C241.946 439.401 241.95 439.375 241.958 439.351C241.966 439.327 241.978 439.304 241.995 439.285C242.012 439.265 242.032 439.249 242.055 439.238C242.078 439.226 242.103 439.219 242.129 439.217L251.547 437.204C251.572 437.2 251.598 437.201 251.623 437.207C251.648 437.213 251.671 437.224 251.692 437.239C251.713 437.255 251.73 437.274 251.743 437.296C251.757 437.318 251.765 437.342 251.769 437.367C251.773 437.393 251.772 437.419 251.765 437.443C251.759 437.468 251.748 437.492 251.733 437.512C251.718 437.533 251.698 437.55 251.676 437.563C251.655 437.576 251.63 437.585 251.605 437.589L242.183 439.602C242.175 439.605 242.166 439.606 242.158 439.607Z" fill="#0C0C0C"/>
<path d="M302.428 452.29C302.439 452.34 302.43 452.392 302.403 452.436C302.377 452.479 302.335 452.511 302.285 452.524L261.357 462.17C261.097 462.098 260.844 462.027 260.591 461.948L302 452.199L298.31 427.516L251.614 437.59C251.584 437.595 251.553 437.593 251.524 437.584C251.494 437.575 251.467 437.56 251.445 437.539C251.426 437.516 251.411 437.489 251.402 437.46C251.393 437.431 251.39 437.4 251.393 437.37L254.011 411.914C254.015 411.889 254.025 411.865 254.039 411.843C254.053 411.822 254.071 411.803 254.092 411.789C254.113 411.774 254.137 411.764 254.162 411.759C254.187 411.753 254.213 411.753 254.238 411.758C254.289 411.766 254.335 411.793 254.365 411.835C254.395 411.876 254.408 411.928 254.401 411.979L251.822 437.175L298.395 427.081C298.42 427.074 298.446 427.073 298.472 427.077C298.498 427.082 298.523 427.092 298.544 427.107C298.566 427.119 298.586 427.136 298.602 427.156C298.617 427.176 298.629 427.199 298.635 427.223L302.428 452.29Z" fill="#0C0C0C"/>
<path d="M76.3051 740.471C118.447 740.471 152.61 706.308 152.61 664.166C152.61 622.024 118.447 587.861 76.3051 587.861C34.163 587.861 0 622.024 0 664.166C0 706.308 34.163 740.471 76.3051 740.471Z" fill="white"/>
<path opacity="0.09" d="M76.3051 740.471C118.447 740.471 152.61 706.308 152.61 664.166C152.61 622.024 118.447 587.861 76.3051 587.861C34.163 587.861 0 622.024 0 664.166C0 706.308 34.163 740.471 76.3051 740.471Z" fill="#367CFF"/>
<path d="M55.2915 620.886C55.2915 620.886 56.1184 643.868 71.4575 644.924L74.0557 614.619L55.2915 620.886Z" fill="#0A0A0A"/>
<path d="M58.2459 649.618C63.2646 649.618 67.3331 645.549 67.3331 640.531C67.3331 635.512 63.2646 631.443 58.2459 631.443C53.2272 631.443 49.1587 635.512 49.1587 640.531C49.1587 645.549 53.2272 649.618 58.2459 649.618Z" fill="#0A0A0A"/>
<path d="M93.8018 655.59C93.7206 655.579 92.8229 670.481 75.5112 669.182C63.5263 668.286 59.2536 655.571 58.9795 655.571C60.349 655.343 61.7 655.016 63.0216 654.59C64.9086 653.577 67.2437 652.522 67.8517 648.857C68.2024 646.745 67.6081 635.938 67.7906 633.801L86.1871 637.907C85.9273 642.421 84.1307 652.884 90.4365 654.737C91.4849 655.043 92.6151 655.324 93.8018 655.59Z" fill="#E98862"/>
<path opacity="0.5" d="M86.4442 650.459C86.1558 649.529 85.9703 648.571 85.8908 647.601C85.6888 645.389 85.7291 643.163 86.011 640.96C82.2719 640.455 78.7494 638.912 75.8436 636.506C75.5019 637.767 73.6234 643.28 74.1437 644.478C75.1271 646.749 79.7474 650.459 86.4442 650.459Z" fill="#0C0C0C"/>
<path d="M83.5625 646.444C76.2765 646.537 67.1679 642.86 66.0389 633.073L65.0204 624.239C63.8909 614.452 68.1162 605.922 77.332 604.861C86.5471 603.798 94.3502 610.937 95.4797 620.725L95.9305 624.635C96.3638 628.393 96.5625 646.279 83.5625 646.444Z" fill="#E98862"/>
<path d="M93.2886 624.373C93.9196 624.373 94.4311 623.861 94.4311 623.23C94.4311 622.599 93.9196 622.088 93.2886 622.088C92.6575 622.088 92.146 622.599 92.146 623.23C92.146 623.861 92.6575 624.373 93.2886 624.373Z" fill="#0C0C0C"/>
<path d="M81.6118 625.708C82.2428 625.708 82.7543 625.197 82.7543 624.566C82.7543 623.935 82.2428 623.423 81.6118 623.423C80.9808 623.423 80.4692 623.935 80.4692 624.566C80.4692 625.197 80.9808 625.708 81.6118 625.708Z" fill="#0C0C0C"/>
<path opacity="0.5" d="M87.4063 633.264H87.4245C87.7979 633.218 88.1685 633.152 88.5346 633.066C89.0815 632.932 89.8025 632.699 89.746 632.209C89.6811 631.652 87.4603 625.81 87.2069 625.146C87.196 625.118 87.1795 625.091 87.1584 625.069C87.1372 625.047 87.1119 625.029 87.0839 625.016C87.0559 625.004 87.0256 624.997 86.9949 624.996C86.9642 624.995 86.9336 625 86.9049 625.011C86.8762 625.022 86.8499 625.039 86.8276 625.06C86.8053 625.081 86.7873 625.106 86.7748 625.134C86.7622 625.162 86.7553 625.193 86.7545 625.223C86.7536 625.254 86.7588 625.285 86.7698 625.313C87.7175 627.8 89.2381 631.887 89.2809 632.263C88.6963 632.593 88.0412 632.777 87.3706 632.8C87.3088 632.805 87.2513 632.834 87.211 632.881C87.1706 632.928 87.1506 632.989 87.1553 633.051C87.16 633.113 87.1891 633.17 87.2362 633.211C87.2833 633.251 87.3445 633.271 87.4063 633.266V633.264Z" fill="#0C0C0C"/>
<path opacity="0.5" d="M85.7592 637.338C87.256 637.252 88.7117 636.816 90.0092 636.065C90.0603 636.034 90.0973 635.983 90.1125 635.925C90.1276 635.867 90.1199 635.805 90.0908 635.753C90.0616 635.7 90.0134 635.661 89.9561 635.642C89.8987 635.624 89.8366 635.629 89.7826 635.655C86.9804 637.206 84.3004 637.296 82.0334 635.915C81.9876 635.886 81.9404 635.859 81.8918 635.835C81.8357 635.813 81.7732 635.813 81.7175 635.836C81.6617 635.859 81.617 635.903 81.5925 635.958C81.568 636.013 81.5657 636.075 81.586 636.132C81.6063 636.189 81.6476 636.236 81.7015 636.263C81.719 636.272 81.7489 636.29 81.7899 636.315C82.9817 637.044 84.3638 637.4 85.7592 637.338Z" fill="#0C0C0C"/>
<path d="M57.5274 626.75L65.7851 625.845C72.137 623.794 74.7761 613.244 74.7761 613.244C74.7761 613.244 80.4681 619.717 97.3356 616.761C97.3356 616.761 96.6822 595.016 71.0289 598.077C62.0969 599.144 55.3618 608.101 55.2923 619.813C55.2442 628.02 57.5274 626.75 57.5274 626.75Z" fill="#0A0A0A"/>
<path d="M66.9559 635.989C64.1551 636.313 61.5393 633.577 61.2165 630.777C60.8937 627.976 62.9852 626.17 65.7861 625.847L67.4457 627.557L69.3638 635.711L66.9559 635.989Z" fill="#E98862"/>
<path d="M89.2489 620.379C90.075 619.922 91.0086 619.695 91.9523 619.722C92.4183 619.732 92.8801 619.813 93.3222 619.96C93.7614 620.105 94.1807 620.304 94.57 620.553C94.609 620.578 94.6369 620.617 94.6479 620.662C94.659 620.707 94.6523 620.754 94.6292 620.794C94.6062 620.834 94.5686 620.864 94.5243 620.877C94.48 620.89 94.4324 620.885 94.3914 620.864L94.3797 620.857C94.0108 620.638 93.6158 620.467 93.204 620.346C92.7961 620.224 92.3721 620.165 91.9465 620.17C91.0995 620.175 90.2687 620.403 89.5386 620.832L89.5211 620.843C89.4909 620.863 89.457 620.877 89.4215 620.883C89.386 620.889 89.3495 620.889 89.3143 620.881C89.2791 620.873 89.2458 620.858 89.2165 620.837C89.1872 620.816 89.1624 620.789 89.1437 620.758C89.1249 620.727 89.1125 620.693 89.1073 620.657C89.1021 620.622 89.1041 620.585 89.1133 620.55C89.1224 620.515 89.1385 620.483 89.1606 620.454C89.1827 620.425 89.2103 620.402 89.2418 620.384L89.2489 620.379Z" fill="#0C0C0C"/>
<path d="M81.8472 621.741C81.0397 621.485 80.1787 621.448 79.3523 621.634C78.936 621.724 78.5359 621.878 78.1655 622.088C77.7912 622.298 77.4447 622.553 77.1341 622.849L77.1243 622.858C77.089 622.884 77.0453 622.896 77.0015 622.893C76.9577 622.889 76.9169 622.869 76.8869 622.837C76.8568 622.805 76.8396 622.763 76.8384 622.719C76.8373 622.675 76.8524 622.632 76.8807 622.598C77.2046 622.268 77.5686 621.981 77.9642 621.742C78.3623 621.499 78.7945 621.317 79.2464 621.203C80.1603 620.966 81.1211 620.979 82.0284 621.24C82.0635 621.249 82.0964 621.265 82.1251 621.287C82.1539 621.309 82.1779 621.336 82.1957 621.368C82.2136 621.399 82.2249 621.434 82.229 621.47C82.2331 621.506 82.2299 621.543 82.2195 621.577C82.2092 621.612 82.192 621.644 82.1689 621.672C82.1458 621.7 82.1173 621.723 82.0852 621.74C82.053 621.756 82.0178 621.766 81.9817 621.769C81.9456 621.771 81.9094 621.767 81.8751 621.755H81.868L81.8472 621.741Z" fill="#0C0C0C"/>
<path opacity="0.52" d="M85.9162 639.551C86.187 639.54 86.4565 639.506 86.7216 639.449C86.7806 639.434 86.8316 639.397 86.8638 639.346C86.8961 639.294 86.9071 639.232 86.8946 639.173C86.882 639.114 86.8469 639.061 86.7966 639.027C86.7462 638.993 86.6847 638.98 86.6248 638.99C86.2109 639.111 85.7758 639.143 85.3488 639.082C84.9218 639.022 84.5127 638.87 84.1487 638.639C84.1007 638.6 84.039 638.581 83.9772 638.587C83.9155 638.594 83.8587 638.624 83.8194 638.672C83.7801 638.72 83.7616 638.782 83.7678 638.844C83.774 638.905 83.8045 638.962 83.8525 639.001C84.4562 639.418 85.1854 639.612 85.9162 639.551Z" fill="#0C0C0C"/>
<path opacity="0.1" d="M80.0282 633.446C81.2296 633.404 82.1785 632.655 82.1477 631.774C82.1168 630.893 81.1179 630.212 79.9165 630.254C78.7151 630.296 77.7662 631.045 77.7971 631.926C77.8279 632.807 78.8269 633.488 80.0282 633.446Z" fill="#0C0C0C"/>
<path opacity="0.1" d="M92.8868 631.013C92.9206 631.893 93.9189 632.572 95.1206 632.532C95.3283 632.525 95.5347 632.496 95.7364 632.446C95.8786 631.412 95.9657 630.413 96.0131 629.485C95.6896 629.375 95.3484 629.326 95.0069 629.341C93.8079 629.381 92.8595 630.127 92.8868 631.013Z" fill="#0C0C0C"/>
<path d="M119.656 671.286C119.604 676.488 117.818 682.692 117.182 690.187C117.013 692.188 112.719 697.975 112.095 704.412C111.309 712.61 113.057 725.393 113.291 730.921C101.221 737.599 87.5676 740.884 73.7807 740.427C59.9939 739.969 46.5883 735.787 34.9877 728.322C34.6759 714.123 34.3057 696.592 33.8315 692.389C32.2921 678.515 32.7078 669.74 34.9292 665.634C38.5602 658.931 45.0232 656.885 51.785 655.963C55.9162 655.404 62.1194 655.008 62.1194 655.008C62.1194 655.008 62.6455 665.641 75.1818 666.232C92.2454 667.037 91.1087 655.008 91.1932 655.008C97.3834 655.008 109.114 656.489 113.609 659.555C118.377 662.796 119.715 666.641 119.656 671.286Z" fill="#FFC239"/>
<path d="M60.7035 679.379L37.5535 729.898C28.6651 724.651 20.9315 717.658 14.8193 709.34L34.1304 667.197L60.7035 679.379Z" fill="#FFC239"/>
<path d="M138.358 708.576C133.823 714.904 128.349 720.502 122.126 725.179C120.077 726.725 117.951 728.165 115.754 729.492L91.9932 677.255L118.599 665.147L138.358 708.576Z" fill="#FFC239"/>
<path d="M177.115 159.504C220.991 159.504 256.56 123.935 256.56 80.0582C256.56 36.1816 220.991 0.612549 177.115 0.612549C133.238 0.612549 97.6689 36.1816 97.6689 80.0582C97.6689 123.935 133.238 159.504 177.115 159.504Z" fill="white"/>
<path opacity="0.09" d="M177.115 159.504C220.991 159.504 256.56 123.935 256.56 80.0582C256.56 36.1816 220.991 0.612549 177.115 0.612549C133.238 0.612549 97.6689 36.1816 97.6689 80.0582C97.6689 123.935 133.238 159.504 177.115 159.504Z" fill="#367CFF"/>
<path d="M192.476 32.4848C192.476 32.4848 197.507 27.0325 197.118 16.6475C196.817 8.60674 190.506 14.9938 190.506 14.9938C190.506 14.9938 190.233 9.20627 186.219 10.5119C182.206 11.8175 180.972 18.1726 180.972 18.1726" fill="#0C0C0C"/>
<path d="M165.055 15.0256C165.055 15.0256 145.019 20.9138 157.416 47.2634L159.246 47.0568L162.96 46.6385" fill="#0C0C0C"/>
<path d="M193.448 74.5958C193.357 74.5842 192.344 91.3932 172.817 89.9252C159.298 88.9126 154.478 74.5699 154.168 74.5699C155.626 74.26 157.427 73.7904 158.143 73.6287C159.703 73.2666 161.116 72.438 162.194 71.2532C163.271 70.0684 163.963 68.5836 164.176 66.9961C164.572 64.6136 163.901 52.4241 164.107 50.0137L184.858 54.645C184.568 59.7368 182.539 71.5397 189.652 73.6287C190.836 73.9749 192.111 74.2932 193.448 74.5958Z" fill="#E98862"/>
<path opacity="0.52" d="M185.149 68.8058C184.824 67.7582 184.615 66.6783 184.525 65.5853C184.297 63.091 184.342 60.5792 184.66 58.0947C180.443 57.5254 176.469 55.7845 173.192 53.0698C172.806 54.493 170.687 60.7111 171.274 62.0635C172.383 64.6201 177.595 68.8058 185.149 68.8058Z" fill="#0C0C0C"/>
<path d="M181.761 63.4544C173.577 64.1903 163.012 60.8458 160.894 49.936L158.982 40.0921C156.864 29.1796 160.877 19.2253 171.149 17.2312C181.421 15.2364 190.816 22.59 192.935 33.4998L193.779 37.8576C194.044 39.3589 194.206 40.8765 194.264 42.3999C194.447 46.4271 194.71 52.5478 192.774 57.0726C190.948 61.3453 186.991 62.9848 181.761 63.4544Z" fill="#E98862"/>
<path opacity="0.5" d="M182.999 52.6684C184.498 52.6402 185.969 52.2602 187.294 51.559C187.323 51.5459 187.349 51.5272 187.37 51.5039C187.392 51.4806 187.408 51.4532 187.419 51.4234C187.429 51.3936 187.434 51.3619 187.432 51.3304C187.43 51.2988 187.421 51.268 187.407 51.2397C187.393 51.2115 187.373 51.1864 187.349 51.1661C187.325 51.1457 187.297 51.1304 187.266 51.1212C187.236 51.1119 187.204 51.1089 187.173 51.1122C187.141 51.1156 187.111 51.1253 187.083 51.1407C184.225 52.5833 181.543 52.5697 179.33 51.1056C179.286 51.0747 179.239 51.046 179.192 51.0199C179.164 51.0063 179.134 50.9983 179.104 50.9963C179.073 50.9944 179.042 50.9985 179.013 51.0084C178.984 51.0183 178.957 51.0339 178.934 51.0542C178.911 51.0745 178.892 51.0991 178.879 51.1267C178.865 51.1543 178.857 51.1843 178.855 51.215C178.853 51.2457 178.857 51.2764 178.867 51.3055C178.877 51.3346 178.892 51.3615 178.913 51.3846C178.933 51.4077 178.958 51.4266 178.985 51.4401C179.003 51.4499 179.031 51.4693 179.072 51.496C180.235 52.269 181.602 52.6772 182.999 52.6684Z" fill="#0C0C0C"/>
<path opacity="0.52" d="M183.071 54.8884C183.342 54.8877 183.613 54.8637 183.88 54.817C183.91 54.8118 183.939 54.8008 183.965 54.7844C183.991 54.768 184.013 54.7467 184.031 54.7217C184.049 54.6966 184.062 54.6683 184.068 54.6383C184.075 54.6084 184.076 54.5774 184.071 54.5471C184.066 54.5168 184.055 54.4879 184.038 54.4619C184.022 54.4359 184.001 54.4133 183.976 54.3956C183.951 54.3778 183.922 54.3652 183.892 54.3583C183.862 54.3515 183.831 54.3507 183.801 54.3558C183.383 54.4606 182.947 54.4751 182.522 54.3982C182.098 54.3214 181.695 54.155 181.34 53.9102C181.293 53.8707 181.233 53.8511 181.172 53.8556C181.111 53.8601 181.054 53.8883 181.014 53.9342C180.973 53.9801 180.952 54.04 180.955 54.1011C180.959 54.1622 180.986 54.2196 181.031 54.261C181.618 54.6999 182.339 54.9216 183.071 54.8884Z" fill="#0C0C0C"/>
<path d="M190.476 40.6062C191.188 40.6062 191.765 40.0292 191.765 39.3175C191.765 38.6058 191.188 38.0288 190.476 38.0288C189.764 38.0288 189.188 38.6058 189.188 39.3175C189.188 40.0292 189.764 40.6062 190.476 40.6062Z" fill="#0C0C0C"/>
<path d="M177.944 42.0713C178.656 42.0713 179.233 41.4943 179.233 40.7826C179.233 40.0709 178.656 39.4939 177.944 39.4939C177.233 39.4939 176.656 40.0709 176.656 40.7826C176.656 41.4943 177.233 42.0713 177.944 42.0713Z" fill="#0C0C0C"/>
<path d="M162.177 53.1356C159.055 53.7417 155.877 50.8934 155.27 47.7717C154.663 44.6499 156.861 42.4376 159.982 41.8315L161.995 43.6107L164.86 52.6147L162.177 53.1356Z" fill="#E98862"/>
<path d="M164.381 47.5446C164.381 47.5446 162.636 31.8807 167.155 30.0762C170.165 28.8739 178.545 31.9346 185.321 29.326C188.286 28.1841 191.339 28.4167 191.897 29.8138C192.119 30.3666 192.538 21.7672 186.596 16.374C181.864 12.0805 169.081 12.9398 163.677 15.6069C148.713 22.9916 159.461 42.6281 159.461 42.6281L161.13 47.8349L164.381 47.5446Z" fill="#0C0C0C"/>
<g opacity="0.52">
<path d="M184.92 48.7895H184.94C185.947 48.5947 187.613 48.1614 187.473 47.4086C187.353 46.7844 184.355 40.3772 184.015 39.6491C184 39.6181 183.98 39.5902 183.955 39.5671C183.929 39.5441 183.9 39.5262 183.867 39.5145C183.835 39.5029 183.801 39.4977 183.767 39.4993C183.733 39.5009 183.699 39.5092 183.668 39.5237C183.637 39.5382 183.609 39.5588 183.586 39.5841C183.563 39.6094 183.545 39.639 183.534 39.6712C183.522 39.7034 183.517 39.7376 183.518 39.7718C183.52 39.806 183.528 39.8396 183.543 39.8706C184.872 42.7078 186.879 47.0806 186.961 47.506C186.896 47.7009 185.888 48.077 184.846 48.2764C184.777 48.2866 184.715 48.3238 184.673 48.3798C184.632 48.4358 184.614 48.5059 184.625 48.5748C184.635 48.6438 184.672 48.7058 184.728 48.7472C184.784 48.7887 184.854 48.8063 184.923 48.796L184.92 48.7895Z" fill="#0C0C0C"/>
</g>
<path d="M185.632 33.0899C186.639 32.607 187.758 32.405 188.871 32.5053C189.416 32.5512 189.952 32.6786 190.46 32.8833C190.962 33.0827 191.436 33.3446 191.872 33.6628C191.953 33.7187 192.009 33.8039 192.029 33.9004C192.048 33.9969 192.029 34.0971 191.976 34.18C191.923 34.2629 191.84 34.322 191.744 34.3449C191.649 34.3678 191.548 34.3526 191.463 34.3026L191.434 34.2922C191.038 34.0397 190.613 33.8378 190.167 33.6914C189.729 33.545 189.271 33.466 188.809 33.4569C187.898 33.4315 186.997 33.6473 186.197 34.0824L186.163 34.1012C186.098 34.1384 186.026 34.1624 185.952 34.1718C185.878 34.1813 185.802 34.176 185.73 34.1562C185.657 34.1365 185.59 34.1027 185.53 34.0567C185.471 34.0108 185.421 33.9536 185.384 33.8885C185.347 33.8234 185.323 33.7516 185.314 33.6771C185.304 33.6027 185.31 33.5272 185.329 33.4549C185.349 33.3825 185.383 33.3148 185.429 33.2555C185.475 33.1962 185.532 33.1465 185.597 33.1094L185.632 33.0899Z" fill="#0C0C0C"/>
<path d="M178.244 35.0868C177.366 34.8413 176.44 34.8317 175.558 35.0589C175.109 35.1704 174.681 35.3493 174.286 35.5895C173.883 35.8314 173.512 36.1227 173.182 36.4567L173.161 36.4775C173.09 36.5464 172.994 36.5848 172.895 36.5845C172.796 36.5841 172.701 36.5451 172.631 36.4758C172.56 36.4064 172.519 36.3121 172.517 36.2131C172.514 36.114 172.551 36.018 172.619 35.9455C172.972 35.5374 173.376 35.1758 173.821 34.8692C174.271 34.5565 174.765 34.3128 175.287 34.1462C175.809 33.9742 176.352 33.8746 176.9 33.8501C177.462 33.8191 178.026 33.8681 178.574 33.9956C178.722 34.03 178.849 34.1216 178.929 34.2503C179.009 34.3789 179.035 34.534 179 34.6815C178.966 34.8289 178.874 34.9567 178.746 35.0366C178.617 35.1165 178.462 35.142 178.314 35.1076L178.281 35.0985L178.244 35.0868Z" fill="#0C0C0C"/>
<path d="M182.195 22.7127C184.423 21.8097 185.152 18.4188 183.823 15.139C182.493 11.8592 179.609 9.93238 177.381 10.8354C175.153 11.7384 174.424 15.1293 175.753 18.4091C177.083 21.6889 179.966 23.6157 182.195 22.7127Z" fill="#0C0C0C"/>
<path d="M220.436 91.9657C220.514 97.3504 218.41 103.404 217.708 111.602C217.565 113.264 217.228 116.928 216.779 121.702C216.045 129.607 215.006 140.539 214.097 150.393C201.092 157.218 186.452 160.311 171.797 159.327C157.143 158.343 143.047 153.322 131.071 144.819C130.786 144.605 130.5 144.397 130.214 144.196C129.454 133.056 128.558 121.364 127.739 113.979C126.2 100.189 124.102 93.3232 125.277 88.6855C125.372 88.2905 125.498 87.9039 125.654 87.5293C129.038 79.319 139.814 75.6555 147.115 74.6682C151.571 74.0641 158.275 73.6289 158.275 73.6289C158.275 73.6289 158.84 85.1129 172.37 85.7495C190.791 86.6199 189.563 73.6289 189.654 73.6289C192.636 73.6289 208.881 75.7984 212.941 78.4486C213.621 78.8904 214.272 79.3764 214.889 79.9035C216.653 81.3747 218.066 83.2209 219.026 85.3077C219.986 87.3944 220.467 89.6691 220.436 91.9657Z" fill="#383838"/>
<path d="M152.611 100.293L131.072 144.819C130.786 144.605 130.5 144.397 130.214 144.196C121.865 138.073 114.783 130.388 109.364 121.566L125.278 88.6855L125.908 87.3799L152.611 100.293Z" fill="#383838"/>
<path d="M150.532 105.418L130.941 144.722C130.811 144.625 130.688 144.534 130.558 144.449L150.123 105.217C150.151 105.162 150.199 105.121 150.257 105.101C150.315 105.082 150.379 105.086 150.434 105.113C150.488 105.14 150.528 105.188 150.546 105.245C150.564 105.302 150.559 105.365 150.532 105.418Z" fill="white"/>
<path d="M249.861 112.043C245.957 120.892 240.474 128.957 233.681 135.843L216.78 121.702L195.312 103.735L214.889 79.9035L214.948 79.832L249.861 112.043Z" fill="#383838"/>
<path d="M217.04 121.876C217.096 121.873 217.148 121.85 217.188 121.812C217.227 121.773 217.252 121.722 217.257 121.667L218.372 108.592C218.377 108.531 218.358 108.471 218.319 108.425C218.28 108.378 218.225 108.349 218.164 108.344C218.104 108.34 218.045 108.359 217.999 108.398C217.952 108.437 217.923 108.492 217.917 108.552L216.802 121.628C216.797 121.688 216.816 121.748 216.855 121.794C216.894 121.841 216.95 121.87 217.01 121.875L217.04 121.876Z" fill="white"/>
<path d="M545.033 716.298C586.883 716.298 620.808 682.373 620.808 640.523C620.808 598.674 586.883 564.749 545.033 564.749C503.184 564.749 469.259 598.674 469.259 640.523C469.259 682.373 503.184 716.298 545.033 716.298Z" fill="white"/>
<path opacity="0.09" d="M469.259 640.522C469.259 655.509 473.703 670.159 482.029 682.62C490.355 695.08 502.189 704.793 516.035 710.528C529.88 716.263 545.116 717.764 559.814 714.84C574.513 711.916 588.015 704.7 598.612 694.103C609.209 683.506 616.426 670.004 619.349 655.306C622.273 640.607 620.773 625.371 615.038 611.526C609.302 597.68 599.59 585.846 587.13 577.52C574.669 569.194 560.019 564.75 545.032 564.75C535.071 564.713 525.202 566.648 515.992 570.443C506.782 574.238 498.414 579.818 491.371 586.861C484.328 593.904 478.747 602.272 474.952 611.482C471.157 620.691 469.222 630.561 469.259 640.522Z" fill="#367CFF"/>
<path d="M579.417 598.709C578.207 612.739 579.329 617.497 585.155 625.535C590.069 632.313 562.11 626.552 549.74 624.349L560.656 592.444C560.656 592.444 579.842 593.782 579.417 598.709Z" fill="#0A0A0A"/>
<path d="M536.739 592.871C533.089 606.472 533.499 610.68 526.356 617.822C520.437 623.742 543.508 624.946 555.887 627.097L556.513 593.385C556.513 593.385 538.021 588.095 536.739 592.871Z" fill="#0A0A0A"/>
<path d="M537.969 632.43C538.051 632.419 538.957 647.461 556.431 646.149C568.528 645.243 572.841 632.409 573.118 632.409C571.736 632.179 570.372 631.848 569.038 631.42C567.134 630.396 564.776 629.331 564.163 625.632C563.809 623.5 564.409 612.592 564.224 610.433L545.656 614.577C545.915 619.133 547.734 629.695 541.369 631.564C540.308 631.876 539.167 632.16 537.969 632.43Z" fill="#E98862"/>
<path opacity="0.5" d="M545.395 627.25C545.686 626.312 545.873 625.346 545.953 624.368C546.158 622.136 546.117 619.888 545.833 617.665C549.607 617.156 553.162 615.598 556.095 613.169C556.44 614.442 558.336 620.006 557.812 621.216C556.818 623.504 552.155 627.25 545.395 627.25Z" fill="#0C0C0C"/>
<path d="M547.796 622.564C555.118 623.272 564.589 620.344 566.551 610.595L568.322 601.798C570.284 592.049 566.754 583.115 557.575 581.267C548.396 579.42 539.944 585.944 537.982 595.691L537.198 599.589C536.446 603.327 534.735 621.301 547.796 622.564Z" fill="#E98862"/>
<path d="M577.182 604.575L568.924 603.67C552.766 600.699 548.809 587.661 548.809 587.661C548.809 587.661 542.031 596.709 536.276 594.632C536.276 594.632 538.131 572.813 563.679 576.647C573.717 578.153 579.417 586.475 579.417 597.636C579.417 605.842 577.182 604.575 577.182 604.575Z" fill="#0A0A0A"/>
<path opacity="0.1" d="M554.818 608.445C554.923 607.562 554.032 606.729 552.828 606.585C551.623 606.441 550.561 607.041 550.455 607.925C550.35 608.809 551.241 609.642 552.446 609.785C553.65 609.929 554.712 609.329 554.818 608.445Z" fill="#0C0C0C"/>
<path opacity="0.1" d="M539.723 606.255C539.615 607.137 538.554 607.737 537.348 607.595C537.14 607.569 536.935 607.523 536.737 607.456C536.681 606.403 536.677 605.391 536.708 604.454C537.042 604.371 537.39 604.351 537.732 604.394C538.933 604.537 539.824 605.369 539.723 606.255Z" fill="#0C0C0C"/>
<path opacity="0.5" d="M545.043 608.984H545.025C544.653 608.906 544.286 608.808 543.925 608.69C543.386 608.509 542.681 608.214 542.779 607.726C542.89 607.171 545.619 601.483 545.929 600.837C545.942 600.808 545.96 600.782 545.984 600.76C546.007 600.739 546.034 600.722 546.063 600.711C546.093 600.7 546.125 600.696 546.156 600.697C546.188 600.699 546.219 600.706 546.247 600.72C546.276 600.734 546.301 600.753 546.322 600.777C546.343 600.8 546.359 600.828 546.369 600.858C546.379 600.888 546.383 600.92 546.381 600.951C546.378 600.983 546.37 601.013 546.355 601.042C545.191 603.463 543.317 607.445 543.242 607.82C543.802 608.2 544.445 608.44 545.118 608.52C545.177 608.533 545.23 608.568 545.264 608.618C545.298 608.668 545.312 608.729 545.303 608.789C545.293 608.849 545.261 608.903 545.212 608.94C545.164 608.977 545.103 608.994 545.043 608.987V608.984Z" fill="#0C0C0C"/>
<path d="M565.383 613.45C568.173 614.012 571.034 611.483 571.596 608.693C572.158 605.903 570.206 603.91 567.416 603.349L565.603 604.928L562.985 612.968L565.383 613.45Z" fill="#E98862"/>
<path d="M543.951 596.298C543.607 596.054 543.231 595.858 542.834 595.714C542.433 595.563 542.012 595.468 541.585 595.432C541.157 595.392 540.726 595.415 540.305 595.503C539.881 595.59 539.469 595.729 539.08 595.918L539.068 595.923C539.026 595.939 538.979 595.937 538.938 595.92C538.896 595.903 538.863 595.871 538.844 595.831C538.824 595.79 538.821 595.744 538.834 595.701C538.847 595.658 538.875 595.622 538.914 595.599C539.327 595.381 539.765 595.216 540.219 595.107C540.676 594.996 541.147 594.954 541.617 594.983C542.568 595.036 543.488 595.343 544.28 595.873C544.338 595.914 544.377 595.976 544.389 596.046C544.401 596.116 544.386 596.187 544.346 596.246C544.306 596.304 544.245 596.345 544.176 596.359C544.107 596.373 544.035 596.36 543.975 596.322L543.969 596.317L543.951 596.298Z" fill="#0C0C0C"/>
<path d="M551.469 597.337C552.403 597.151 553.37 597.219 554.269 597.535C554.714 597.688 555.134 597.907 555.513 598.185C555.891 598.458 556.233 598.778 556.531 599.137C556.564 599.173 556.581 599.22 556.578 599.268C556.576 599.315 556.555 599.36 556.52 599.393C556.484 599.425 556.437 599.442 556.39 599.44C556.342 599.438 556.297 599.416 556.264 599.381L556.255 599.371C555.967 599.047 555.64 598.761 555.28 598.519C554.925 598.277 554.536 598.09 554.125 597.964C553.309 597.708 552.44 597.673 551.606 597.861L551.586 597.866C551.516 597.884 551.442 597.872 551.381 597.835C551.319 597.798 551.275 597.737 551.258 597.668C551.24 597.598 551.252 597.524 551.289 597.462C551.326 597.4 551.386 597.356 551.456 597.339L551.469 597.337Z" fill="#0C0C0C"/>
<path d="M509.826 707.633C506.848 706.334 504.619 704.944 499.532 701.111C495.862 698.357 492.451 695.272 489.342 691.896L515.46 642.197L516.595 640.038L540.153 652.423L519.718 691.311L519.624 691.483L519.801 692.174" fill="#EA394A"/>
<path d="M596.689 667.652C596.003 675.022 595.855 686.484 595.902 696.675C586.054 705.608 574.027 711.791 561.032 714.601C548.036 717.412 534.529 716.751 521.87 712.686C520.321 697.317 518.017 674.733 516.718 660.827C515.402 646.423 511.532 641.665 522.095 634.767C527.915 631.804 537.141 631.544 541.287 631.544C539.88 645.197 568.654 646.878 569.369 631.544C590.891 633.556 600.854 634.056 596.689 667.652Z" fill="#EA394A"/>
<path d="M542.589 610.905C544.967 612.114 547.681 612.497 550.301 611.991C550.392 611.974 550.486 611.983 550.572 612.017C550.658 612.051 550.732 612.109 550.786 612.184C550.841 612.259 550.872 612.348 550.878 612.441C550.883 612.533 550.862 612.625 550.817 612.706C550.038 614.082 548.183 616.435 545.004 615.477C542.952 614.857 542.176 612.749 541.887 611.44C541.866 611.349 541.872 611.254 541.904 611.167C541.936 611.08 541.992 611.003 542.066 610.947C542.14 610.891 542.229 610.857 542.321 610.849C542.414 610.842 542.507 610.861 542.589 610.905Z" fill="white"/>
<path d="M542.44 600.326C543.075 600.326 543.589 599.812 543.589 599.177C543.589 598.543 543.075 598.028 542.44 598.028C541.806 598.028 541.291 598.543 541.291 599.177C541.291 599.812 541.806 600.326 542.44 600.326Z" fill="#0C0C0C"/>
<path d="M553.484 602.259C554.119 602.259 554.633 601.745 554.633 601.11C554.633 600.476 554.119 599.961 553.484 599.961C552.85 599.961 552.335 600.476 552.335 601.11C552.335 601.745 552.85 602.259 553.484 602.259Z" fill="#0C0C0C"/>
<path d="M519.262 685.633H519.284C519.331 685.627 519.373 685.602 519.401 685.564C519.43 685.527 519.442 685.479 519.435 685.433L517.404 664.963C517.401 664.94 517.394 664.918 517.382 664.897C517.37 664.877 517.355 664.859 517.336 664.845C517.317 664.831 517.296 664.821 517.273 664.815C517.25 664.809 517.227 664.808 517.204 664.812C517.181 664.815 517.158 664.823 517.138 664.835C517.118 664.846 517.1 664.862 517.086 664.881C517.072 664.899 517.062 664.92 517.056 664.943C517.05 664.966 517.049 664.989 517.052 665.012L519.083 685.482C519.09 685.525 519.112 685.563 519.144 685.591C519.177 685.619 519.219 685.634 519.262 685.633Z" fill="#0C0C0C"/>
<path d="M516.605 670.044H495.866V695.48H516.605V670.044Z" fill="white"/>
<path d="M508.113 682.762C508.113 681.082 508.612 679.44 509.545 678.044C510.479 676.647 511.806 675.559 513.358 674.916C514.91 674.274 516.618 674.106 518.265 674.434C519.912 674.762 521.426 675.571 522.613 676.759C523.801 677.947 524.61 679.461 524.937 681.108C525.265 682.756 525.096 684.463 524.453 686.015C523.81 687.567 522.721 688.893 521.325 689.827C519.928 690.76 518.286 691.258 516.606 691.258C514.354 691.255 512.195 690.359 510.602 688.766C509.01 687.174 508.115 685.014 508.113 682.762ZM511.591 682.762C511.591 683.754 511.885 684.723 512.436 685.548C512.987 686.373 513.771 687.015 514.687 687.395C515.603 687.774 516.611 687.874 517.584 687.68C518.557 687.487 519.45 687.009 520.152 686.308C520.853 685.607 521.331 684.713 521.524 683.74C521.718 682.768 521.618 681.759 521.239 680.843C520.859 679.927 520.216 679.144 519.392 678.593C518.567 678.042 517.598 677.748 516.606 677.748C515.276 677.749 514.002 678.278 513.062 679.218C512.122 680.158 511.593 681.433 511.591 682.762Z" fill="white"/>
<path d="M516.441 685.909C516.511 685.479 516.73 685.087 517.059 684.802C517.389 684.517 517.809 684.357 518.245 684.351C518.233 684.333 518.224 684.313 518.219 684.293L517.602 684.159C517.171 684.074 516.783 683.842 516.504 683.504C516.224 683.166 516.07 682.741 516.067 682.303C516.071 682.027 516.136 681.756 516.258 681.509C516.379 681.262 516.554 681.045 516.769 680.874C516.985 680.703 517.236 680.581 517.504 680.519C517.772 680.456 518.05 680.454 518.319 680.512L519.776 680.826C519.776 680.821 519.776 680.816 519.776 680.81C519.78 680.798 519.784 680.787 519.789 680.776C519.41 680.598 519.102 680.296 518.915 679.92C518.729 679.544 518.676 679.116 518.764 678.706C518.923 677.628 520.217 677.274 521.164 677.478L524.938 678.154L523.664 677.309C523.262 677.031 522.981 676.611 522.877 676.133C522.773 675.655 522.855 675.156 523.105 674.736C523.241 674.524 523.42 674.341 523.629 674.2C523.838 674.059 524.074 673.962 524.322 673.916C524.57 673.869 524.825 673.873 525.072 673.928C525.318 673.983 525.551 674.087 525.755 674.235L540.967 691.643L537.59 690.111C536.541 691.653 535.057 692.846 533.325 693.539C531.594 694.231 529.696 694.39 527.874 693.996L519.624 692.198C519.194 692.113 518.806 691.882 518.526 691.544C518.246 691.206 518.092 690.781 518.089 690.342C518.096 689.946 518.228 689.562 518.467 689.247C518.707 688.931 519.041 688.701 519.42 688.588C519.408 688.56 519.404 688.53 519.408 688.5C519.413 688.472 519.424 688.445 519.442 688.422C519.459 688.4 519.482 688.382 519.508 688.37L517.986 688.041C517.506 687.948 517.08 687.676 516.793 687.28C516.506 686.884 516.38 686.394 516.441 685.909Z" fill="#E98862"/>
<path opacity="0.2" d="M522.532 681.44C522.571 681.432 522.607 681.41 522.632 681.378C522.657 681.346 522.671 681.307 522.67 681.266C522.669 681.225 522.654 681.186 522.628 681.156C522.601 681.125 522.565 681.104 522.525 681.097L519.977 680.666C519.954 680.661 519.93 680.661 519.907 680.665C519.884 680.67 519.862 680.679 519.843 680.692C519.823 680.706 519.807 680.723 519.794 680.742C519.781 680.762 519.773 680.784 519.769 680.808C519.765 680.831 519.766 680.855 519.771 680.877C519.777 680.9 519.787 680.922 519.801 680.941C519.815 680.96 519.832 680.976 519.853 680.987C519.873 680.999 519.895 681.007 519.919 681.01L522.467 681.441C522.488 681.445 522.51 681.445 522.532 681.44Z" fill="#0C0C0C"/>
<path opacity="0.2" d="M521.917 685.044C521.957 685.036 521.992 685.014 522.017 684.982C522.043 684.95 522.056 684.911 522.056 684.87C522.055 684.83 522.04 684.791 522.014 684.76C521.988 684.729 521.952 684.708 521.912 684.701L518.421 684.082C518.398 684.077 518.374 684.076 518.351 684.08C518.327 684.085 518.305 684.093 518.285 684.107C518.266 684.12 518.249 684.137 518.236 684.156C518.223 684.176 518.214 684.198 518.21 684.222C518.206 684.245 518.206 684.269 518.212 684.292C518.217 684.315 518.227 684.337 518.241 684.356C518.255 684.375 518.273 684.391 518.293 684.403C518.314 684.415 518.337 684.423 518.36 684.426L521.851 685.045C521.873 685.049 521.895 685.049 521.917 685.044Z" fill="#0C0C0C"/>
<path opacity="0.2" d="M521.276 688.952C521.316 688.943 521.352 688.921 521.377 688.889C521.402 688.857 521.415 688.817 521.414 688.776C521.413 688.735 521.398 688.696 521.371 688.665C521.344 688.635 521.307 688.615 521.266 688.608L519.61 688.355C519.566 688.351 519.522 688.364 519.486 688.391C519.451 688.419 519.428 688.459 519.421 688.503C519.414 688.547 519.425 688.592 519.45 688.628C519.476 688.665 519.514 688.691 519.558 688.7L521.214 688.954C521.234 688.957 521.255 688.957 521.276 688.952Z" fill="#0C0C0C"/>
<path d="M607.254 683.758C597.922 697.179 584.51 707.232 569.011 712.426L569.005 712.42C565.562 711.746 532.722 698.779 528.377 697.928L533.131 675.753C545.336 678.182 567.596 687.544 579.87 689.982L571.211 650.719C570.897 648.984 570.931 647.205 571.31 645.484C571.689 643.763 572.406 642.134 573.419 640.692C574.433 639.25 575.722 638.023 577.213 637.084C578.704 636.144 580.367 635.509 582.105 635.217C583.843 634.925 585.622 634.98 587.338 635.381C589.055 635.781 590.675 636.518 592.104 637.549C593.533 638.58 594.744 639.885 595.665 641.387C596.586 642.89 597.2 644.56 597.471 646.302L607.254 683.758Z" fill="#EA394A"/>
<path d="M589.174 692.873C589.218 692.872 589.261 692.855 589.293 692.824C589.325 692.794 589.345 692.752 589.348 692.708C589.351 692.664 589.338 692.62 589.311 692.585C589.284 692.55 589.244 692.527 589.201 692.519L579.972 689.389C579.949 689.385 579.925 689.386 579.902 689.391C579.88 689.397 579.858 689.407 579.839 689.421C579.821 689.435 579.805 689.452 579.793 689.472C579.781 689.492 579.773 689.515 579.77 689.538C579.763 689.584 579.775 689.632 579.803 689.67C579.831 689.707 579.873 689.732 579.919 689.739L589.148 692.87C589.157 692.872 589.165 692.873 589.174 692.873Z" fill="#0C0C0C"/>
<path d="M580.114 689.539C580.119 689.594 580.102 689.65 580.066 689.693C580.046 689.712 580.022 689.726 579.995 689.734C579.968 689.743 579.94 689.745 579.912 689.74L533.427 676.02L528.768 697.844L568.798 712.49C568.674 712.532 568.543 712.573 568.419 712.614C568.33 712.644 568.242 712.674 568.147 712.698L528.508 698.143C528.463 698.131 528.424 698.102 528.4 698.063C528.376 698.023 528.368 697.976 528.378 697.93L533.131 675.755C533.137 675.733 533.147 675.712 533.161 675.693C533.176 675.675 533.193 675.66 533.214 675.649C533.233 675.635 533.256 675.626 533.279 675.622C533.303 675.618 533.327 675.619 533.35 675.625L579.723 689.363L574.474 667.718C574.467 667.672 574.479 667.625 574.507 667.587C574.535 667.55 574.576 667.525 574.622 667.517C574.645 667.512 574.668 667.513 574.691 667.517C574.714 667.522 574.736 667.531 574.755 667.544C574.774 667.558 574.791 667.574 574.804 667.594C574.816 667.614 574.825 667.636 574.829 667.659L580.114 689.539Z" fill="#0C0C0C"/>
<path d="M36.1062 706.629C36.0629 706.629 36.0201 706.62 35.9801 706.603C35.9408 706.587 35.9051 706.563 35.8751 706.532C35.8451 706.502 35.8214 706.466 35.8053 706.427C35.7892 706.387 35.781 706.345 35.7813 706.302C35.7815 706.259 35.7902 706.217 35.8067 706.178L48.534 675.926C48.5675 675.847 48.6312 675.784 48.711 675.752C48.7909 675.719 48.8803 675.72 48.9598 675.753C49.0392 675.787 49.102 675.851 49.1345 675.93C49.167 676.01 49.1664 676.1 49.1329 676.179L36.4056 706.429C36.3809 706.488 36.3393 706.539 36.286 706.574C36.2327 706.61 36.1702 706.629 36.1062 706.629Z" fill="#0C0C0C"/>
<path d="M108.331 700.853H108.317C108.274 700.855 108.232 700.848 108.192 700.834C108.151 700.819 108.115 700.797 108.083 700.768C108.052 700.739 108.026 700.705 108.008 700.666C107.99 700.627 107.98 700.586 107.978 700.543L106.559 669.602C106.558 669.517 106.589 669.435 106.647 669.371C106.704 669.308 106.783 669.269 106.868 669.263C106.911 669.261 106.954 669.267 106.994 669.281C107.034 669.296 107.071 669.318 107.102 669.347C107.134 669.376 107.16 669.411 107.178 669.449C107.196 669.488 107.206 669.53 107.208 669.572L108.627 700.513C108.631 700.597 108.602 700.679 108.547 700.742C108.492 700.806 108.415 700.845 108.331 700.853Z" fill="#0C0C0C"/>
</svg>
