<svg width="1098" height="826" viewBox="0 0 1098 826" fill="none" xmlns="http://www.w3.org/2000/svg">
<path d="M320.652 159.669L287.413 192.908L275.246 147.502L320.652 159.669Z" fill="#50C878"/>
<path d="M543.646 784.637L584.355 761.133L584.355 808.141L543.646 784.637Z" fill="#50C878"/>
<path d="M96.8573 471.082L130.097 504.322L84.6908 516.488L96.8573 471.082Z" fill="#50C878"/>
<path d="M749.05 148.578L772.554 107.868L796.058 148.578L749.05 148.578Z" fill="#50C878"/>
<path d="M1006.52 514.644L994.352 469.238L1039.76 481.405L1006.52 514.644Z" fill="#50C878"/>
<path d="M1097.25 236.848C1096.73 250.024 1093.03 262.878 1086.46 274.312C1079.89 285.746 1070.65 295.42 1059.53 302.506C1048.41 309.592 1035.74 313.881 1022.6 315.005C1009.46 316.129 996.246 314.055 984.083 308.961C978.378 306.57 972.968 303.531 967.958 299.903C958.384 292.99 950.415 284.092 944.597 273.815V273.806C938.393 262.815 934.822 250.535 934.165 237.931C933.508 225.327 935.783 212.743 940.811 201.166C945.838 189.589 953.481 179.336 963.14 171.212C972.799 163.088 984.21 157.314 996.477 154.344C1008.74 151.375 1021.53 151.289 1033.84 154.096C1046.14 156.903 1057.63 162.524 1067.39 170.519C1077.16 178.514 1084.94 188.665 1090.12 200.173C1095.3 211.682 1097.74 224.235 1097.25 236.847L1097.25 236.848Z" fill="white"/>
<path opacity="0.09" d="M1097.25 236.848C1096.73 250.024 1093.03 262.878 1086.46 274.312C1079.89 285.746 1070.65 295.42 1059.53 302.506C1048.41 309.592 1035.74 313.881 1022.6 315.005C1009.46 316.129 996.246 314.055 984.083 308.961C978.378 306.57 972.968 303.531 967.958 299.903C958.384 292.99 950.415 284.092 944.597 273.815V273.806C938.393 262.815 934.822 250.535 934.165 237.931C933.508 225.327 935.783 212.743 940.811 201.166C945.838 189.589 953.481 179.336 963.14 171.212C972.799 163.088 984.21 157.314 996.477 154.344C1008.74 151.375 1021.53 151.289 1033.84 154.096C1046.14 156.903 1057.63 162.524 1067.39 170.519C1077.16 178.514 1084.94 188.665 1090.12 200.173C1095.3 211.682 1097.74 224.235 1097.25 236.847L1097.25 236.848Z" fill="#367CFF"/>
<path d="M1034.99 171.517C1034.99 171.517 1054.5 171.756 1047.77 198.65L1045.94 198.74L1042.22 198.921" fill="#0C0C0C"/>
<path d="M1013.19 226.867C1013.29 226.858 1013.65 243.634 1033.14 242.929C1046.64 242.443 1052 228.349 1052.31 228.36C1050.87 227.996 1048.44 227.451 1047.81 227.083C1045.73 225.863 1043.16 224.576 1042.63 220.433C1042.33 218.045 1043.47 205.935 1043.36 203.527L1022.52 207.337C1022.61 212.418 1024.18 224.247 1017.01 226.052C1015.82 226.351 1014.54 226.618 1013.19 226.867Z" fill="#E98862"/>
<path opacity="0.52" d="M1021.68 221.424C1022.04 220.394 1022.3 219.326 1022.43 218.241C1022.75 215.766 1022.8 213.264 1022.58 210.777C1026.8 210.374 1030.83 208.794 1034.19 206.218C1034.52 207.647 1036.39 213.922 1035.75 215.246C1034.55 217.75 1029.2 221.716 1021.68 221.424Z" fill="#0C0C0C"/>
<path d="M1026.41 218.46C1034.58 217.875 1044.44 212.902 1044.78 201.831L1045.09 191.845C1045.43 180.776 1039.89 171.623 1029.47 171.301C1019.05 170.976 1010.98 179.71 1010.64 190.779L1010.51 195.2C1010.48 196.72 1010.57 198.239 1010.75 199.747C1011.22 203.735 1011.93 209.799 1014.56 213.94C1017.04 217.849 1021.19 218.832 1026.41 218.46Z" fill="#E98862"/>
<path d="M1044.03 205.186C1047.19 205.283 1049.87 201.974 1049.96 198.808C1050.06 195.641 1047.55 193.815 1044.38 193.717L1042.68 195.788L1041.3 205.101L1044.03 205.186Z" fill="#E98862"/>
<path d="M1011.18 203.09C1011.75 203.769 1012.48 204.293 1013.31 204.616C1014.14 204.939 1015.03 205.05 1015.91 204.939C1017.79 204.702 1019.04 205.475 1020.62 205.32C1021.94 205.19 1022.16 204.58 1024.42 204.447C1033.11 203.932 1039.64 203.383 1040.06 192.472L1045.6 187.556C1045.6 187.556 1048.07 217.794 1031.71 221.814C1021.66 224.282 1012.24 223.38 1011.03 213.941C1010.04 206.272 1011.18 203.09 1011.18 203.09Z" fill="#0C0C0C"/>
<path d="M1015.3 196.775C1016.01 196.775 1016.58 196.2 1016.58 195.49C1016.58 194.781 1016.01 194.206 1015.3 194.206C1014.59 194.206 1014.01 194.781 1014.01 195.49C1014.01 196.2 1014.59 196.775 1015.3 196.775Z" fill="#0C0C0C"/>
<path d="M1026.77 196.536C1027.48 196.536 1028.05 195.961 1028.05 195.251C1028.05 194.542 1027.48 193.967 1026.77 193.967C1026.06 193.967 1025.49 194.542 1025.49 195.251C1025.49 195.961 1026.06 196.536 1026.77 196.536Z" fill="#0C0C0C"/>
<path d="M1040.97 200.037C1040.97 200.037 1040.18 184.353 1035.45 183.299C1032.3 182.597 1024.55 186.945 1017.46 185.46C1014.37 184.811 1011.4 185.525 1011.07 186.989C1010.94 187.569 1008.49 182.43 1013.48 176.178C1017.45 171.199 1030.35 169.799 1036.09 171.559C1051.99 176.435 1045.02 194.419 1045.02 194.419L1044.21 199.806L1040.97 200.037Z" fill="#0C0C0C"/>
<path d="M1048.19 187.391C1052.87 187.391 1056.66 183.598 1056.66 178.92C1056.66 174.241 1052.87 170.448 1048.19 170.448C1043.51 170.448 1039.72 174.241 1039.72 178.92C1039.72 183.598 1043.51 187.391 1048.19 187.391Z" fill="#0C0C0C"/>
<g opacity="0.52">
<path d="M1020.77 204.815H1020.75C1019.73 204.786 1018.02 204.623 1018.04 203.86C1018.06 203.228 1019.99 196.448 1020.21 195.676C1020.22 195.61 1020.27 195.553 1020.33 195.52C1020.39 195.486 1020.46 195.478 1020.53 195.497C1020.59 195.516 1020.65 195.56 1020.68 195.621C1020.72 195.681 1020.72 195.752 1020.71 195.818C1019.85 198.821 1018.58 203.445 1018.56 203.873C1018.66 204.056 1019.71 204.262 1020.77 204.293C1020.83 204.292 1020.9 204.319 1020.95 204.367C1021 204.415 1021.03 204.481 1021.03 204.55C1021.03 204.619 1021 204.685 1020.95 204.734C1020.91 204.784 1020.84 204.812 1020.77 204.812V204.815Z" fill="#0C0C0C"/>
</g>
<path d="M1017.66 191.128C1016.61 190.816 1015.49 190.793 1014.43 191.063C1013.9 191.192 1013.4 191.399 1012.94 191.677C1012.48 191.95 1012.05 192.28 1011.68 192.659C1011.61 192.717 1011.57 192.799 1011.57 192.887C1011.56 192.974 1011.59 193.06 1011.65 193.125C1011.71 193.19 1011.79 193.229 1011.88 193.234C1011.97 193.239 1012.05 193.209 1012.12 193.151L1012.14 193.134C1012.49 192.818 1012.88 192.547 1013.3 192.328C1013.71 192.11 1014.15 191.955 1014.61 191.869C1015.51 191.692 1016.45 191.758 1017.32 192.058L1017.35 192.07C1017.41 192.094 1017.48 192.106 1017.54 192.104C1017.61 192.102 1017.67 192.087 1017.73 192.06C1017.79 192.033 1017.85 191.994 1017.89 191.946C1017.94 191.897 1017.97 191.841 1017.99 191.779C1018.02 191.717 1018.03 191.651 1018.02 191.585C1018.02 191.52 1018 191.455 1017.98 191.395C1017.95 191.336 1017.91 191.283 1017.86 191.238C1017.81 191.194 1017.75 191.161 1017.69 191.139L1017.66 191.128Z" fill="#0C0C0C"/>
<path d="M1025.23 192.059C1026.07 191.675 1026.99 191.519 1027.91 191.608C1028.37 191.648 1028.83 191.759 1029.26 191.937C1029.69 192.114 1030.11 192.346 1030.49 192.626L1030.51 192.64C1030.58 192.686 1030.66 192.704 1030.75 192.689C1030.83 192.673 1030.9 192.627 1030.95 192.559C1031 192.491 1031.03 192.406 1031.02 192.323C1031 192.239 1030.96 192.163 1030.9 192.109C1030.49 191.769 1030.03 191.481 1029.55 191.254C1029.06 191.022 1028.54 190.865 1028.01 190.787C1026.92 190.623 1025.81 190.755 1024.79 191.168C1024.67 191.22 1024.58 191.317 1024.53 191.438C1024.48 191.559 1024.48 191.694 1024.53 191.814C1024.58 191.935 1024.67 192.031 1024.79 192.081C1024.91 192.132 1025.05 192.133 1025.17 192.085L1025.19 192.075L1025.23 192.059Z" fill="#0C0C0C"/>
<path d="M1077.25 268.754C1076.53 274.238 1075.82 281.771 1075.19 289.56C1072.71 292.193 1070.07 294.659 1067.27 296.943C1065.49 298.388 1063.65 299.762 1061.76 301.065C1051.52 308.054 1039.83 312.625 1027.56 314.43C1015.3 316.236 1002.78 315.23 990.962 311.487C990.801 304.253 990.581 294.494 990.363 285.554C990.113 275.241 989.86 266.007 989.724 262.973C989.164 250.931 985.973 242.897 988.386 236.327C989.107 234.383 990.267 232.631 991.776 231.207C997.397 225.705 1011.36 225.83 1016.96 226.048C1017.06 226.052 1015.33 238.978 1033.76 238.822C1047.3 238.711 1048.32 227.264 1048.32 227.264C1048.32 227.264 1054.99 227.959 1059.43 228.728C1066.68 229.998 1071.39 232.658 1075.06 236.629C1078.48 240.332 1080.5 244.263 1077.25 268.754Z" fill="#367CFF"/>
<path d="M968.915 227.323L969.472 213.529C969.485 213.226 969.434 212.923 969.323 212.641C969.213 212.358 969.044 212.102 968.829 211.888C968.613 211.674 968.355 211.507 968.072 211.398C967.789 211.29 967.486 211.241 967.182 211.256C966.624 211.301 966.102 211.552 965.718 211.96C965.334 212.368 965.115 212.904 965.104 213.464L964.984 216.422L961.089 206.95C960.674 205.889 959.487 204.853 958.328 205.396C957.868 205.576 957.483 205.907 957.235 206.334C956.987 206.761 956.892 207.259 956.964 207.748C956.953 207.749 956.942 207.752 956.931 207.755C956.924 207.759 956.917 207.764 956.91 207.769L956.271 206.134C956.153 205.831 955.968 205.558 955.731 205.335C955.493 205.113 955.21 204.946 954.9 204.847C954.59 204.748 954.262 204.72 953.939 204.764C953.617 204.808 953.309 204.923 953.036 205.101C952.614 205.391 952.303 205.817 952.156 206.308C952.01 206.799 952.036 207.325 952.232 207.799L952.504 208.495C952.487 208.512 952.474 208.532 952.464 208.554C952.171 208.127 951.736 207.818 951.237 207.682C950.737 207.546 950.205 207.592 949.736 207.811C949.23 208.068 948.839 208.505 948.641 209.037C948.444 209.569 948.454 210.156 948.67 210.68L949.345 212.41C949.318 212.392 949.288 212.381 949.256 212.377C949.224 212.373 949.192 212.377 949.162 212.389C949.127 212.404 949.097 212.43 949.076 212.462C948.71 212.153 948.252 211.974 947.773 211.951C947.295 211.928 946.822 212.063 946.427 212.335C946.019 212.629 945.722 213.053 945.584 213.537C945.447 214.021 945.476 214.537 945.669 215.003L951.37 229.591C952.167 231.632 953.556 233.388 955.358 234.634C957.16 235.881 959.293 236.56 961.484 236.586C963.374 236.609 965.197 235.894 966.568 234.593C967.938 233.292 968.748 231.509 968.824 229.621L968.915 227.323Z" fill="#E98862"/>
<g opacity="0.2">
<path d="M960.771 217.143C960.721 217.162 960.667 217.161 960.618 217.14C960.569 217.12 960.531 217.08 960.511 217.032L956.82 208.018C956.808 207.993 956.801 207.966 956.8 207.939C956.799 207.911 956.804 207.884 956.814 207.858C956.824 207.833 956.839 207.81 956.858 207.79C956.878 207.771 956.901 207.755 956.926 207.745C956.951 207.734 956.978 207.729 957.006 207.73C957.033 207.73 957.06 207.736 957.085 207.748C957.11 207.759 957.133 207.775 957.151 207.795C957.17 207.815 957.184 207.839 957.193 207.865L960.884 216.879C960.894 216.903 960.9 216.93 960.899 216.956C960.899 216.983 960.894 217.009 960.884 217.033C960.874 217.058 960.859 217.08 960.84 217.099C960.821 217.117 960.799 217.132 960.774 217.142L960.771 217.143Z" fill="#0C0C0C"/>
</g>
<g opacity="0.2">
<path d="M956.841 218.881C956.791 218.901 956.736 218.9 956.688 218.879C956.639 218.858 956.6 218.818 956.581 218.769L952.461 208.709C952.442 208.66 952.443 208.606 952.463 208.557C952.484 208.508 952.523 208.47 952.572 208.45C952.621 208.432 952.675 208.434 952.723 208.454C952.771 208.474 952.81 208.512 952.831 208.559L956.951 218.619C956.971 218.669 956.971 218.724 956.95 218.773C956.929 218.823 956.89 218.862 956.841 218.882V218.881Z" fill="#0C0C0C"/>
</g>
<g opacity="0.2">
<path d="M952.594 220.788C952.545 220.807 952.49 220.806 952.441 220.785C952.392 220.764 952.354 220.725 952.334 220.676L949.048 212.652C949.028 212.602 949.028 212.547 949.049 212.498C949.07 212.448 949.109 212.409 949.158 212.389C949.208 212.369 949.263 212.369 949.312 212.39C949.362 212.41 949.401 212.45 949.421 212.499L952.709 220.521C952.729 220.571 952.729 220.626 952.708 220.675C952.688 220.725 952.648 220.764 952.599 220.784L952.594 220.788Z" fill="#0C0C0C"/>
</g>
<path d="M1014.57 248.948L981.004 300.558C979.783 302.434 978.148 304.005 976.224 305.151C973.363 303.573 970.603 301.821 967.957 299.903C962.319 295.835 957.225 291.063 952.797 285.703L945.746 231.034L973.964 226.512L977.182 252.827L990.074 233.007L1014.57 248.948Z" fill="#367CFF"/>
<path d="M1018.51 207.631C1021.59 207.836 1024.65 207.008 1027.2 205.279C1027.29 205.219 1027.4 205.186 1027.5 205.184C1027.61 205.181 1027.72 205.209 1027.81 205.264C1027.9 205.319 1027.97 205.399 1028.02 205.494C1028.07 205.59 1028.09 205.697 1028.08 205.803C1027.87 207.622 1026.97 210.967 1023.16 211.393C1020.69 211.668 1018.91 209.776 1018.01 208.518C1017.95 208.431 1017.91 208.328 1017.9 208.221C1017.9 208.114 1017.92 208.008 1017.98 207.915C1018.03 207.821 1018.11 207.745 1018.2 207.695C1018.3 207.645 1018.4 207.623 1018.51 207.631Z" fill="white"/>
<path d="M1086.36 274.555C1081.4 283.108 1074.93 290.692 1067.27 296.943C1065.49 298.388 1063.65 299.762 1061.76 301.065L1048.65 251.185L1078.18 243.419L1086.36 274.555Z" fill="#367CFF"/>
<path d="M1062.05 300.87C1061.95 300.931 1061.85 301 1061.76 301.065C1061.67 301.13 1061.57 301.195 1061.48 301.255L1051.49 263.257L1052.12 263.093L1062.05 300.87Z" fill="#0C0C0C"/>
<path d="M990.441 287.903C990.36 287.9 990.283 287.866 990.225 287.809C990.168 287.752 990.134 287.675 990.13 287.594L989.486 273.433C989.482 273.347 989.512 273.263 989.57 273.2C989.629 273.136 989.71 273.098 989.796 273.094C989.882 273.09 989.966 273.121 990.03 273.179C990.093 273.237 990.131 273.318 990.135 273.404L990.779 287.564C990.783 287.65 990.752 287.734 990.695 287.798C990.637 287.861 990.556 287.899 990.47 287.903H990.441Z" fill="#0C0C0C"/>
<path d="M563.999 167.044C609.959 167.044 647.216 129.787 647.216 83.8273C647.216 37.8678 609.959 0.610352 563.999 0.610352C518.04 0.610352 480.782 37.8678 480.782 83.8273C480.782 129.787 518.04 167.044 563.999 167.044Z" fill="white"/>
<path opacity="0.09" d="M647.217 83.8254C647.217 100.284 642.337 116.373 633.193 130.058C624.049 143.742 611.053 154.408 595.847 160.707C580.641 167.005 563.91 168.653 547.767 165.442C531.625 162.231 516.797 154.306 505.159 142.668C493.522 131.03 485.596 116.202 482.385 100.06C479.174 83.9177 480.822 67.1858 487.121 51.9801C493.419 36.7744 504.085 23.7779 517.77 14.6341C531.454 5.49022 547.543 0.609697 564.002 0.609697C574.941 0.569256 585.78 2.69409 595.895 6.86174C606.009 11.0294 615.199 17.1575 622.934 24.8928C630.67 32.6282 636.798 41.8179 640.965 51.9323C645.133 62.0468 647.258 72.886 647.217 83.8254Z" fill="#367CFF"/>
<path d="M527.164 34.7441C527.164 34.7441 526.327 47.3064 523.5 51.8642C515.364 64.9851 513.007 79.7461 521.155 87.4595C529.303 95.1729 581.274 95.2788 585.211 77.5409C588.523 62.6078 581.412 61.0021 579.682 48.6834C578.898 43.1096 576.744 31.4216 576.744 31.4216" fill="#0A0A0A"/>
<path d="M571.758 74.9383C571.668 74.9266 570.673 91.4453 551.483 90.0078C538.198 89.0127 533.462 74.9175 533.157 74.9175C534.589 74.6135 537.001 74.1705 537.639 73.8315C539.731 72.7071 542.319 71.5379 542.993 67.475C543.383 65.1366 542.723 53.155 542.928 50.7861L563.32 55.3375C563.036 60.339 561.041 71.94 568.031 73.9926C569.19 74.3297 570.443 74.6421 571.758 74.9383Z" fill="#E98862"/>
<path opacity="0.5" d="M563.603 69.2495C563.284 68.2199 563.078 67.1586 562.99 66.0843C562.765 63.633 562.81 61.1645 563.123 58.723C558.978 58.164 555.073 56.4537 551.852 53.7864C551.474 55.1849 549.391 61.2952 549.969 62.6248C551.061 65.1353 556.179 69.2495 563.603 69.2495Z" fill="#0C0C0C"/>
<path d="M560.966 64.1034C552.926 64.8829 542.523 61.665 540.369 50.9585L538.424 41.2978C536.269 30.5913 540.146 20.7798 550.226 18.7513C560.307 16.7221 569.589 23.8827 571.744 34.5918L572.605 38.8684C573.432 42.9768 575.311 62.7153 560.966 64.1034Z" fill="#E98862"/>
<path opacity="0.1" d="M555.855 50.0755C557.178 49.9177 558.157 49.0028 558.041 48.0321C557.925 47.0615 556.759 46.4025 555.436 46.5604C554.113 46.7182 553.134 47.6331 553.25 48.6038C553.366 49.5744 554.532 50.2333 555.855 50.0755Z" fill="#0C0C0C"/>
<path opacity="0.1" d="M569.836 46.1935C569.955 47.162 571.121 47.8174 572.444 47.6641C572.673 47.6367 572.898 47.5858 573.116 47.5121C573.178 46.3566 573.181 45.2445 573.148 44.2156C572.78 44.124 572.399 44.102 572.023 44.1507C570.7 44.3059 569.722 45.2205 569.836 46.1935Z" fill="#0C0C0C"/>
<path opacity="0.5" d="M563.991 49.1885H564.01C564.418 49.1025 564.822 48.994 565.218 48.8637C565.81 48.6688 566.582 48.3408 566.477 47.8056C566.354 47.195 563.359 40.9496 563.017 40.239C562.985 40.1807 562.932 40.1369 562.868 40.1167C562.805 40.0964 562.736 40.1011 562.677 40.1299C562.617 40.1587 562.57 40.2093 562.546 40.2714C562.523 40.3335 562.524 40.4023 562.549 40.4637C563.827 43.1269 565.885 47.4971 565.968 47.9076C565.903 48.0992 564.921 48.4733 563.907 48.6779C563.843 48.6927 563.787 48.7314 563.75 48.7862C563.713 48.8409 563.698 48.9077 563.709 48.9728C563.72 49.038 563.755 49.0966 563.807 49.1369C563.859 49.1772 563.925 49.1961 563.991 49.1898V49.1885Z" fill="#0C0C0C"/>
<path d="M530.381 44.7656L539.419 43.0001C546.246 40.1421 548.182 28.2476 548.182 28.2476C548.182 28.2476 556.608 36.2715 576.744 31.4193C576.744 31.4193 572.37 3.30944 542.637 11.8419C533.05 14.5928 526.259 24.3652 527.269 37.3081C527.976 46.3804 530.381 44.7656 530.381 44.7656Z" fill="#0A0A0A"/>
<path d="M541.651 54.095C538.588 54.7114 535.445 51.934 534.831 48.87C534.217 45.8061 536.357 43.6172 539.421 43.0007L541.413 44.7357L544.288 53.565L541.651 54.095Z" fill="#E98862"/>
<path d="M565.189 35.2579C565.955 34.7152 566.852 34.3857 567.787 34.3031C568.257 34.2583 568.73 34.2843 569.192 34.3804C569.658 34.4751 570.11 34.6279 570.538 34.8351L570.552 34.8409C570.599 34.86 570.651 34.8602 570.699 34.8417C570.746 34.8232 570.784 34.7872 570.806 34.7412C570.828 34.6952 570.831 34.6427 570.815 34.5944C570.799 34.5462 570.765 34.5058 570.72 34.4817C570.267 34.2423 569.786 34.0612 569.287 33.9426C568.785 33.8203 568.268 33.7743 567.752 33.8062C566.708 33.864 565.699 34.2005 564.829 34.7805C564.795 34.8019 564.766 34.8299 564.744 34.8628C564.721 34.8957 564.705 34.9329 564.697 34.972C564.689 35.0111 564.689 35.0515 564.697 35.0907C564.705 35.1299 564.72 35.1671 564.743 35.2001C564.765 35.2331 564.794 35.2612 564.828 35.2828C564.861 35.3045 564.899 35.3191 564.938 35.3259C564.978 35.3327 565.018 35.3315 565.057 35.3224C565.096 35.3133 565.133 35.2964 565.165 35.2729L565.171 35.2683L565.189 35.2579Z" fill="#0C0C0C"/>
<path d="M556.933 36.3993C555.907 36.1953 554.845 36.2705 553.858 36.6169C553.37 36.7851 552.91 37.026 552.494 37.3314C552.079 37.6323 551.703 37.9841 551.376 38.3785C551.342 38.4178 551.326 38.4684 551.329 38.5198C551.332 38.5711 551.355 38.6192 551.393 38.6538C551.432 38.6885 551.482 38.7071 551.533 38.7056C551.584 38.7042 551.633 38.6829 551.669 38.6461L551.68 38.6351C551.995 38.2793 552.354 37.9648 552.748 37.6991C553.138 37.433 553.566 37.2274 554.017 37.0891C554.913 36.8082 555.867 36.7695 556.783 36.9768L556.805 36.982C556.844 36.9921 556.884 36.9946 556.923 36.9891C556.962 36.9836 557 36.9703 557.034 36.95C557.068 36.9297 557.098 36.9028 557.122 36.8708C557.145 36.8389 557.162 36.8026 557.172 36.764C557.181 36.7254 557.182 36.6853 557.176 36.6461C557.17 36.6069 557.156 36.5694 557.135 36.5357C557.114 36.5021 557.086 36.473 557.053 36.4501C557.021 36.4272 556.984 36.4111 556.946 36.4026L556.933 36.3993Z" fill="#0C0C0C"/>
<path d="M539.424 42.8525C545.499 40.5914 547.515 36.396 548.137 33.2736C548.538 31.1914 548.5 29.0483 548.026 26.9814L547.838 27.0334C548.305 29.0733 548.341 31.1884 547.944 33.2431C547.331 36.3135 545.345 40.4421 539.356 42.67L539.424 42.8525Z" fill="#0C0C0C"/>
<path d="M616.235 71.6479L619.872 59.3064C619.952 59.0353 620.088 58.7838 620.27 58.5679C620.453 58.352 620.678 58.1765 620.932 58.0524C621.186 57.9284 621.463 57.8586 621.745 57.8475C622.028 57.8364 622.309 57.8842 622.572 57.9878C623.052 58.1944 623.438 58.5717 623.655 59.0464C623.872 59.5212 623.905 60.0597 623.748 60.5575L622.968 63.2037L629.238 56.008C629.921 55.1954 631.279 54.6355 632.14 55.4624C632.492 55.7587 632.733 56.1655 632.824 56.6166C632.915 57.0676 632.85 57.5361 632.64 57.9456C632.65 57.95 632.658 57.9555 632.666 57.9619C632.672 57.9676 632.677 57.9739 632.681 57.9807L633.734 56.7277C633.93 56.4959 634.174 56.3106 634.45 56.1852C634.726 56.0599 635.027 55.9976 635.33 56.0031C635.633 56.0086 635.931 56.0816 636.202 56.2169C636.473 56.3521 636.711 56.5462 636.898 56.7849C637.184 57.1667 637.331 57.6354 637.313 58.1125C637.296 58.5896 637.115 59.0461 636.801 59.4058L636.353 59.9391C636.363 59.9594 636.368 59.9815 636.37 60.004C636.756 59.7144 637.233 59.5716 637.715 59.6012C638.197 59.6309 638.653 59.831 639.001 60.1658C639.371 60.5432 639.585 61.0463 639.601 61.5748C639.616 62.1033 639.432 62.6182 639.085 63.0167L637.971 64.3404C638 64.3326 638.03 64.3319 638.059 64.3382C638.088 64.3445 638.116 64.3578 638.139 64.3768C638.165 64.4011 638.184 64.4324 638.193 64.4671C638.609 64.3049 639.067 64.2842 639.496 64.408C639.926 64.5318 640.302 64.7934 640.568 65.1524C640.84 65.5343 640.975 65.9969 640.952 66.4653C640.928 66.9336 640.747 67.3803 640.438 67.733L631.043 78.9053C629.729 80.4678 627.978 81.6022 626.014 82.163C624.051 82.7238 621.965 82.6855 620.024 82.053C618.35 81.5078 616.954 80.3313 616.134 78.7735C615.314 77.2158 615.133 75.3996 615.631 73.7108L616.235 71.6479Z" fill="#E98862"/>
<g opacity="0.2">
<path d="M626.467 65.1021C626.504 65.1326 626.552 65.1474 626.601 65.1434C626.649 65.1394 626.694 65.1169 626.726 65.0807L632.68 58.2299C632.713 58.1923 632.729 58.1432 632.726 58.0935C632.722 58.0438 632.699 57.9975 632.661 57.9649C632.624 57.9322 632.575 57.9159 632.525 57.9194C632.475 57.923 632.429 57.9461 632.396 57.9837L626.442 64.8339C626.426 64.8525 626.414 64.8741 626.406 64.8975C626.398 64.9209 626.395 64.9457 626.397 64.9703C626.399 64.9949 626.405 65.0189 626.416 65.041C626.427 65.0631 626.443 65.0827 626.461 65.0989L626.467 65.1021Z" fill="#0C0C0C"/>
</g>
<g opacity="0.2">
<path d="M629.415 67.8108C629.453 67.8416 629.501 67.8566 629.549 67.8526C629.598 67.8486 629.643 67.8259 629.675 67.7894L636.319 60.1442C636.335 60.1256 636.348 60.1039 636.355 60.0805C636.363 60.0571 636.366 60.0324 636.365 60.0078C636.363 59.9832 636.356 59.9592 636.345 59.9371C636.334 59.915 636.319 59.8953 636.3 59.8792C636.262 59.8482 636.213 59.8329 636.164 59.8364C636.115 59.8399 636.069 59.8619 636.035 59.898L629.396 67.5432C629.379 67.5619 629.367 67.5835 629.359 67.6069C629.351 67.6303 629.348 67.655 629.35 67.6796C629.352 67.7042 629.358 67.7283 629.369 67.7503C629.381 67.7724 629.396 67.7921 629.414 67.8082L629.415 67.8108Z" fill="#0C0C0C"/>
</g>
<g opacity="0.2">
<path d="M632.592 70.7636C632.63 70.7944 632.678 70.8094 632.726 70.8054C632.775 70.8014 632.82 70.7787 632.852 70.7422L638.152 64.6442C638.182 64.6062 638.196 64.5583 638.191 64.5104C638.186 64.4625 638.163 64.4181 638.127 64.3865C638.091 64.3549 638.044 64.3385 637.995 64.3405C637.947 64.3425 637.902 64.3629 637.868 64.3974L632.568 70.496C632.552 70.5147 632.539 70.5363 632.532 70.5597C632.524 70.5831 632.521 70.6078 632.522 70.6324C632.524 70.6571 632.531 70.6811 632.542 70.7032C632.553 70.7252 632.568 70.7449 632.587 70.761L632.592 70.7636Z" fill="#0C0C0C"/>
</g>
<path d="M638.372 77.0357L624.309 140.834C624.277 140.977 624.244 141.127 624.205 141.27C621.047 144.575 617.626 147.618 613.975 150.369C613.241 150.915 612.507 151.455 611.753 151.974C611.288 152.026 610.819 152.052 610.35 152.052C607.844 152.051 605.382 151.391 603.211 150.138C601.04 148.885 599.237 147.084 597.983 144.914L571.183 98.5397L595.93 84.2438L604.316 98.7547L610.461 70.8826L638.372 77.0357Z" fill="#0CBC8B"/>
<path d="M595.092 106.123C595.007 107.135 594.839 108.942 594.605 111.319C593.436 123.472 590.701 150.558 589.434 163.075C573.433 168.19 556.261 168.365 540.16 163.575H540.153C528.262 160.016 517.319 153.837 508.13 145.492C508.182 134.3 508.02 121.712 507.266 113.618C505.012 89.435 507.143 85.6487 510.644 82.1477C510.93 81.8619 511.229 81.5826 511.527 81.3098C515.145 78.0231 519.686 75.8795 526.305 74.9825C530.683 74.3921 537.269 73.9634 537.269 73.9634C537.269 73.9634 537.828 85.2519 551.124 85.8754C569.227 86.727 568.019 73.9634 568.11 73.9634C572.663 73.9634 582.796 74.2492 589.187 77.5034C589.194 77.5034 589.194 77.5034 589.2 77.5099C590.488 78.1363 591.658 78.9776 592.663 79.9977C599.983 87.7533 596.372 91.0699 595.092 106.123Z" fill="#0CBC8B"/>
<path d="M566.684 51.2991C564.072 52.6272 561.091 53.0473 558.214 52.493C558.114 52.4741 558.011 52.484 557.917 52.5215C557.823 52.559 557.741 52.6226 557.682 52.7047C557.622 52.7869 557.588 52.8843 557.582 52.9855C557.575 53.0867 557.598 53.1876 557.647 53.2763C558.507 54.7878 560.541 57.3724 564.031 56.3195C566.285 55.6394 567.137 53.3205 567.453 51.8856C567.475 51.7864 567.468 51.6829 567.433 51.5875C567.398 51.4921 567.336 51.4087 567.256 51.347C567.175 51.2854 567.078 51.2482 566.977 51.2397C566.876 51.2312 566.774 51.2518 566.684 51.2991Z" fill="white"/>
<path d="M566.849 39.6811C567.546 39.6811 568.111 39.1161 568.111 38.4191C568.111 37.722 567.546 37.157 566.849 37.157C566.152 37.157 565.586 37.722 565.586 38.4191C565.586 39.1161 566.152 39.6811 566.849 39.6811Z" fill="#0C0C0C"/>
<path d="M554.719 41.8044C555.416 41.8044 555.981 41.2394 555.981 40.5423C555.981 39.8453 555.416 39.2803 554.719 39.2803C554.022 39.2803 553.457 39.8453 553.457 40.5423C553.457 41.2394 554.022 41.8044 554.719 41.8044Z" fill="#0C0C0C"/>
<path d="M592.301 133.367C592.293 133.368 592.285 133.368 592.276 133.367C592.225 133.36 592.179 133.333 592.148 133.292C592.117 133.251 592.103 133.199 592.11 133.148L594.341 110.668C594.344 110.642 594.353 110.617 594.365 110.595C594.378 110.572 594.395 110.553 594.416 110.537C594.437 110.522 594.46 110.511 594.485 110.504C594.51 110.498 594.536 110.497 594.562 110.501C594.613 110.508 594.659 110.535 594.69 110.577C594.721 110.618 594.735 110.67 594.728 110.721L592.497 133.201C592.49 133.248 592.466 133.29 592.43 133.321C592.394 133.351 592.348 133.368 592.301 133.367Z" fill="#0C0C0C"/>
<path d="M578.796 132.285L590.991 126.839C591.259 126.719 591.549 126.657 591.842 126.656C592.135 126.655 592.425 126.715 592.694 126.832C592.962 126.949 593.204 127.12 593.403 127.336C593.602 127.551 593.754 127.805 593.849 128.082C594.01 128.6 593.972 129.159 593.744 129.65C593.516 130.141 593.114 130.531 592.615 130.742L590 131.912L599.909 132.013C601.014 132.006 602.369 132.701 602.296 133.937C602.299 134.415 602.14 134.88 601.845 135.256C601.55 135.632 601.137 135.896 600.672 136.007C600.675 136.017 600.676 136.028 600.677 136.038C600.675 136.046 600.674 136.054 600.672 136.062L602.371 136.05C602.686 136.048 602.996 136.116 603.281 136.25C603.566 136.383 603.817 136.578 604.017 136.821C604.217 137.063 604.361 137.347 604.437 137.652C604.513 137.957 604.52 138.276 604.458 138.584C604.349 139.067 604.078 139.499 603.689 139.806C603.301 140.114 602.818 140.278 602.322 140.272L601.6 140.278C601.59 140.299 601.577 140.318 601.561 140.334C602.05 140.444 602.484 140.724 602.786 141.125C603.087 141.526 603.237 142.021 603.207 142.521C603.158 143.068 602.905 143.576 602.498 143.945C602.091 144.313 601.561 144.514 601.012 144.509L599.216 144.521C599.241 144.539 599.262 144.562 599.277 144.59C599.291 144.617 599.299 144.648 599.299 144.679C599.298 144.716 599.286 144.751 599.265 144.782C599.674 145.001 600 145.349 600.192 145.771C600.384 146.194 600.432 146.668 600.328 147.12C600.21 147.593 599.936 148.011 599.551 148.309C599.165 148.606 598.691 148.765 598.204 148.759L583.05 148.867C580.93 148.882 578.854 148.263 577.088 147.091C575.322 145.918 573.946 144.245 573.137 142.285C572.439 140.596 572.427 138.701 573.105 137.002C573.782 135.304 575.095 133.937 576.764 133.192L578.796 132.285Z" fill="#E98862"/>
<g opacity="0.2">
<path d="M590.864 135.954C590.864 136.005 590.884 136.055 590.921 136.091C590.957 136.128 591.007 136.149 591.059 136.149L600.482 136.234C600.534 136.234 600.584 136.214 600.621 136.178C600.657 136.141 600.678 136.092 600.679 136.04C600.679 135.989 600.659 135.939 600.623 135.902C600.587 135.865 600.537 135.844 600.486 135.844L591.061 135.759C591.009 135.759 590.959 135.779 590.923 135.816C590.886 135.852 590.866 135.902 590.866 135.954H590.864Z" fill="#0C0C0C"/>
</g>
<g opacity="0.2">
<path d="M590.712 140.11C590.712 140.162 590.732 140.212 590.769 140.248C590.805 140.285 590.855 140.305 590.906 140.305L601.423 140.4C601.474 140.4 601.524 140.38 601.56 140.343C601.597 140.306 601.617 140.257 601.617 140.205C601.616 140.154 601.595 140.105 601.559 140.069C601.523 140.033 601.474 140.012 601.423 140.01L590.906 139.916C590.854 139.916 590.805 139.936 590.768 139.973C590.731 140.009 590.712 140.059 590.712 140.11Z" fill="#0C0C0C"/>
</g>
<g opacity="0.2">
<path d="M590.521 144.607C590.521 144.659 590.542 144.709 590.578 144.745C590.615 144.782 590.664 144.802 590.716 144.802L599.105 144.878C599.156 144.878 599.206 144.858 599.243 144.821C599.279 144.785 599.3 144.735 599.3 144.683C599.3 144.632 599.279 144.582 599.243 144.546C599.206 144.509 599.156 144.488 599.105 144.488L590.716 144.413C590.664 144.413 590.615 144.434 590.578 144.47C590.542 144.507 590.521 144.556 590.521 144.608V144.607Z" fill="#0C0C0C"/>
</g>
<path d="M582.289 154.001L540.16 163.575H540.153C528.262 160.016 517.319 153.836 508.13 145.492C507.143 144.595 506.177 143.677 505.233 142.737C503.588 141.094 502.014 139.386 500.511 137.613L506.409 90.1695C507.053 86.3451 509.189 82.9329 512.348 80.6836C515.507 78.4343 519.431 77.5322 523.255 78.1756C527.08 78.8191 530.492 80.9554 532.741 84.1146C534.99 87.2739 535.893 91.1973 535.249 95.0217L531.521 139.568L578.496 128.934L582.289 154.001Z" fill="#0CBC8B"/>
<path d="M522.02 141.317C521.994 141.319 521.968 141.316 521.944 141.308C521.92 141.3 521.897 141.287 521.878 141.27C521.858 141.254 521.842 141.233 521.831 141.21C521.819 141.188 521.812 141.163 521.81 141.137C521.808 141.111 521.811 141.086 521.819 141.061C521.827 141.037 521.84 141.014 521.857 140.995C521.874 140.975 521.894 140.959 521.917 140.948C521.94 140.936 521.965 140.929 521.99 140.927L531.409 138.914C531.434 138.91 531.46 138.911 531.485 138.917C531.51 138.923 531.533 138.934 531.554 138.95C531.574 138.965 531.592 138.984 531.605 139.006C531.618 139.028 531.627 139.052 531.631 139.078C531.635 139.103 531.633 139.129 531.627 139.154C531.621 139.178 531.61 139.202 531.595 139.222C531.579 139.243 531.56 139.26 531.538 139.273C531.516 139.287 531.492 139.295 531.467 139.299L522.045 141.313C522.037 141.315 522.028 141.316 522.02 141.317Z" fill="#0C0C0C"/>
<path d="M582.29 154C582.301 154.05 582.292 154.102 582.265 154.146C582.239 154.189 582.196 154.221 582.147 154.234L541.219 163.88C540.959 163.808 540.706 163.737 540.453 163.659L581.861 153.909L578.172 129.227L531.476 139.3C531.446 139.305 531.415 139.303 531.385 139.294C531.356 139.286 531.329 139.27 531.307 139.249C531.288 139.226 531.273 139.199 531.264 139.17C531.255 139.141 531.252 139.11 531.255 139.08L533.873 113.624C533.877 113.599 533.887 113.575 533.901 113.554C533.915 113.532 533.933 113.513 533.954 113.499C533.975 113.484 533.999 113.474 534.024 113.469C534.049 113.464 534.075 113.463 534.1 113.468C534.151 113.476 534.196 113.504 534.227 113.545C534.257 113.587 534.27 113.638 534.262 113.689L531.684 138.885L578.256 128.791C578.282 128.784 578.308 128.783 578.334 128.787C578.36 128.792 578.384 128.802 578.406 128.817C578.428 128.829 578.448 128.846 578.463 128.866C578.479 128.886 578.49 128.909 578.497 128.934L582.29 154Z" fill="#0C0C0C"/>
<path d="M168.12 797.77C210.262 797.77 244.425 763.607 244.425 721.465C244.425 679.323 210.262 645.16 168.12 645.16C125.978 645.16 91.8149 679.323 91.8149 721.465C91.8149 763.607 125.978 797.77 168.12 797.77Z" fill="white"/>
<path opacity="0.09" d="M168.12 797.77C210.262 797.77 244.425 763.607 244.425 721.465C244.425 679.323 210.262 645.16 168.12 645.16C125.978 645.16 91.8149 679.323 91.8149 721.465C91.8149 763.607 125.978 797.77 168.12 797.77Z" fill="#367CFF"/>
<path d="M147.106 678.184C147.106 678.184 147.933 701.166 163.272 702.222L165.871 671.917L147.106 678.184Z" fill="#0A0A0A"/>
<path d="M150.061 706.916C155.08 706.916 159.148 702.848 159.148 697.829C159.148 692.81 155.08 688.742 150.061 688.742C145.042 688.742 140.974 692.81 140.974 697.829C140.974 702.848 145.042 706.916 150.061 706.916Z" fill="#0A0A0A"/>
<path d="M185.617 712.889C185.536 712.878 184.638 727.78 167.326 726.481C155.341 725.585 151.069 712.869 150.794 712.869C152.164 712.642 153.515 712.314 154.837 711.889C156.724 710.875 159.059 709.82 159.667 706.156C160.017 704.043 159.423 693.237 159.606 691.1L178.002 695.206C177.742 699.719 175.946 710.183 182.251 712.035C183.3 712.341 184.43 712.623 185.617 712.889Z" fill="#E98862"/>
<path opacity="0.5" d="M178.259 707.757C177.971 706.828 177.785 705.869 177.706 704.899C177.504 702.688 177.544 700.461 177.826 698.259C174.087 697.754 170.564 696.211 167.659 693.804C167.317 695.066 165.438 700.578 165.959 701.777C166.942 704.048 171.562 707.757 178.259 707.757Z" fill="#0C0C0C"/>
<path d="M175.377 703.742C168.091 703.835 158.983 700.159 157.854 690.371L156.835 681.537C155.706 671.75 159.931 663.22 169.147 662.16C178.362 661.097 186.165 668.236 187.295 678.024L187.745 681.934C188.179 685.691 188.377 703.577 175.377 703.742Z" fill="#E98862"/>
<path d="M185.103 681.672C185.735 681.672 186.246 681.16 186.246 680.529C186.246 679.898 185.735 679.386 185.103 679.386C184.472 679.386 183.961 679.898 183.961 680.529C183.961 681.16 184.472 681.672 185.103 681.672Z" fill="#0C0C0C"/>
<path d="M173.427 683.007C174.058 683.007 174.569 682.495 174.569 681.864C174.569 681.233 174.058 680.722 173.427 680.722C172.796 680.722 172.284 681.233 172.284 681.864C172.284 682.495 172.796 683.007 173.427 683.007Z" fill="#0C0C0C"/>
<path opacity="0.5" d="M179.221 690.563H179.239C179.613 690.517 179.983 690.451 180.35 690.364C180.896 690.231 181.617 689.997 181.561 689.507C181.496 688.95 179.275 683.109 179.022 682.445C179.011 682.416 178.994 682.39 178.973 682.368C178.952 682.345 178.927 682.327 178.899 682.315C178.871 682.302 178.841 682.295 178.81 682.295C178.779 682.294 178.749 682.299 178.72 682.31C178.691 682.321 178.665 682.337 178.643 682.358C178.62 682.38 178.602 682.405 178.59 682.433C178.577 682.461 178.57 682.491 178.569 682.522C178.569 682.553 178.574 682.583 178.585 682.612C179.532 685.099 181.053 689.186 181.096 689.562C180.511 689.891 179.856 690.075 179.186 690.099C179.124 690.103 179.066 690.132 179.026 690.18C178.986 690.227 178.966 690.288 178.97 690.35C178.975 690.411 179.004 690.469 179.051 690.509C179.098 690.55 179.159 690.57 179.221 690.565V690.563Z" fill="#0C0C0C"/>
<path opacity="0.5" d="M177.574 694.636C179.071 694.551 180.527 694.115 181.824 693.364C181.875 693.332 181.912 693.282 181.927 693.224C181.943 693.166 181.935 693.104 181.906 693.051C181.877 692.999 181.828 692.959 181.771 692.941C181.714 692.923 181.652 692.928 181.597 692.954C178.795 694.504 176.115 694.594 173.848 693.214C173.803 693.185 173.755 693.158 173.707 693.133C173.651 693.111 173.588 693.112 173.532 693.135C173.477 693.158 173.432 693.201 173.407 693.257C173.383 693.312 173.381 693.374 173.401 693.431C173.421 693.488 173.463 693.534 173.516 693.561C173.534 693.57 173.564 693.589 173.605 693.614C174.797 694.342 176.179 694.698 177.574 694.636Z" fill="#0C0C0C"/>
<path d="M149.342 684.048L157.6 683.144C163.952 681.092 166.591 670.542 166.591 670.542C166.591 670.542 172.283 677.015 189.151 674.06C189.151 674.06 188.497 652.314 162.844 655.375C153.912 656.443 147.177 665.4 147.107 677.112C147.059 685.319 149.342 684.048 149.342 684.048Z" fill="#0A0A0A"/>
<path d="M158.771 693.287C155.97 693.612 153.354 690.876 153.031 688.075C152.709 685.274 154.8 683.469 157.601 683.146L159.261 684.855L161.179 693.009L158.771 693.287Z" fill="#E98862"/>
<path d="M181.064 677.678C181.89 677.221 182.824 676.994 183.767 677.021C184.233 677.031 184.695 677.111 185.137 677.259C185.576 677.404 185.996 677.603 186.385 677.852C186.424 677.877 186.452 677.916 186.463 677.961C186.474 678.005 186.467 678.053 186.444 678.093C186.421 678.133 186.384 678.162 186.339 678.175C186.295 678.188 186.247 678.184 186.206 678.163L186.195 678.156C185.826 677.937 185.431 677.765 185.019 677.645C184.611 677.523 184.187 677.464 183.761 677.469C182.914 677.473 182.084 677.701 181.354 678.131L181.336 678.142C181.306 678.162 181.272 678.175 181.236 678.182C181.201 678.188 181.164 678.187 181.129 678.179C181.094 678.171 181.061 678.157 181.031 678.135C181.002 678.114 180.977 678.088 180.959 678.057C180.94 678.026 180.927 677.992 180.922 677.956C180.917 677.92 180.919 677.884 180.928 677.849C180.937 677.814 180.953 677.781 180.976 677.753C180.998 677.724 181.025 677.7 181.057 677.683L181.064 677.678Z" fill="#0C0C0C"/>
<path d="M173.662 679.039C172.855 678.783 171.994 678.746 171.167 678.932C170.751 679.023 170.351 679.176 169.98 679.387C169.606 679.596 169.26 679.852 168.949 680.148L168.939 680.157C168.904 680.183 168.86 680.195 168.816 680.191C168.773 680.187 168.732 680.167 168.702 680.135C168.672 680.103 168.655 680.061 168.653 680.017C168.652 679.973 168.667 679.93 168.696 679.897C169.02 679.567 169.384 679.279 169.779 679.04C170.177 678.798 170.609 678.616 171.061 678.502C171.975 678.265 172.936 678.278 173.843 678.539C173.878 678.548 173.911 678.564 173.94 678.586C173.969 678.608 173.993 678.635 174.011 678.667C174.029 678.698 174.04 678.733 174.044 678.769C174.048 678.805 174.045 678.841 174.034 678.876C174.024 678.911 174.007 678.943 173.984 678.971C173.961 678.999 173.932 679.022 173.9 679.038C173.868 679.055 173.833 679.065 173.797 679.067C173.761 679.07 173.724 679.065 173.69 679.054H173.683L173.662 679.039Z" fill="#0C0C0C"/>
<path opacity="0.52" d="M177.731 696.85C178.002 696.838 178.271 696.804 178.537 696.748C178.596 696.733 178.646 696.696 178.679 696.644C178.711 696.593 178.722 696.531 178.709 696.472C178.697 696.412 178.662 696.36 178.612 696.326C178.561 696.292 178.5 696.279 178.44 696.289C178.026 696.41 177.591 696.441 177.164 696.381C176.737 696.32 176.328 696.169 175.964 695.938C175.916 695.898 175.854 695.88 175.792 695.886C175.73 695.892 175.674 695.923 175.634 695.971C175.595 696.019 175.577 696.08 175.583 696.142C175.589 696.204 175.619 696.261 175.667 696.3C176.271 696.716 177 696.91 177.731 696.85Z" fill="#0C0C0C"/>
<path opacity="0.1" d="M171.843 690.744C173.045 690.702 173.993 689.954 173.963 689.072C173.932 688.191 172.933 687.511 171.731 687.553C170.53 687.595 169.581 688.344 169.612 689.225C169.643 690.106 170.642 690.786 171.843 690.744Z" fill="#0C0C0C"/>
<path opacity="0.1" d="M184.702 688.311C184.736 689.191 185.734 689.87 186.936 689.831C187.143 689.823 187.35 689.794 187.551 689.744C187.694 688.71 187.781 687.711 187.828 686.784C187.505 686.673 187.163 686.624 186.822 686.639C185.623 686.68 184.674 687.426 184.702 688.311Z" fill="#0C0C0C"/>
<path d="M211.471 728.584C211.419 733.787 209.633 739.99 208.997 747.486C208.828 749.487 204.534 755.274 203.91 761.711C203.124 769.908 204.872 782.692 205.106 788.219C193.036 794.898 179.383 798.183 165.596 797.726C151.809 797.268 138.403 793.085 126.803 785.621C126.491 771.422 126.121 753.891 125.646 749.688C124.107 735.814 124.523 727.038 126.744 722.933C130.375 716.23 136.838 714.184 143.6 713.261C147.731 712.703 153.934 712.306 153.934 712.306C153.934 712.306 154.46 722.94 166.997 723.531C184.06 724.336 182.924 712.306 183.008 712.306C189.198 712.306 200.929 713.787 205.424 716.853C210.192 720.094 211.53 723.94 211.471 728.584Z" fill="#FFC239"/>
<path d="M152.518 736.678L129.368 787.197C120.48 781.949 112.746 774.956 106.634 766.639L125.945 724.496L152.518 736.678Z" fill="#FFC239"/>
<path d="M230.173 765.875C225.638 772.202 220.164 777.801 213.941 782.477C211.892 784.024 209.765 785.463 207.569 786.79L183.808 734.554L210.414 722.446L230.173 765.875Z" fill="#FFC239"/>
<path d="M79.8739 293.131C123.751 293.131 159.32 257.562 159.32 213.685C159.32 169.808 123.751 134.239 79.8739 134.239C35.9973 134.239 0.428223 169.808 0.428223 213.685C0.428223 257.562 35.9973 293.131 79.8739 293.131Z" fill="white"/>
<path opacity="0.09" d="M79.8739 293.131C123.751 293.131 159.32 257.562 159.32 213.685C159.32 169.808 123.751 134.239 79.8739 134.239C35.9973 134.239 0.428223 169.808 0.428223 213.685C0.428223 257.562 35.9973 293.131 79.8739 293.131Z" fill="#367CFF"/>
<path d="M95.2358 166.112C95.2358 166.112 100.267 160.659 99.8774 150.274C99.5767 142.233 93.2657 148.62 93.2657 148.62C93.2657 148.62 92.9922 142.833 88.9786 144.139C84.9651 145.444 83.731 151.799 83.731 151.799" fill="#0C0C0C"/>
<path d="M67.8138 148.652C67.8138 148.652 47.7785 154.541 60.1758 180.89L62.0056 180.684L65.7197 180.265" fill="#0C0C0C"/>
<path d="M96.2074 208.223C96.1165 208.211 95.1032 225.02 75.5758 223.552C62.0574 222.539 57.2371 208.197 56.9272 208.197C58.3848 207.887 60.186 207.417 60.9018 207.255C62.4621 206.893 63.8751 206.065 64.9529 204.88C66.0307 203.695 66.7222 202.21 66.9355 200.623C67.3311 198.24 66.6601 186.051 66.8666 183.64L87.6171 188.272C87.3274 193.363 85.2982 205.166 92.4108 207.255C93.5949 207.602 94.87 207.92 96.2074 208.223Z" fill="#E98862"/>
<path opacity="0.52" d="M87.9081 202.433C87.5834 201.385 87.3741 200.305 87.2839 199.212C87.056 196.718 87.1015 194.206 87.4196 191.721C83.2021 191.152 79.2288 189.411 75.9512 186.697C75.5654 188.12 73.4466 194.338 74.0331 195.69C75.1425 198.247 80.3539 202.433 87.9081 202.433Z" fill="#0C0C0C"/>
<path d="M84.5206 197.081C76.3363 197.817 65.7713 194.472 63.6532 183.563L61.7415 173.719C59.6234 162.806 63.6363 152.852 73.9082 150.858C84.1802 148.863 93.5753 156.217 95.6941 167.126L96.5385 171.484C96.8034 172.986 96.9653 174.503 97.0231 176.027C97.2063 180.054 97.4693 186.175 95.5337 190.699C93.7071 194.972 89.7507 196.611 84.5206 197.081Z" fill="#E98862"/>
<path opacity="0.5" d="M85.7582 186.295C87.2572 186.267 88.7285 185.887 90.0537 185.186C90.0825 185.173 90.1083 185.154 90.1297 185.131C90.1511 185.107 90.1675 185.08 90.1781 185.05C90.1886 185.02 90.1929 184.989 90.1909 184.957C90.1889 184.926 90.1805 184.895 90.1663 184.866C90.152 184.838 90.1322 184.813 90.108 184.793C90.0838 184.772 90.0558 184.757 90.0255 184.748C89.9953 184.739 89.9635 184.736 89.9321 184.739C89.9006 184.742 89.8702 184.752 89.8426 184.767C86.9845 186.21 84.3026 186.196 82.0895 184.732C82.0449 184.701 81.9988 184.673 81.9512 184.647C81.9236 184.633 81.8936 184.625 81.8629 184.623C81.8322 184.621 81.8015 184.625 81.7724 184.635C81.7433 184.645 81.7164 184.661 81.6933 184.681C81.6702 184.701 81.6513 184.726 81.6378 184.753C81.6242 184.781 81.6162 184.811 81.6143 184.842C81.6123 184.872 81.6164 184.903 81.6263 184.932C81.6362 184.961 81.6518 184.988 81.6721 185.011C81.6924 185.034 81.717 185.053 81.7446 185.067C81.7622 185.077 81.7907 185.096 81.831 185.123C82.9942 185.896 84.3616 186.304 85.7582 186.295Z" fill="#0C0C0C"/>
<path opacity="0.52" d="M85.8302 188.515C86.1013 188.514 86.3718 188.49 86.6389 188.444C86.6692 188.439 86.6981 188.427 86.7241 188.411C86.7501 188.395 86.7727 188.373 86.7904 188.348C86.8082 188.323 86.8208 188.295 86.8277 188.265C86.8345 188.235 86.8353 188.204 86.8302 188.174C86.825 188.144 86.8139 188.115 86.7976 188.089C86.7812 188.063 86.7599 188.04 86.7348 188.022C86.7098 188.005 86.6815 187.992 86.6515 187.985C86.6216 187.978 86.5906 187.977 86.5603 187.983C86.1419 188.087 85.7061 188.102 85.2817 188.025C84.8573 187.948 84.4542 187.782 84.0991 187.537C84.0524 187.497 83.9921 187.478 83.9311 187.482C83.8701 187.487 83.8132 187.515 83.7728 187.561C83.7323 187.607 83.7115 187.667 83.7147 187.728C83.7179 187.789 83.7449 187.846 83.79 187.888C84.377 188.327 85.098 188.548 85.8302 188.515Z" fill="#0C0C0C"/>
<path d="M93.2355 174.233C93.9472 174.233 94.5242 173.656 94.5242 172.944C94.5242 172.232 93.9472 171.656 93.2355 171.656C92.5238 171.656 91.9468 172.232 91.9468 172.944C91.9468 173.656 92.5238 174.233 93.2355 174.233Z" fill="#0C0C0C"/>
<path d="M80.7038 175.698C81.4155 175.698 81.9924 175.121 81.9924 174.409C81.9924 173.698 81.4155 173.121 80.7038 173.121C79.992 173.121 79.415 173.698 79.415 174.409C79.415 175.121 79.992 175.698 80.7038 175.698Z" fill="#0C0C0C"/>
<path d="M64.9365 186.762C61.8148 187.368 58.6359 184.52 58.0292 181.398C57.4225 178.277 59.6199 176.064 62.741 175.458L64.7546 177.237L67.6191 186.241L64.9365 186.762Z" fill="#E98862"/>
<path d="M67.1398 181.171C67.1398 181.171 65.3958 165.507 69.9147 163.703C72.924 162.501 81.3039 165.561 88.0806 162.953C91.0451 161.811 94.098 162.043 94.6566 163.441C94.8781 163.993 95.2977 155.394 89.355 150.001C84.6237 145.707 71.8406 146.567 66.4363 149.234C51.4727 156.618 62.2201 176.255 62.2201 176.255L63.8895 181.462L67.1398 181.171Z" fill="#0C0C0C"/>
<g opacity="0.52">
<path d="M87.6791 182.416H87.6992C88.706 182.221 90.3728 181.788 90.2325 181.035C90.1123 180.411 87.1146 174.004 86.7743 173.276C86.7597 173.245 86.7392 173.217 86.7139 173.194C86.6886 173.171 86.659 173.153 86.6268 173.141C86.5946 173.13 86.5604 173.124 86.5262 173.126C86.492 173.128 86.4584 173.136 86.4274 173.15C86.3964 173.165 86.3686 173.185 86.3455 173.211C86.3224 173.236 86.3045 173.266 86.2929 173.298C86.2812 173.33 86.276 173.364 86.2776 173.398C86.2792 173.433 86.2875 173.466 86.302 173.497C87.631 176.335 89.6381 180.707 89.72 181.133C89.655 181.328 88.6469 181.704 87.605 181.903C87.5361 181.913 87.4741 181.951 87.4326 182.007C87.3911 182.062 87.3736 182.133 87.3838 182.202C87.3941 182.27 87.4313 182.332 87.4873 182.374C87.5433 182.415 87.6134 182.433 87.6823 182.423L87.6791 182.416Z" fill="#0C0C0C"/>
</g>
<path d="M88.3913 166.717C89.3986 166.234 90.5175 166.032 91.63 166.132C92.1757 166.178 92.7115 166.305 93.2194 166.51C93.721 166.709 94.1955 166.971 94.6315 167.289C94.7125 167.345 94.7685 167.431 94.7879 167.527C94.8073 167.624 94.7886 167.724 94.7355 167.807C94.6825 167.89 94.5994 167.949 94.5037 167.972C94.4079 167.994 94.3071 167.979 94.2223 167.929L94.1931 167.919C93.7977 167.666 93.3722 167.465 92.9265 167.318C92.4882 167.172 92.0303 167.093 91.5683 167.084C90.6575 167.058 89.7563 167.274 88.9558 167.709L88.9227 167.728C88.8575 167.765 88.7857 167.789 88.7113 167.799C88.6369 167.808 88.5614 167.803 88.489 167.783C88.4167 167.763 88.3489 167.729 88.2897 167.683C88.2304 167.637 88.1807 167.58 88.1435 167.515C88.1063 167.45 88.0823 167.378 88.0729 167.304C88.0635 167.229 88.0688 167.154 88.0885 167.082C88.1083 167.009 88.1421 166.941 88.188 166.882C88.234 166.823 88.2911 166.773 88.3563 166.736L88.3913 166.717Z" fill="#0C0C0C"/>
<path d="M81.0029 168.714C80.1257 168.468 79.1992 168.458 78.317 168.686C77.8687 168.797 77.4399 168.976 77.0452 169.216C76.6424 169.458 76.2714 169.749 75.941 170.083L75.9202 170.104C75.849 170.173 75.7537 170.211 75.6546 170.211C75.5556 170.211 75.4605 170.172 75.3898 170.102C75.3191 170.033 75.2782 169.939 75.276 169.84C75.2737 169.741 75.3103 169.645 75.3778 169.572C75.7316 169.164 76.1355 168.803 76.5801 168.496C77.03 168.183 77.5242 167.94 78.0462 167.773C78.5679 167.601 79.1108 167.501 79.6596 167.477C80.2217 167.446 80.7853 167.495 81.3335 167.622C81.481 167.657 81.6087 167.748 81.6886 167.877C81.7686 168.006 81.7941 168.161 81.7596 168.308C81.7252 168.456 81.6335 168.583 81.5049 168.663C81.3763 168.743 81.2212 168.769 81.0737 168.734L81.0399 168.725L81.0029 168.714Z" fill="#0C0C0C"/>
<path d="M84.954 156.339C87.1822 155.436 87.911 152.046 86.5818 148.766C85.2526 145.486 82.3687 143.559 80.1405 144.462C77.9123 145.365 77.1835 148.756 78.5127 152.036C79.8419 155.316 82.7257 157.242 84.954 156.339Z" fill="#0C0C0C"/>
<path d="M123.196 225.592C123.274 230.977 121.169 237.031 120.468 245.228C120.325 246.891 119.987 250.555 119.539 255.329C118.805 263.234 117.765 274.166 116.856 284.019C103.851 290.845 89.2108 293.937 74.5566 292.954C59.9023 291.97 45.8065 286.949 33.8307 278.446C33.5449 278.232 33.2591 278.024 32.9733 277.823C32.2133 266.683 31.3169 254.991 30.4985 247.606C28.9591 233.816 26.861 226.95 28.0367 222.312C28.1309 221.917 28.2569 221.531 28.4134 221.156C31.7976 212.946 42.5736 209.282 49.8745 208.295C54.3304 207.691 61.0338 207.256 61.0338 207.256C61.0338 207.256 61.5989 218.74 75.129 219.376C93.5502 220.247 92.3226 207.256 92.4135 207.256C95.3949 207.256 111.64 209.425 115.7 212.075C116.381 212.517 117.031 213.003 117.648 213.53C119.412 215.001 120.826 216.848 121.785 218.934C122.745 221.021 123.227 223.296 123.196 225.592Z" fill="#383838"/>
<path d="M55.37 233.92L33.831 278.446C33.5452 278.232 33.2594 278.024 32.9736 277.823C24.6239 271.7 17.5426 264.014 12.123 255.192L28.037 222.312L28.6671 221.007L55.37 233.92Z" fill="#383838"/>
<path d="M53.291 239.045L33.7006 278.349C33.5707 278.251 33.4473 278.161 33.3174 278.076L52.8818 238.843C52.9099 238.789 52.9582 238.747 53.0165 238.728C53.0748 238.708 53.1383 238.713 53.1936 238.739C53.247 238.767 53.2872 238.815 53.3055 238.872C53.3238 238.929 53.3185 238.991 53.291 239.045Z" fill="white"/>
<path d="M152.62 245.67C148.716 254.519 143.233 262.584 136.44 269.469L119.539 255.329L98.0713 237.362L117.649 213.53L117.707 213.459L152.62 245.67Z" fill="#383838"/>
<path d="M119.8 255.502C119.855 255.499 119.907 255.477 119.947 255.438C119.987 255.4 120.011 255.349 120.016 255.294L121.131 242.218C121.137 242.158 121.118 242.098 121.079 242.052C121.04 242.005 120.984 241.976 120.923 241.971C120.863 241.966 120.804 241.986 120.758 242.025C120.712 242.063 120.683 242.119 120.677 242.179L119.561 255.255C119.556 255.315 119.575 255.375 119.614 255.421C119.653 255.467 119.709 255.496 119.769 255.502L119.8 255.502Z" fill="white"/>
<path d="M942.268 825.713C984.117 825.713 1018.04 791.788 1018.04 749.939C1018.04 708.09 984.117 674.165 942.268 674.165C900.419 674.165 866.494 708.09 866.494 749.939C866.494 791.788 900.419 825.713 942.268 825.713Z" fill="white"/>
<path opacity="0.09" d="M866.494 749.938C866.494 764.924 870.937 779.574 879.263 792.035C887.589 804.496 899.424 814.208 913.269 819.943C927.115 825.678 942.35 827.179 957.049 824.255C971.748 821.332 985.249 814.115 995.846 803.518C1006.44 792.921 1013.66 779.42 1016.58 764.721C1019.51 750.022 1018.01 734.787 1012.27 720.941C1006.54 707.095 996.825 695.261 984.364 686.935C971.903 678.609 957.253 674.165 942.267 674.165C932.306 674.128 922.436 676.063 913.227 679.858C904.017 683.653 895.649 689.233 888.606 696.277C881.562 703.32 875.982 711.688 872.187 720.897C868.392 730.107 866.457 739.977 866.494 749.938Z" fill="#367CFF"/>
<path d="M976.652 708.125C975.442 722.155 976.564 726.912 982.39 734.951C987.304 741.728 959.345 735.967 946.975 733.764L957.891 701.86C957.891 701.86 977.077 703.198 976.652 708.125Z" fill="#0A0A0A"/>
<path d="M933.973 702.287C930.324 715.888 930.734 720.095 923.591 727.238C917.672 733.158 940.742 734.362 953.122 736.512L953.748 702.801C953.748 702.801 935.256 697.511 933.973 702.287Z" fill="#0A0A0A"/>
<path d="M935.204 741.846C935.285 741.835 936.192 756.876 953.666 755.565C965.762 754.659 970.075 741.824 970.352 741.824C968.97 741.595 967.607 741.264 966.273 740.835C964.368 739.811 962.011 738.746 961.397 735.048C961.043 732.915 961.643 722.008 961.459 719.848L942.89 723.993C943.15 728.549 944.969 739.111 938.603 740.979C937.542 741.291 936.401 741.576 935.204 741.846Z" fill="#E98862"/>
<path opacity="0.5" d="M942.63 736.665C942.921 735.728 943.108 734.761 943.188 733.783C943.393 731.551 943.352 729.304 943.068 727.08C946.842 726.571 950.397 725.013 953.331 722.584C953.675 723.858 955.571 729.421 955.047 730.632C954.053 732.919 949.39 736.665 942.63 736.665Z" fill="#0C0C0C"/>
<path d="M945.031 731.979C952.352 732.687 961.824 729.759 963.786 720.01L965.557 711.213C967.519 701.464 963.989 692.53 954.81 690.683C945.631 688.836 937.179 695.36 935.216 705.107L934.433 709.004C933.68 712.742 931.969 730.717 945.031 731.979Z" fill="#E98862"/>
<path d="M974.417 713.99L966.159 713.086C950.001 710.115 946.044 697.076 946.044 697.076C946.044 697.076 939.266 706.125 933.511 704.047C933.511 704.047 935.366 682.228 960.914 686.062C970.952 687.569 976.652 695.89 976.652 707.052C976.652 715.258 974.417 713.99 974.417 713.99Z" fill="#0A0A0A"/>
<path opacity="0.1" d="M952.053 717.861C952.158 716.977 951.267 716.144 950.063 716.001C948.858 715.857 947.796 716.457 947.69 717.34C947.585 718.224 948.476 719.057 949.681 719.201C950.886 719.345 951.948 718.745 952.053 717.861Z" fill="#0C0C0C"/>
<path opacity="0.1" d="M936.958 715.671C936.85 716.553 935.789 717.152 934.583 717.01C934.375 716.985 934.17 716.938 933.971 716.871C933.915 715.819 933.912 714.807 933.943 713.87C934.277 713.786 934.624 713.766 934.966 713.81C936.168 713.952 937.059 714.785 936.958 715.671Z" fill="#0C0C0C"/>
<path opacity="0.5" d="M942.278 718.399H942.26C941.888 718.322 941.521 718.224 941.16 718.106C940.621 717.925 939.916 717.629 940.014 717.142C940.125 716.586 942.853 710.899 943.164 710.252C943.177 710.224 943.195 710.198 943.218 710.176C943.242 710.154 943.269 710.138 943.298 710.127C943.328 710.116 943.36 710.111 943.391 710.113C943.423 710.114 943.454 710.122 943.482 710.136C943.511 710.149 943.536 710.169 943.557 710.192C943.578 710.216 943.594 710.244 943.604 710.274C943.614 710.304 943.618 710.335 943.616 710.367C943.613 710.398 943.604 710.429 943.59 710.457C942.426 712.879 940.552 716.861 940.477 717.235C941.037 717.615 941.68 717.856 942.353 717.936C942.412 717.948 942.464 717.983 942.499 718.033C942.533 718.083 942.547 718.145 942.537 718.205C942.528 718.265 942.496 718.319 942.447 718.355C942.399 718.392 942.338 718.409 942.278 718.402V718.399Z" fill="#0C0C0C"/>
<path d="M962.618 722.866C965.408 723.427 968.269 720.898 968.831 718.109C969.393 715.319 967.441 713.325 964.651 712.764L962.837 714.344L960.22 722.383L962.618 722.866Z" fill="#E98862"/>
<path d="M941.186 705.714C940.842 705.47 940.466 705.273 940.069 705.129C939.668 704.978 939.247 704.884 938.82 704.848C938.392 704.807 937.961 704.831 937.54 704.919C937.116 705.005 936.704 705.144 936.315 705.334L936.303 705.339C936.26 705.354 936.214 705.353 936.173 705.336C936.131 705.319 936.098 705.287 936.078 705.246C936.059 705.206 936.056 705.16 936.069 705.117C936.082 705.074 936.11 705.037 936.149 705.014C936.561 704.796 937 704.631 937.454 704.522C937.911 704.411 938.382 704.37 938.852 704.399C939.803 704.452 940.723 704.759 941.515 705.288C941.573 705.33 941.612 705.392 941.624 705.461C941.636 705.531 941.621 705.603 941.581 705.661C941.541 705.72 941.48 705.76 941.411 705.775C941.342 705.789 941.269 705.775 941.21 705.737L941.203 705.733L941.186 705.714Z" fill="#0C0C0C"/>
<path d="M948.704 706.752C949.638 706.567 950.605 706.635 951.504 706.951C951.949 707.103 952.369 707.322 952.749 707.6C953.127 707.874 953.469 708.194 953.766 708.553C953.799 708.588 953.816 708.635 953.813 708.683C953.811 708.731 953.79 708.776 953.755 708.808C953.719 708.841 953.673 708.857 953.625 708.855C953.577 708.853 953.532 708.832 953.499 708.797L953.49 708.787C953.202 708.463 952.875 708.177 952.515 707.935C952.16 707.692 951.771 707.505 951.36 707.379C950.544 707.124 949.675 707.088 948.842 707.277L948.821 707.282C948.751 707.299 948.678 707.288 948.616 707.251C948.554 707.213 948.51 707.153 948.493 707.083C948.476 707.013 948.487 706.939 948.524 706.878C948.561 706.816 948.622 706.772 948.691 706.754L948.704 706.752Z" fill="#0C0C0C"/>
<path d="M907.061 817.048C904.082 815.749 901.854 814.359 896.767 810.527C893.096 807.772 889.685 804.688 886.576 801.312L912.695 751.612L913.83 749.453L937.388 761.838L916.953 800.727L916.859 800.898L917.036 801.59" fill="#EA394A"/>
<path d="M993.923 777.068C993.237 784.438 993.089 795.9 993.137 806.09C983.288 815.023 971.262 821.206 958.266 824.017C945.27 826.827 931.764 826.167 919.104 822.101C917.555 806.733 915.251 784.149 913.953 770.242C912.637 755.838 908.767 751.081 919.329 744.183C925.149 741.22 934.375 740.959 938.522 740.959C937.114 754.613 965.889 756.293 966.604 740.959C988.125 742.972 998.089 743.472 993.923 777.068Z" fill="#EA394A"/>
<path d="M939.823 720.32C942.202 721.53 944.916 721.912 947.536 721.407C947.627 721.39 947.721 721.399 947.807 721.433C947.893 721.467 947.967 721.525 948.021 721.6C948.075 721.675 948.107 721.764 948.112 721.856C948.118 721.948 948.097 722.04 948.052 722.121C947.272 723.498 945.417 725.851 942.239 724.892C940.186 724.273 939.411 722.164 939.121 720.855C939.101 720.765 939.107 720.67 939.139 720.583C939.171 720.495 939.227 720.419 939.301 720.363C939.375 720.306 939.463 720.272 939.556 720.265C939.648 720.257 939.741 720.276 939.823 720.32Z" fill="white"/>
<path d="M939.675 709.742C940.31 709.742 940.824 709.227 940.824 708.593C940.824 707.958 940.31 707.444 939.675 707.444C939.04 707.444 938.526 707.958 938.526 708.593C938.526 709.227 939.04 709.742 939.675 709.742Z" fill="#0C0C0C"/>
<path d="M950.719 711.675C951.354 711.675 951.868 711.16 951.868 710.526C951.868 709.891 951.354 709.377 950.719 709.377C950.084 709.377 949.57 709.891 949.57 710.526C949.57 711.16 950.084 711.675 950.719 711.675Z" fill="#0C0C0C"/>
<path d="M916.497 795.049H916.519C916.565 795.042 916.608 795.017 916.636 794.98C916.664 794.942 916.677 794.895 916.67 794.848L914.638 774.379C914.636 774.356 914.628 774.333 914.617 774.313C914.605 774.292 914.589 774.275 914.571 774.26C914.552 774.246 914.531 774.236 914.508 774.23C914.485 774.225 914.461 774.224 914.438 774.228C914.415 774.231 914.393 774.238 914.373 774.25C914.353 774.262 914.335 774.277 914.321 774.296C914.307 774.315 914.297 774.336 914.291 774.358C914.285 774.381 914.284 774.405 914.287 774.428L916.318 794.898C916.325 794.94 916.346 794.979 916.379 795.007C916.412 795.035 916.454 795.05 916.497 795.049Z" fill="#0C0C0C"/>
<path d="M913.84 779.459H893.101V804.895H913.84V779.459Z" fill="white"/>
<path d="M905.348 792.178C905.348 790.498 905.847 788.856 906.78 787.459C907.714 786.063 909.04 784.974 910.592 784.332C912.144 783.689 913.852 783.522 915.5 783.85C917.147 784.178 918.66 784.987 919.848 786.175C921.036 787.363 921.844 788.876 922.172 790.524C922.499 792.171 922.331 793.879 921.688 795.431C921.045 796.983 919.956 798.309 918.559 799.242C917.162 800.175 915.52 800.673 913.841 800.673C911.588 800.67 909.429 799.774 907.837 798.182C906.245 796.589 905.35 794.43 905.348 792.178ZM908.826 792.178C908.826 793.169 909.12 794.139 909.671 794.963C910.222 795.788 911.005 796.431 911.922 796.81C912.838 797.19 913.846 797.289 914.819 797.096C915.792 796.902 916.685 796.425 917.386 795.723C918.088 795.022 918.565 794.129 918.759 793.156C918.952 792.183 918.853 791.175 918.473 790.259C918.094 789.342 917.451 788.559 916.626 788.008C915.802 787.457 914.832 787.163 913.841 787.163C912.511 787.165 911.236 787.693 910.296 788.634C909.356 789.574 908.828 790.848 908.826 792.178Z" fill="white"/>
<path d="M913.675 795.325C913.745 794.895 913.964 794.503 914.294 794.218C914.624 793.933 915.043 793.773 915.479 793.766C915.467 793.749 915.458 793.729 915.454 793.708L914.836 793.574C914.405 793.489 914.018 793.258 913.738 792.92C913.458 792.581 913.304 792.157 913.302 791.718C913.306 791.443 913.371 791.172 913.492 790.925C913.614 790.678 913.788 790.461 914.004 790.29C914.219 790.118 914.47 789.997 914.738 789.934C915.006 789.872 915.285 789.869 915.554 789.927L917.011 790.242C917.011 790.236 917.011 790.231 917.011 790.225C917.014 790.214 917.018 790.203 917.024 790.192C916.644 790.013 916.336 789.711 916.15 789.336C915.964 788.96 915.91 788.532 915.999 788.122C916.158 787.044 917.451 786.689 918.398 786.894L922.172 787.569L920.898 786.725C920.496 786.447 920.215 786.026 920.111 785.548C920.008 785.071 920.089 784.572 920.339 784.152C920.476 783.939 920.654 783.757 920.863 783.616C921.073 783.475 921.309 783.378 921.557 783.331C921.805 783.284 922.06 783.288 922.306 783.343C922.553 783.398 922.785 783.503 922.99 783.651L938.202 801.059L934.824 799.526C933.776 801.068 932.291 802.262 930.56 802.954C928.829 803.646 926.93 803.806 925.108 803.412L916.859 801.614C916.428 801.529 916.04 801.298 915.76 800.959C915.481 800.621 915.326 800.197 915.324 799.758C915.33 799.362 915.462 798.978 915.702 798.662C915.941 798.347 916.275 798.116 916.655 798.004C916.643 797.976 916.639 797.945 916.642 797.915C916.647 797.887 916.658 797.86 916.676 797.838C916.693 797.815 916.716 797.797 916.742 797.786L915.22 797.457C914.74 797.363 914.314 797.091 914.027 796.695C913.741 796.3 913.615 795.81 913.675 795.325Z" fill="#E98862"/>
<path opacity="0.2" d="M919.766 790.856C919.806 790.847 919.841 790.825 919.867 790.793C919.892 790.762 919.905 790.722 919.904 790.681C919.904 790.641 919.889 790.602 919.862 790.571C919.836 790.54 919.8 790.52 919.76 790.513L917.212 790.081C917.189 790.077 917.165 790.076 917.142 790.081C917.119 790.086 917.097 790.095 917.077 790.108C917.058 790.121 917.041 790.138 917.029 790.158C917.016 790.178 917.007 790.2 917.003 790.223C917 790.246 917 790.27 917.006 790.293C917.011 790.316 917.021 790.337 917.035 790.356C917.049 790.375 917.067 790.391 917.087 790.403C917.107 790.415 917.13 790.423 917.153 790.426L919.701 790.857C919.723 790.861 919.745 790.86 919.766 790.856Z" fill="#0C0C0C"/>
<path opacity="0.2" d="M919.151 794.46C919.191 794.451 919.227 794.429 919.252 794.398C919.277 794.366 919.291 794.327 919.29 794.286C919.289 794.245 919.275 794.206 919.249 794.176C919.222 794.145 919.186 794.124 919.146 794.117L915.656 793.498C915.632 793.492 915.608 793.492 915.585 793.496C915.562 793.5 915.54 793.509 915.52 793.522C915.5 793.535 915.483 793.552 915.47 793.572C915.457 793.592 915.448 793.614 915.444 793.637C915.44 793.661 915.441 793.685 915.446 793.708C915.451 793.731 915.461 793.753 915.475 793.772C915.49 793.791 915.507 793.807 915.528 793.819C915.548 793.831 915.571 793.838 915.594 793.841L919.085 794.461C919.107 794.465 919.13 794.464 919.151 794.46Z" fill="#0C0C0C"/>
<path opacity="0.2" d="M918.51 798.368C918.55 798.359 918.586 798.337 918.611 798.305C918.636 798.272 918.65 798.233 918.648 798.192C918.647 798.151 918.632 798.112 918.605 798.081C918.578 798.05 918.541 798.03 918.5 798.024L916.845 797.771C916.8 797.766 916.756 797.779 916.721 797.807C916.685 797.834 916.662 797.874 916.655 797.918C916.649 797.962 916.659 798.007 916.684 798.044C916.71 798.081 916.748 798.106 916.792 798.115L918.448 798.369C918.468 798.373 918.49 798.372 918.51 798.368Z" fill="#0C0C0C"/>
<path d="M1004.49 793.174C995.157 806.594 981.745 816.648 966.245 821.841L966.24 821.836C962.797 821.162 929.956 808.195 925.612 807.343L930.366 785.169C942.571 787.597 964.831 796.96 977.105 799.398L968.446 760.134C968.132 758.4 968.165 756.621 968.545 754.899C968.924 753.178 969.641 751.549 970.654 750.107C971.668 748.665 972.957 747.439 974.448 746.499C975.939 745.559 977.602 744.925 979.34 744.632C981.078 744.34 982.857 744.396 984.573 744.796C986.29 745.196 987.909 745.934 989.339 746.965C990.768 747.996 991.979 749.3 992.9 750.803C993.821 752.305 994.435 753.976 994.706 755.717L1004.49 793.174Z" fill="#EA394A"/>
<path d="M986.409 802.288C986.453 802.287 986.496 802.27 986.528 802.24C986.56 802.209 986.58 802.168 986.583 802.124C986.586 802.079 986.573 802.036 986.546 802.001C986.519 801.966 986.479 801.942 986.436 801.935L977.207 798.804C977.184 798.8 977.16 798.801 977.137 798.807C977.115 798.812 977.093 798.822 977.074 798.836C977.056 798.85 977.04 798.868 977.028 798.888C977.016 798.908 977.008 798.93 977.005 798.953C976.998 799 977.01 799.047 977.038 799.085C977.066 799.123 977.108 799.148 977.154 799.155L986.383 802.286C986.392 802.287 986.4 802.288 986.409 802.288Z" fill="#0C0C0C"/>
<path d="M977.348 798.954C977.354 799.01 977.336 799.065 977.301 799.108C977.281 799.127 977.256 799.142 977.23 799.15C977.203 799.158 977.175 799.16 977.147 799.156L930.661 785.435L926.003 807.26L966.033 821.906C965.908 821.948 965.778 821.988 965.654 822.03C965.565 822.06 965.477 822.089 965.382 822.113L925.742 807.559C925.698 807.547 925.659 807.518 925.635 807.478C925.611 807.438 925.603 807.391 925.612 807.346L930.366 785.171C930.372 785.148 930.382 785.127 930.396 785.109C930.41 785.091 930.428 785.075 930.448 785.064C930.468 785.051 930.49 785.041 930.514 785.037C930.538 785.033 930.562 785.034 930.585 785.041L976.958 798.779L971.708 777.133C971.702 777.087 971.714 777.04 971.742 777.003C971.769 776.965 971.81 776.94 971.856 776.933C971.879 776.928 971.903 776.928 971.926 776.933C971.949 776.937 971.97 776.947 971.99 776.96C972.009 776.973 972.025 776.99 972.038 777.01C972.051 777.029 972.06 777.051 972.064 777.074L977.348 798.954Z" fill="#0C0C0C"/>
</svg>
