<svg width="285" height="58" viewBox="0 0 285 58" fill="none" xmlns="http://www.w3.org/2000/svg">
<path d="M284.481 57.1478H274.014L256.507 30.6423V57.1478H246.039V14.1758H256.507L274.014 40.8038V14.1758H284.481V57.1478Z" fill="#50C878"/>
<path d="M164.747 29.1737C165.666 27.6796 166.988 26.4729 168.712 25.5535C170.436 24.6341 172.409 24.1744 174.631 24.1744C177.274 24.1744 179.668 24.8448 181.814 26.1856C183.959 27.5264 185.645 29.4418 186.87 31.9319C188.135 34.422 188.767 37.3143 188.767 40.6088C188.767 43.9034 188.135 46.8148 186.87 49.3432C185.645 51.8333 183.959 53.7679 181.814 55.147C179.668 56.4878 177.274 57.1582 174.631 57.1582C172.371 57.1582 170.398 56.7176 168.712 55.8365C167.026 54.9171 165.705 53.7104 164.747 52.2164V57.1582H154.921V14.1758H164.747V29.1737ZM178.768 40.6088C178.768 38.1571 178.079 36.2416 176.699 34.8625C175.359 33.4451 173.692 32.7364 171.7 32.7364C169.746 32.7364 168.08 33.4451 166.701 34.8625C165.36 36.2799 164.69 38.2145 164.69 40.6663C164.69 43.118 165.36 45.0526 166.701 46.4701C168.08 47.8875 169.746 48.5962 171.7 48.5962C173.654 48.5962 175.32 47.8875 176.699 46.4701C178.079 45.0143 178.768 43.0606 178.768 40.6088Z" fill="#FFFFF0"/>
<path d="M113.966 40.609C113.966 37.3145 114.579 34.4221 115.805 31.9321C117.069 29.442 118.774 27.5266 120.919 26.1858C123.064 24.845 125.458 24.1746 128.102 24.1746C130.362 24.1746 132.335 24.6343 134.02 25.5537C135.744 26.4731 137.066 27.6798 137.985 29.1739V24.6343H147.812V57.1484H138.009L137.985 52.1591C137.028 53.6531 135.687 54.8599 133.963 55.7793C132.277 56.6987 130.305 57.1584 128.044 57.1584C125.439 57.1584 123.064 56.488 120.919 55.1472C118.774 53.7681 117.069 51.8335 115.805 49.3434C114.579 46.815 113.966 43.9036 113.966 40.609ZM137.985 40.6665C137.985 38.2147 137.296 36.2801 135.917 34.8627C134.576 33.4453 132.929 32.7366 130.975 32.7366C129.021 32.7366 127.355 33.4453 125.976 34.8627C124.635 36.2418 123.964 38.1573 123.964 40.609C123.964 43.0608 124.635 45.0145 125.976 46.4703C127.355 47.8877 129.021 48.5964 130.975 48.5964C132.929 48.5964 134.576 47.8877 135.917 46.4703C137.296 45.0528 137.985 43.1182 137.985 40.6665Z" fill="#FFFFF0"/>
<path d="M108.799 14.1758V57.1581H98.9727V14.1758H108.799Z" fill="#FFFFF0"/>
<path d="M91.8516 14.1758V57.1581H82.0254V14.1758H91.8516Z" fill="#FFFFF0"/>
<path d="M60.0333 57.1581C56.892 57.1581 54.0571 56.4877 51.5287 55.1469C49.0387 53.8061 47.0658 51.8907 45.61 49.4006C44.1926 46.9106 43.4839 43.9991 43.4839 40.6662C43.4839 37.3717 44.2118 34.4794 45.6675 31.9893C47.1232 29.4609 49.1153 27.5263 51.6437 26.1855C54.172 24.8447 57.0069 24.1743 60.1482 24.1743C63.2895 24.1743 66.1244 24.8447 68.6527 26.1855C71.1811 27.5263 73.1732 29.4609 74.6289 31.9893C76.0846 34.4794 76.8125 37.3717 76.8125 40.6662C76.8125 43.9608 76.0655 46.8723 74.5714 49.4006C73.1157 51.8907 71.1045 53.8061 68.5378 55.1469C66.0094 56.4877 63.1746 57.1581 60.0333 57.1581ZM60.0333 48.6536C61.9104 48.6536 63.5002 47.9641 64.8027 46.5849C66.1435 45.2058 66.8139 43.2329 66.8139 40.6662C66.8139 38.0995 66.1627 36.1266 64.8602 34.7475C63.596 33.3684 62.0253 32.6789 60.1482 32.6789C58.2328 32.6789 56.6429 33.3684 55.3788 34.7475C54.1146 36.0883 53.4825 38.0612 53.4825 40.6662C53.4825 43.2329 54.0954 45.2058 55.3213 46.5849C56.5855 47.9641 58.1561 48.6536 60.0333 48.6536Z" fill="#FFFFF0"/>
<path d="M0 36.4715C0 32.4873 0.861947 28.9438 2.58584 25.8408C4.30973 22.6995 6.70403 20.2669 9.76873 18.543C12.8717 16.7808 16.377 15.8997 20.2845 15.8997C25.0731 15.8997 29.1721 17.1638 32.5816 19.6922C35.9911 22.2206 38.2704 25.6684 39.4197 30.0356H28.6166C27.8121 28.35 26.6629 27.0667 25.1688 26.1856C23.7131 25.3045 22.0467 24.8639 20.1696 24.8639C17.1432 24.8639 14.6914 25.9174 12.8143 28.0244C10.9371 30.1314 9.99858 32.947 9.99858 36.4715C9.99858 39.9959 10.9371 42.8116 12.8143 44.9185C14.6914 47.0255 17.1432 48.079 20.1696 48.079C22.0467 48.079 23.7131 47.6385 25.1688 46.7574C26.6629 45.8763 27.8121 44.5929 28.6166 42.9073H39.4197C38.2704 47.2745 35.9911 50.7223 32.5816 53.2507C29.1721 55.7407 25.0731 56.9858 20.2845 56.9858C16.377 56.9858 12.8717 56.1238 9.76873 54.3999C6.70403 52.6377 4.30973 50.2051 2.58584 47.1021C0.861947 43.9991 0 40.4556 0 36.4715Z" fill="#FFFFF0"/>
<path d="M217.469 57.1582C213.523 57.1582 209.896 56.2416 206.588 54.4083C203.32 52.575 200.71 50.0244 198.757 46.7563C196.844 43.4485 195.888 39.7421 195.888 35.6371C195.888 31.5322 196.844 27.8457 198.757 24.5776C200.71 21.3096 203.32 18.759 206.588 16.9257C209.896 15.0924 213.523 14.1758 217.469 14.1758C221.414 14.1758 225.021 15.0924 228.289 16.9257C231.597 18.759 234.187 21.3096 236.06 24.5776C237.973 27.8457 238.93 31.5322 238.93 35.6371C238.93 39.7421 237.973 43.4485 236.06 46.7563C234.147 50.0244 231.557 52.575 228.289 54.4083C225.021 56.2416 221.414 57.1582 217.469 57.1582ZM217.469 47.8324C220.816 47.8324 223.487 46.7165 225.479 44.4847C227.512 42.2529 228.528 39.3037 228.528 35.6371C228.528 31.9307 227.512 28.9815 225.479 26.7895C223.487 24.5577 220.816 23.4418 217.469 23.4418C214.081 23.4418 211.371 24.5378 209.338 26.7298C207.346 28.9217 206.349 31.8908 206.349 35.6371C206.349 39.3435 207.346 42.3126 209.338 44.5445C211.371 46.7364 214.081 47.8324 217.469 47.8324Z" fill="#50C878"/>
<path d="M193.515 46.9546L199.406 57.1584H187.624L193.515 46.9546Z" fill="#50C878"/>
<path d="M95.3375 0.516602L101.229 10.7204H89.4463L95.3375 0.516602Z" fill="#50C878"/>
</svg>
