<svg width="7" height="26" viewBox="0 0 7 26" fill="none" xmlns="http://www.w3.org/2000/svg">
<path d="M3.81283 9.51025C2.0998 9.51025 0.698242 10.9118 0.698242 12.6248C0.698242 14.3379 2.0998 15.7394 3.81283 15.7394C5.52585 15.7394 6.92741 14.3379 6.92741 12.6248C6.92741 10.9118 5.52585 9.51025 3.81283 9.51025ZM3.81283 0.166504C2.0998 0.166504 0.698242 1.56807 0.698242 3.28109C0.698242 4.99411 2.0998 6.39567 3.81283 6.39567C5.52585 6.39567 6.92741 4.99411 6.92741 3.28109C6.92741 1.56807 5.52585 0.166504 3.81283 0.166504ZM3.81283 18.854C2.0998 18.854 0.698242 20.2556 0.698242 21.9686C0.698242 23.6816 2.0998 25.0832 3.81283 25.0832C5.52585 25.0832 6.92741 23.6816 6.92741 21.9686C6.92741 20.2556 5.52585 18.854 3.81283 18.854Z" fill="#4F5E7B"/>
</svg>
