<svg width="25" height="25" viewBox="0 0 25 25" fill="none" xmlns="http://www.w3.org/2000/svg">
<g clip-path="url(#clip0_37_2026)">
<path d="M15.2347 19.7651C15.2349 20.2697 15.0443 20.7557 14.7012 21.1257C14.3581 21.4957 13.8879 21.7223 13.3847 21.7601L13.2347 21.7651H11.2347C10.7301 21.7653 10.2441 21.5747 9.87416 21.2316C9.50418 20.8885 9.27755 20.4183 9.23971 19.9151L9.23471 19.7651H15.2347ZM12.2347 2.76514C14.0497 2.76511 15.7937 3.47003 17.0989 4.73121C18.4042 5.99239 19.1685 7.71122 19.2307 9.52514L19.2347 9.76514V13.5291L21.0567 17.1731C21.1362 17.3321 21.176 17.508 21.1727 17.6858C21.1694 17.8635 21.123 18.0378 21.0376 18.1937C20.9521 18.3496 20.8302 18.4825 20.6822 18.581C20.5342 18.6794 20.3645 18.7406 20.1877 18.7591L20.0727 18.7651H4.39671C4.21888 18.7652 4.04368 18.7221 3.88613 18.6396C3.72859 18.5571 3.59339 18.4377 3.49213 18.2915C3.39087 18.1453 3.32656 17.9767 3.30472 17.8002C3.28287 17.6238 3.30415 17.4446 3.36671 17.2781L3.41271 17.1731L5.23471 13.5291V9.76514C5.23471 7.90862 5.97221 6.12814 7.28496 4.81539C8.59772 3.50263 10.3782 2.76514 12.2347 2.76514Z" fill="#333333"/>
</g>
<circle cx="18.2347" cy="8.76514" r="4" fill="#50C878" stroke="white"/>
<defs>
<clipPath id="clip0_37_2026">
<rect width="24" height="24" fill="white" transform="translate(0.234741 0.765137)"/>
</clipPath>
</defs>
</svg>
