<svg width="29" height="29" viewBox="0 0 29 29" fill="none" xmlns="http://www.w3.org/2000/svg">
<path opacity="0.4" d="M18.9615 2.87769H22.9092C24.5441 2.87769 25.8688 4.21363 25.8688 5.86234V9.84338C25.8688 11.4921 24.5441 12.828 22.9092 12.828H18.9615C17.3266 12.828 16.0018 11.4921 16.0018 9.84338V5.86234C16.0018 4.21363 17.3266 2.87769 18.9615 2.87769Z" fill="#FFFFF0"/>
<path d="M9.4582 16.2453C11.0931 16.2453 12.4179 17.5813 12.4179 19.23V23.211C12.4179 24.8586 11.0931 26.1957 9.4582 26.1957H5.5105C3.8756 26.1957 2.55084 24.8586 2.55084 23.211V19.23C2.55084 17.5813 3.8756 16.2453 5.5105 16.2453H9.4582ZM22.9092 16.2453C24.5441 16.2453 25.8688 17.5813 25.8688 19.23V23.211C25.8688 24.8586 24.5441 26.1957 22.9092 26.1957H18.9615C17.3266 26.1957 16.0018 24.8586 16.0018 23.211V19.23C16.0018 17.5813 17.3266 16.2453 18.9615 16.2453H22.9092ZM9.4582 2.87769C11.0931 2.87769 12.4179 4.21363 12.4179 5.86234V9.84338C12.4179 11.4921 11.0931 12.828 9.4582 12.828H5.5105C3.8756 12.828 2.55084 11.4921 2.55084 9.84338V5.86234C2.55084 4.21363 3.8756 2.87769 5.5105 2.87769H9.4582Z" fill="#FFFFF0"/>
</svg>
