<svg width="24" height="24" viewBox="0 0 24 24" fill="none" xmlns="http://www.w3.org/2000/svg">
<path opacity="0.4" d="M16.7424 0.331787H20.6901C22.325 0.331787 23.6497 1.66773 23.6497 3.31644V7.29748C23.6497 8.94619 22.325 10.2821 20.6901 10.2821H16.7424C15.1075 10.2821 13.7827 8.94619 13.7827 7.29748V3.31644C13.7827 1.66773 15.1075 0.331787 16.7424 0.331787Z" fill="#FFFFF0"/>
<path d="M7.23914 13.6994C8.87405 13.6994 10.1988 15.0354 10.1988 16.6841V20.6651C10.1988 22.3127 8.87405 23.6498 7.23914 23.6498H3.29145C1.65655 23.6498 0.331787 22.3127 0.331787 20.6651V16.6841C0.331787 15.0354 1.65655 13.6994 3.29145 13.6994H7.23914ZM20.6901 13.6994C22.325 13.6994 23.6498 15.0354 23.6498 16.6841V20.6651C23.6498 22.3127 22.325 23.6498 20.6901 23.6498H16.7424C15.1075 23.6498 13.7827 22.3127 13.7827 20.6651V16.6841C13.7827 15.0354 15.1075 13.6994 16.7424 13.6994H20.6901ZM7.23914 0.331787C8.87405 0.331787 10.1988 1.66773 10.1988 3.31644V7.29748C10.1988 8.94619 8.87405 10.2821 7.23914 10.2821H3.29145C1.65655 10.2821 0.331787 8.94619 0.331787 7.29748V3.31644C0.331787 1.66773 1.65655 0.331787 3.29145 0.331787H7.23914Z" fill="#333333"/>
</svg>
