<svg width="21" height="21" viewBox="0 0 21 21" fill="none" xmlns="http://www.w3.org/2000/svg">
<path d="M18.3264 17.6734L15.2348 14.6067C16.4348 13.1104 17.016 11.2111 16.8588 9.29947C16.7015 7.38781 15.8178 5.60904 14.3894 4.32893C12.9609 3.04881 11.0963 2.36465 9.17886 2.41712C7.26145 2.46958 5.43702 3.25469 4.0807 4.61101C2.72439 5.96732 1.93928 7.79176 1.88681 9.70916C1.83434 11.6266 2.51851 13.4912 3.79862 14.9197C5.07874 16.3481 6.8575 17.2318 8.76917 17.3891C10.6808 17.5463 12.5801 16.9651 14.0764 15.7651L17.1431 18.8317C17.2206 18.9098 17.3127 18.9718 17.4143 19.0141C17.5158 19.0564 17.6247 19.0782 17.7348 19.0782C17.8448 19.0782 17.9537 19.0564 18.0552 19.0141C18.1568 18.9718 18.2489 18.9098 18.3264 18.8317C18.4766 18.6763 18.5606 18.4687 18.5606 18.2526C18.5606 18.0364 18.4766 17.8288 18.3264 17.6734ZM9.40142 15.7651C8.2477 15.7651 7.11988 15.4229 6.16059 14.782C5.20131 14.141 4.45363 13.2299 4.01212 12.164C3.57061 11.0981 3.45509 9.92525 3.68017 8.7937C3.90525 7.66214 4.46082 6.62274 5.27663 5.80693C6.09244 4.99113 7.13184 4.43556 8.26339 4.21048C9.39495 3.9854 10.5678 4.10091 11.6337 4.54243C12.6996 4.98394 13.6107 5.73161 14.2517 6.6909C14.8926 7.65018 15.2348 8.778 15.2348 9.93172C15.2348 11.4788 14.6202 12.9626 13.5262 14.0565C12.4322 15.1505 10.9485 15.7651 9.40142 15.7651Z" fill="#333333"/>
</svg>
