<svg width="29" height="28" viewBox="0 0 29 28" fill="none" xmlns="http://www.w3.org/2000/svg">
<path d="M22.3618 8.90871L23.9861 7.28446C23.4713 6.70111 22.9566 6.17494 22.3733 5.67166L20.749 7.31878C18.9761 5.87755 16.7456 5.03111 14.3207 5.03111C11.5904 5.03111 8.97195 6.11571 7.04136 8.0463C5.11077 9.97689 4.02617 12.5953 4.02617 15.3256C4.02617 18.0559 5.11077 20.6743 7.04136 22.6049C8.97195 24.5355 11.5904 25.6201 14.3207 25.6201C20.0398 25.6201 24.6152 21.0105 24.6152 15.3256C24.6152 12.9007 23.7687 10.6702 22.3618 8.90871ZM15.4645 16.4694H13.1768V8.46261H15.4645V16.4694ZM17.7522 1.59961H10.8892V3.88728H17.7522V1.59961Z" fill="#FFA726"/>
</svg>
